<?xml version="1.0" encoding="UTF-8"?>
<svg id="b" data-name="Layer 2" xmlns="http://www.w3.org/2000/svg" width="165.097" height="162.352" viewBox="0 0 165.097 162.352">
  <defs>
    <style>
      .f {
        fill: #eb271a;
      }
    </style>
  </defs>
  <g id="c" data-name="b">
    <g id="d" data-name="c">
      <path class="f" d="m54.115,90.107c21.487-17.948,39.007-31.939,55.734-47.015,10.487-9.449,20.012-19.48,29.822-29.354,6.775-6.818,17.091-15.782,21.319-13.322,4.187,2.436-5.018,12.648-10.898,19.003-11.583,12.522-22.609,25.865-35.574,36.925-10.514,8.969-20.924,18.502-31.354,27.446-14.489,12.426-32.376,22.075-43.388,37.736-8.765,12.463-22.97,19.795-32.545,31.236-1.849,2.208-4.375,2.507-5.875,1.726-2.713-1.411-.829-4.609,1.083-7.723,6.663-10.838,16.2-20.805,25.358-30.275,9.825-10.163,20.029-20.29,26.31-26.376l.008-.007Z"/>
    </g>
    <g id="e" data-name="c">
      <path class="f" d="m75.001,54.436c17.949,21.486,31.944,39.003,47.014,55.735,9.445,10.491,19.463,20.026,29.326,29.845,6.811,6.781,15.773,17.098,13.351,21.294-2.399,4.156-12.595-5.063-18.941-10.95-12.504-11.598-25.822-22.646-36.88-35.611-8.968-10.515-18.496-20.929-27.439-31.36-12.424-14.49-22.108-32.349-37.728-43.395C31.273,31.201,23.913,17.021,12.493,7.428c-2.204-1.853-2.514-4.369-1.746-5.858,1.388-2.693,4.576-.801,7.68,1.119,10.805,6.691,20.759,16.238,30.219,25.405,10.151,9.835,20.268,20.048,26.349,26.332l.007.008Z"/>
    </g>
  </g>
</svg>