<?xml version="1.0" encoding="UTF-8"?>
<svg id="b" data-name="Layer 2" xmlns="http://www.w3.org/2000/svg" width="8.097" height="31.62" viewBox="0 0 8.097 31.62">
  <defs>
    <style>
      .d {
        fill: #53514d;
      }
    </style>
  </defs>
  <g id="c" data-name="Layer 1">
    <g>
      <path class="d" d="m.284.053c.162-.014.325-.003.488-.008.018.014.039.009.059.009.092-.002.184-.007.276-.008.324-.002.649-.003.973-.004.03,0,.058.001.044-.042h5.108c.002.026.009.043.042.043.127-.001.254,0,.38,0,.139.01.28-.009.418.015.016.043.03.086.023.133-.024.151-.025.304-.078.453-.038.108-.098.186-.181.254-.025.02-.049.043-.057.073-.021.074-.062.135-.106.197-.063.089-.143.133-.252.129-.041-.002-.084.004-.109.041-.021.031-.047.037-.08.036-.024-.001-.048-.004-.071.006h-.047c-.013-.003-.025-.007-.038-.007-.025,0-.057-.008-.064.027-.007.035.02.044.049.055.078.028.161.158.16.246,0,.023.01.053-.017.065-.03.014-.051-.014-.072-.03-.01-.007-.022-.019-.023-.03-.009-.064-.059-.105-.083-.16-.038-.089-.099-.099-.192-.094-.03.002-.043.026-.016.043.063.041.088.114.145.158.086.067.132.162.148.262.019.12.09.235.045.365-.012.034-.012.075-.022.112-.018.066-.048.127-.073.19-.01.026-.016.064.026.061.041-.002.084-.011.121-.034.128-.079.179-.209.224-.342.025-.076.013-.158.032-.235.018-.074.021-.147.006-.219-.022-.103-.05-.204-.076-.305-.004-.014-.011-.03.004-.041.016-.011.034-.003.044.011.056.079.122.152.138.254.008.051-.002.104.018.153.024.059.027.115.016.18-.023.136-.04.267-.107.395-.058.111-.149.18-.245.228-.083.042-.186.068-.286.069-.029,0-.054.004-.074.028-.092.105-.2.183-.345.196-.039.003-.048.029-.029.064.023.041.058.071.094.101.029.024.051.054.057.092.009.061.006.121-.009.18-.021.079-.102.13-.182.116-.011-.002-.024-.002-.022-.017.001-.012.012-.013.021-.013.051,0,.07-.032.078-.077.003-.016.008-.032.012-.048.022-.102-.03-.247-.105-.298-.045-.03-.099-.04-.142-.073-.012-.009-.029-.008-.043,0-.035.021-.074.021-.111.029-.068.015-.135.029-.188.085-.048.051-.053.047-.003.095.015.014.028.029-.001.041-.092.037-.188.066-.258.143-.014.015-.037.02-.055.002-.017-.017-.005-.035.005-.05.012-.02.037-.036.026-.063-.012-.031.007-.046.022-.068.036-.052.104-.057.143-.1.048-.054.106-.097.161-.142.038-.031.038-.056.01-.086-.047-.052-.102-.097-.144-.153-.058-.076-.112-.157-.11-.259.004-.191.095-.341.232-.465.036-.033.08-.066.135-.071.118-.012.236-.037.355-.004.138.039.271.128.252.306-.003.026.002.052-.001.077-.012.099-.056.181-.147.225-.102.049-.214.031-.322.029-.017,0-.035-.011-.05-.021-.032-.021-.044-.082-.023-.109.032-.039.06-.005.087.008.012.006.022.02.031.031.056.072.162.068.21-.007.051-.079.084-.161.075-.259-.008-.083-.078-.187-.155-.219-.09-.037-.184-.029-.265.003-.126.05-.228.139-.271.278-.012.038-.01.077-.014.115-.012.127.021.236.126.317.048.037.103.069.14.116.097.124.227.115.358.099.056-.007.113-.024.156-.065.114-.109.225-.221.269-.378.043-.153.074-.307.035-.468-.02-.081-.043-.158-.076-.235-.062-.145-.163-.248-.296-.323-.044-.025-.093-.033-.143-.012l-.065-.003c-.022-.035-.057-.017-.086-.018-.107-.005-.218-.002-.316.039-.092.038-.184.083-.267.143-.078.056-.152.113-.202.199-.031.053-.063.109-.109.153-.015.015-.03.037-.056.027-.023-.01-.016-.034-.018-.054-.011-.106.037-.188.106-.262.02-.022.045-.039.059-.066.025-.05.062-.085.116-.104.033-.012.067-.025.091-.052.051-.058.116-.083.19-.089.013-.001.034.003.032-.019-.002-.017-.019-.013-.032-.015-.207-.025-.415-.02-.623-.032-.199-.012-.398.017-.597.01-.046-.001-.085.017-.119.05-.047.047-.084.102-.124.156-.034.046-.073.088-.125.114-.017.009-.041.025-.053.001-.012-.023.017-.028.031-.037.041-.026.07-.059.096-.102.042-.071.056-.153.099-.221.092-.145.126-.304.112-.475-.003-.031-.012-.056-.04-.067-.028-.011-.049.01-.065.03-.067.08-.065.178-.073.274,0,.019-.001.038-.013.054-.033.019-.033.056-.047.085-.027.056-.069.08-.129.067-.054-.011-.059-.025-.023-.065.015-.017.033-.033.02-.058-.015-.027-.041-.019-.064-.012-.027.007-.053.015-.08.023-.015.004-.031.006-.042-.006-.032-.033-.068-.06-.09-.103-.031-.062-.046-.128-.067-.192-.011-.032-.03-.062-.071-.059-.04.002-.053.031-.062.066-.028.105.028.191.068.278.064.139.166.257.221.401.016.041.046.074.088.096.048.025.048.059.005.088-.062.042-.065.05-.026.117.047.082.066.172.068.265,0,.036.011.068.024.101.029.07.058.142-.013.207-.01.009-.018.025-.02.039-.018.112-.065.209-.141.293-.025.028-.011.049.022.054.025.004.052,0,.077.001.061.005.123.006.171.051.026.024.055.031.086.026.09-.017.179-.011.269,0,.054.006.085.025.105.08.025.072.055.148.152.153.012,0,.037-.004.034.016-.004.025-.026.01-.041.008-.046-.006-.079.014-.102.051-.011.018-.021.04-.025.061-.013.065-.045.111-.108.142-.068.033-.138.045-.212.057-.066.011-.141-.016-.199.04-.054.053-.115.046-.179.019-.015-.006-.029-.017-.047-.01-.095.035-.163-.026-.227-.075-.035-.027-.056-.068-.109-.071-.021-.001-.023-.029-.032-.047-.077-.158-.094-.182-.274-.163-.018.002-.037.006-.055.005-.018-.001-.05.011-.049-.017,0-.026.033-.015.051-.016.057-.002.115-.003.172,0,.041.002.071-.017.085-.05.021-.052.053-.097.083-.143.016-.025.018-.05-.004-.071-.046-.045-.082-.101-.127-.142-.057-.053-.084-.102-.085-.178,0-.048-.008-.095.006-.142.002-.008.008-.018.015-.021.013-.006.019.007.025.016.03.045.048.096.063.147.02.069.052.126.111.173.088.071.203.061.267-.032.075-.107.112-.229.104-.354-.01-.168-.037-.336-.109-.492-.047-.102-.118-.186-.207-.254-.018-.014-.038-.021-.061-.022-.064-.002-.123,0-.171.055-.058.066-.163.068-.213.149-.006.009-.02.009-.03.003-.011-.006-.014-.016-.013-.028.005-.076.144-.224.223-.244.098-.025.194.002.291.003.023,0,.044.007.059-.015.016-.023.012-.045,0-.068-.025-.053-.093-.078-.179-.061-.053.01-.106.007-.159.001-.074-.008-.15-.023-.224-.002-.031.009-.061.004-.092.001-.076-.006-.152-.003-.228-.005-.063-.001-.122.036-.185.021-.035-.008-.069-.009-.103,0-.016.004-.035.001-.042.02-.008.022.013.027.024.039.056.064.135.104.181.177.019.029.038.053.07.067.045.02.075.05.079.103.002.027.015.051.033.075.021.028.033.064-.005.087-.04.025-.059-.011-.077-.039-.007-.011-.011-.024-.014-.036-.009-.047-.036-.083-.062-.122-.047-.07-.119-.114-.174-.177-.028-.032-.063-.064-.11-.07-.194-.024-.388-.071-.584-.016-.012.003-.026.002-.039.003-.039.004-.074.016-.11.032-.113.05-.194.135-.253.238-.036.063-.076.131-.067.212-.004.031-.008.063-.011.094-.013.004-.017.013-.017.025-.002.16-.014.319.072.468.082.143.196.237.355.267.078.015.163.022.239-.014.061-.029.115-.068.166-.114.103-.092.171-.195.165-.338-.001-.026-.003-.052.002-.077.01-.052-.002-.098-.027-.143-.008-.015-.028-.031-.002-.046.021-.012.04-.003.051.018.022.041.049.077.081.111.022.023.018.054.015.084-.011.099-.061.185-.086.279-.012.047-.034.088-.069.124-.043.044-.038.084.006.129.067.068.124.146.202.202.019.014.038.034.021.061-.021.034-.01.063.007.093.036.061.069.121.057.197-.004.026,0,.056-.03.065-.031.01-.052-.011-.069-.034-.034-.048-.073-.092-.097-.147-.009-.021-.029-.038-.042-.057-.053-.077-.162-.079-.216.007-.03.047-.067.089-.13.093-.013,0-.027.002-.034-.013-.006-.014,0-.025.01-.034.082-.072.152-.163.28-.153.029.002.064-.011.07-.05.006-.038-.002-.069-.034-.099-.091-.084-.203-.078-.302-.049-.112.033-.224.034-.337.043-.077.006-.143.053-.159.128-.023.107.023.2.077.285.033.052.1.042.133-.012.029-.048.075-.047.122-.045.013,0,.028,0,.031.016.003.015-.008.024-.018.032-.021.015-.047.023-.063.044-.051.069-.125.058-.195.053-.027-.002-.055-.01-.075-.031-.08-.087-.155-.172-.134-.308.01-.063.029-.11.077-.145.026-.019.046-.038.063-.065.036-.055.025-.083-.041-.093-.028-.004-.05.007-.072.023-.031.023-.064.045-.103.05-.16.023-.314-.014-.446-.094-.134-.082-.202-.227-.249-.375-.019-.061-.01-.13-.032-.189-.028-.076-.029-.147-.005-.221.016-.049.026-.099.027-.152,0-.042.004-.085.03-.122.062-.088.058-.145-.019-.222-.03-.03-.057-.063-.077-.101-.023-.043-.058-.062-.108-.063-.152-.003-.285-.119-.308-.27-.014-.093-.04-.171-.12-.237-.058-.048-.098-.123-.126-.202-.045-.125-.021-.242.008-.363.024-.101.04-.118.144-.124.045-.003.083-.017.107-.057Zm3.491,2.951c-.038.02-.054.092-.023.137.069.1.15.189.245.265.013.011.034.025.055.008.019,0,.037,0,.056,0,.022.016.042-.003.063-.002.052.004.079-.055.13-.053.097.004.183-.006.268-.07.08-.06.12-.148.115-.234-.001-.025-.023-.042-.021-.068.003-.034-.005-.061-.043-.074-.04-.013-.076-.015-.106.021-.018.022-.042.035-.066.05-.053.034-.108.022-.14-.034-.007-.013-.011-.027-.016-.041-.028-.067-.074-.078-.129-.033-.077.063-.154.123-.266.085-.039-.013-.085-.003-.112.039-.003.002-.006.003-.009.004ZM.88,1.928c0,.007-.001.014-.002.021-.026.01-.018.034-.019.053-.004.076,0,.151.011.226.025.176.093.331.234.442.091.072.201.033.304.026.028-.002.027-.027.017-.052-.026-.066-.055-.132-.069-.203-.009-.046-.029-.091-.053-.132-.019-.032-.035-.043-.066-.011-.042.042-.066.036-.099-.015-.059-.091-.076-.185-.035-.289.011-.029.019-.061.01-.092-.016-.052-.004-.101.028-.141.029-.037.035-.075.031-.118-.003-.036.009-.061.047-.07.048-.012.08-.044.103-.086.023-.041.058-.054.102-.047.035.005.068.011.097.034.027.021.072-.002.093-.041.02-.037-.005-.052-.031-.062-.055-.021-.111-.04-.172-.023-.034.009-.07.007-.105.002-.138-.018-.276-.005-.414-.008-.029,0-.046.014-.04.045.007.038.011.077.024.113.013.035.026.077.082.048.019-.01.047-.004.071-.005.013,0,.028,0,.034.014.009.019-.01.024-.021.033-.086.069-.146.155-.166.265-.005.025-.012.051.005.074ZM2.444.192c-.102,0-.204,0-.306.001-.013-.002-.025-.006-.038-.006-.38,0-.76,0-1.139.003-.252.002-.505-.011-.757.02-.063.008-.106.039-.107.101-.002.102-.003.203,0,.305.002.092.052.14.144.147.022.002.044.002.066.001.195-.003.39,0,.585-.017.192-.017.387-.025.58-.016.08.004.159-.003.237-.014.242-.036.485-.028.728-.039.21-.009.42,0,.63.011.082.004.165.009.248.015.109.009.221.039.329-.004.095-.037.18-.028.268.024.074.044.109.029.152-.046.016-.028.034-.053.065-.065.052-.02.2.014.236.058.03.036.053.044.089.006.057-.06.106-.064.178-.021.024.014.049.029.077.029.131-.002.262.022.392.01.124-.011.246-.012.369.002.126.014.253.024.379.035.183.015.367.029.55.043.055.004.115-.013.16.038.007.007.024.006.037.007.179.013.357.013.536.01.129-.002.258.011.387-.01.049-.008.09-.039.141-.044.066-.007.12-.039.17-.083.051-.045.079-.106.117-.159.044-.062.073-.13.061-.211-.005-.033-.019-.055-.048-.068-.026-.011-.054-.013-.081-.012-.109.005-.22.005-.325-.017-.144-.031-.288-.041-.434-.039-.147.002-.29-.019-.432-.052-.067-.015-.134-.023-.202-.024-.319-.001-.639,0-.958,0-.02,0-.041,0-.061.003-.276.052-.555.069-.835.073-.113.002-.225,0-.338,0-.471.003-.941.004-1.412-.012-.074-.002-.147-.016-.221-.008-.072.008-.147-.002-.217.024ZM.59.953c-.075,0-.131-.001-.186,0-.037.001-.071.013-.076.057-.006.049.037.118.086.127.114.022.231.029.345.017.17-.019.339-.01.508-.013.007,0,.014.003.021.006.133.057.27.019.403.007.071-.006.144-.032.216-.033.324-.002.649-.008.973-.023.242-.011.483.015.724.011.032,0,.063-.001.092-.015.017-.008.031-.02.03-.042-.005-.079-.085-.154-.167-.156-.166-.003-.331-.007-.496-.018-.183-.012-.368-.022-.552-.016-.035.001-.068.018-.104.009-.058-.016-.118-.013-.176-.006-.201.028-.403.033-.605.041-.151.006-.302,0-.452.002-.099.002-.2,0-.297.017-.102.018-.203.033-.287.027Zm6.769.178c.075.002.129-.009.182-.028.031-.011.047-.033.045-.068-.003-.037-.03-.036-.056-.041-.018-.003-.035-.007-.054-.004-.069.013-.138.019-.209.018-.258-.006-.517.006-.775-.04-.13-.023-.267-.018-.402-.026-.119-.007-.238-.02-.358-.027-.191-.01-.382-.022-.573-.029-.029-.001-.062.015-.087.006-.085-.03-.175-.019-.26-.038-.049-.011-.086.015-.098.066-.009.037-.012.077-.023.113-.012.042.003.056.042.065.054.013.106,0,.159-.001.358-.007.716.008,1.073.014.09.002.18.006.271.009.013,0,.026.003.038.004.163.014.328.01.491.012.111.002.224-.005.336-.014.091-.008.184-.007.257.008Zm-3.053-.345c0-.072-.016-.102-.061-.117-.05-.017-.09.003-.114.044-.049.082-.06.175-.044.267.007.039.054.052.092.062.024.006.049-.003.055-.026.022-.077.08-.143.072-.229Z"/>
      <path class="d" d="m1.07,31.613c-.055.006-.11.009-.165.004-.001-.016-.021-.036.006-.047.056-.022.093-.077.16-.082.041-.003.058-.033.055-.075-.002-.026-.008-.051-.015-.076-.009-.032-.022-.065-.015-.097.013-.057.136-.16.196-.164.085-.006.169,0,.254.01.021.003.034.014.034.036,0,.023-.008.041-.03.048-.017.005-.036.005-.055.005-.072,0-.143.009-.213.028-.059.016-.087.055-.08.108.008.058.058.052.097.063.076.022.155.024.233.029.097.007.196.019.292.01.161-.016.323-.017.483-.036.15-.018.299.012.449.027.17.017.342.011.513.006.177-.005.354-.002.531.007.333.017.668-.018,1.001.025.099.013.199.008.298.015.184.012.369.015.553-.001.082-.007.164-.034.246-.034.17,0,.338-.034.508-.025.027.001.052-.007.075-.018-.004-.015-.012-.015-.019-.016-.067-.011-.132-.027-.202-.014-.074.015-.145-.025-.218-.027-.228-.006-.455-.043-.683-.044-.256-.002-.513-.012-.769.007-.071.005-.142.012-.214.003-.088-.01-.176-.021-.264-.022-.55-.004-1.1.009-1.649-.023-.074-.004-.147-.011-.219-.028-.045-.01-.091-.027-.135-.024-.137.007-.271-.009-.405-.035-.05-.01-.064-.032-.054-.08.013-.061.037-.114.075-.164.059-.077.042-.124-.05-.158-.036-.013-.072-.029-.108-.043-.127-.049-.224-.124-.272-.261-.025-.071-.041-.146-.071-.214-.037-.085-.015-.144.052-.192.09-.064.12-.159.149-.257.039-.138.087-.273.122-.413.023-.094.045-.185.044-.282,0-.016,0-.035.008-.048.041-.076.047-.158.046-.241,0-.056.002-.113.017-.164.04-.145.059-.292.059-.441,0-.17-.009-.339-.01-.509-.002-.299-.009-.597-.018-.896-.01-.315-.034-.63-.027-.946.008-.324.001-.649.008-.973.007-.313.003-.627-.004-.941-.009-.356-.013-.712.006-1.068.011-.212,0-.424.01-.636.007-.167,0-.335-.005-.503-.006-.181.025-.363.027-.545.002-.22.02-.438.022-.658.005-.419,0-.839.005-1.258.001-.109.008-.217.011-.326.007-.243.027-.485.041-.727.006-.106-.003-.214-.002-.321.001-.317.011-.634-.006-.952-.012-.237-.02-.475-.022-.713-.002-.267.029-.533.038-.8.012-.381.04-.763.027-1.145,0-.011,0-.022-.002-.033-.018-.212-.018-.424.006-.635.019-.17.042-.34.049-.511.009-.217.005-.435.01-.653.01-.365.008-.73.021-1.095.009-.271.026-.542.024-.812-.002-.225-.015-.449-.02-.674-.004-.18.023-.358.016-.54-.011-.339-.009-.678-.027-1.017-.002-.047-.037-.089-.082-.097-.092-.016-.185-.032-.278-.047-.071-.011-.129-.039-.168-.103-.023-.038-.046-.075-.066-.115-.082-.165-.028-.296.146-.347.02-.006.036-.018.053-.029.084-.053.168-.1.274-.071.032.009.065.012.098.012.07,0,.11-.055.091-.121-.005-.016-.011-.032-.011-.048-.001-.132-.003-.265-.001-.397,0-.097-.029-.185-.073-.269-.011-.021-.025-.041-.026-.066,0-.02-.007-.042.014-.056.019-.012.035.003.051.01.113.053.163.156.188.267.047.21.029.418-.054.617-.016.038-.007.052.029.056.145.018.285.053.436.047.218-.009.437-.028.657-.009.242.02.486.021.729.024.188.003.376,0,.564-.007.21-.009.42-.002.63-.002.212,0,.425,0,.637,0,.069,0,.136-.011.203-.023.036-.006.046-.021.036-.061-.026-.104-.081-.203-.055-.316.007-.03.006-.062.012-.093.02-.118.038-.236.083-.347.027-.067.027-.074-.043-.092-.027-.007-.043-.026-.045-.05-.002-.026.022-.023.04-.027.063-.015.096-.059.099-.127.002-.032-.006-.077.028-.088.031-.01.066.014.094.035.009.007.016.015.024.023.011.01.023.014.034.003.065-.064.157-.066.233-.106.043-.022.071-.05.086-.095.012-.035.005-.068.001-.104-.004-.033-.022-.083.01-.095.029-.011.036.043.053.067.001.001.002.003.003.005.068.115.029.255-.111.287-.17.039-.269.163-.323.313-.07.199-.133.402-.125.619,0,.014-.005.029-.006.044-.012.189.019.228.174.22.112-.006.226-.018.329.059.064.048.119.091.114.179-.003.053,0,.107,0,.161,0,.114-.097.253-.204.291-.057.021-.114.041-.171.063-.025.01-.045.028-.045.057.003.166-.011.332.009.498.01.088.03.175.034.263.009.201-.017.402-.01.603,0,.011-.002.022-.003.033-.015.108-.03.215-.03.324,0,.417,0,.835,0,1.252,0,.018,0,.037.002.055.014.198.035.396.04.594.011.41-.008.819.011,1.229.009.201.009.402.01.603.005.746,0,1.492.005,2.239,0,.108-.003.219.014.326.025.161.037.322.039.484.006.354-.01.708,0,1.062.008.293.002.587.009.88.023.937-.023,1.875.031,2.812.022.373.028.748.036,1.122.015.693-.02,1.388.036,2.081.005.066.01.132,0,.197-.01.059.024.11.024.168.001.194-.006.387.007.581.013.212.011.424.013.636,0,.072.002.144.022.214.035.12.036.244.036.367,0,.085-.007.17.011.254.025.122.011.247.033.368.021.116.039.234.039.351,0,.221.051.435.063.654.004.068.001.137.012.204.035.229.063.46.14.68.046.133.071.276.163.39.012.015.015.033.015.052,0,.068.03.124.072.175.036.044.082.083.08.15,0,.038.01.077.013.115.003.035.005.071-.02.101-.055.065-.115.123-.193.16-.118.056-.243.096-.354.167-.027.017-.057.034-.062.066-.008.051-.013.103-.012.154.001.049.015.097.07.114.068.021.135.052.207.056.114.007.163.09.207.175.019.037.041.055.082.062.074.012.151.026.202.09.018.023.067.036.052.069-.015.032-.06.014-.092.016-.284.02-.566-.034-.85-.014-.198.013-.398.006-.597.011-.347.008-.694.003-1.041.003-.36,0-.719,0-1.078-.021-.007,0-.015,0-.022-.001-.171-.022-.342-.011-.513-.016-.138-.005-.279,0-.418.005-.075.002-.15-.019-.225-.019-.417-.003-.834.009-1.251-.015-.101-.006-.173.055-.261.074Zm3.237-22.992c-.003.033-.006.067.007.098.053.124.049.255.048.386,0,.011.003.022.003.033.004.107.039.21.054.315.007.044.01.088,0,.132-.018.073.018.142.018.213,0,.268.002.535.003.803,0,.028,0,.055.008.082.04.158.044.32.047.482,0,.034.004.066.012.098.024.089.03.181.033.273.004.107.004.215.026.319.045.217.036.436.048.655.011.197-.011.394-.018.591-.01.263-.004.527-.022.79-.015.23.005.46.018.69.018.323-.028.644-.021.967.001.063.014.126.008.187-.014.144-.008.287-.007.43.001.09-.003.181-.014.269-.012.097-.025.194-.029.29-.009.214-.011.428-.012.641-.006,1.008-.003,2.016-.003,3.025,0,.033-.005.066-.006.099-.002.059-.02.12.011.177,0,.358,0,.716,0,1.074-.017.011-.015.028-.015.044,0,.09,0,.18,0,.271,0,.015,0,.03.013.04,0,.018,0,.037,0,.055-.021.019-.013.043-.013.065,0,.48-.001.96-.002,1.441,0,.02,0,.041-.001.061-.013.196-.03.393-.038.589-.015.358-.003.716-.014,1.074-.005.151.004.302.007.453.005.225.01.45-.006.675-.012.175-.003.35-.01.526-.012.31-.006.62-.015.93-.005.159-.008.317-.01.476,0,.013-.002.026-.005.038-.028.132-.043.265-.04.4.005.233-.022.463-.057.693-.008.052-.007.107-.048.15-.04.042-.084.078-.134.106-.052.029-.107.036-.164.005-.054-.029-.101-.067-.154-.098-.091-.053-.128-.133-.127-.234,0-.117-.006-.232-.045-.344-.007-.021-.009-.043-.011-.065-.001-.012-.003-.029.014-.032.019-.003.026.014.027.028.011.087.052.165.072.249.018.078.036.156.077.229.057.1.143.14.247.153.062.007.097-.025.092-.088-.005-.071.005-.138.032-.203.012-.029.013-.061.014-.092.004-.117-.025-.232.007-.351.034-.128.013-.264.023-.396.012-.153.013-.308.012-.462-.002-.291.021-.582.032-.872.007-.188.013-.376.014-.564,0-.223-.006-.446-.008-.668-.002-.189-.004-.378.006-.568.011-.221-.001-.442.01-.664.015-.274-.005-.55.011-.825.011-.198.004-.397.011-.595.012-.312-.008-.624.012-.935.008-.127-.009-.254-.009-.38-.002-.443.003-.886.006-1.329,0-.143-.007-.289.012-.427.024-.176.008-.349.014-.523.004-.123-.004-.246-.002-.369.006-.279,0-.559.003-.838.001-.221.002-.443.008-.664.014-.507-.008-1.015.012-1.523.008-.196.028-.392.033-.589.007-.245.003-.49.02-.735.016-.241.003-.484.003-.726,0-.017.002-.034-.001-.05-.03-.154.013-.307.006-.462-.004-.081.018-.164.017-.247,0-.063-.01-.126-.007-.187.006-.127.012-.253.007-.38-.006-.168.028-.334.024-.502-.004-.181-.01-.361-.035-.54-.018-.126-.021-.254-.019-.38.001-.082.004-.164-.021-.239-.031-.097-.043-.194-.039-.294.003-.069-.01-.136-.015-.204-.01-.154-.053-.304-.051-.459.005-.275-.024-.549-.024-.824,0-.017,0-.033-.003-.05-.021-.133-.038-.267-.038-.4,0-.178-.019-.352-.07-.522-.006-.021-.01-.043-.01-.065.001-.062-.009-.072-.071-.059-.014.003-.029.006-.043.011-.042.014-.058-.016-.071-.044-.013-.03.01-.046.033-.061.013-.008.034-.002.044-.023-.018-.011-.036-.016-.056-.018-.123-.014-.245-.023-.369-.022-.085,0-.17.007-.254-.012-.057-.013-.119.011-.168-.01-.061-.026-.122-.026-.183-.031-.204-.019-.409-.013-.614-.013-.087,0-.174,0-.26,0-.049,0-.088.036-.082.078.018.118.004.236.009.354,0,.022.002.044.006.066.003.013-.001.035.018.036.019.001.027-.018.03-.034.016-.084.077-.158.084-.236.011-.114.068-.127.157-.131.068-.003.133,0,.193.033.05.029.036.085.048.129,0,.002.001.004.001.005.024.118.04.238.033.356-.012.204-.027.408-.028.612-.002.609-.012,1.219.007,1.828.005.148-.006.296-.007.443-.004,1.095-.002,2.191-.002,3.286,0,.315-.039.628-.053.943-.009.21-.015.421-.013.631.008.834-.017,1.668.018,2.503.028.687-.014,1.376.032,2.064.027.397.012.797.013,1.196,0,.734.02,1.469-.016,2.204-.02.407-.004.815-.004,1.222,0,.151.005.302-.001.452-.009.211-.014.422-.039.634-.02.177-.012.357-.015.535-.002.166.005.333-.004.499-.012.215-.034.429-.041.645-.004.129-.008.258-.012.387,0,.013-.002.026-.006.038-.041.12-.055.246-.09.368-.037.129-.089.24-.223.294-.065.026-.146-.007-.167-.075-.046-.143-.064-.291-.065-.44,0-.038-.01-.067-.043-.089-.046-.032-.056-.075-.032-.125.005-.012.01-.026.025-.026.016,0,.022.012.026.025.01.03.028.056.044.083.035.063.073.128.075.2.003.097.02.19.044.283.009.033.013.07.056.069.04-.001.08-.016.084-.064.011-.118.077-.22.084-.341.007-.122.058-.24.043-.365-.01-.081-.016-.163-.006-.243.009-.074.006-.147.006-.221,0-.042-.007-.083-.004-.126.009-.103.03-.205.035-.306.011-.239.013-.479.025-.718.011-.223.003-.445.008-.668.007-.309.017-.619.005-.929-.006-.173-.002-.346-.001-.519.002-.24.002-.479.018-.719.014-.222.015-.445.014-.668-.001-.267.002-.535-.007-.803-.016-.459.009-.919-.013-1.379-.006-.132.007-.264.001-.397-.009-.198-.002-.397-.003-.596-.001-.552.004-1.103-.011-1.655-.005-.188-.005-.376-.009-.564-.008-.376-.002-.752-.003-1.128,0-.143.011-.287.002-.43-.005-.084.014-.169.01-.254-.009-.225.016-.45.011-.675,0-.009,0-.018.002-.028.011-.106.023-.212.008-.318-.01-.068-.006-.136-.01-.204-.01-.171.035-.339.019-.513-.01-.1.007-.205.004-.308-.005-.156.033-.311.012-.468,0-.005,0-.011.001-.017.034-.138.013-.28.03-.419.012-.104-.008-.21-.008-.315-.002-.513,0-1.027,0-1.54,0-.018,0-.037.002-.055.025-.179-.009-.357-.006-.535.003-.164-.041-.325-.039-.489.002-.154.031-.306.023-.461-.003-.05.016-.103.003-.153-.014-.055-.015-.109-.017-.164-.005-.139.024-.275.029-.412.008-.245.019-.49.016-.736,0-.065-.018-.123-.051-.178-.03-.05-.058-.054-.091-.006-.044.063-.068.135-.079.211-.019.131-.054.254-.123.369-.046.077-.074.162-.039.254.033.089.033.181.027.273-.005.071-.017.143-.019.214-.006.195-.003.391-.009.586-.007.217-.031.434-.004.652.003.022,0,.044-.003.066-.016.108-.007.217-.009.325-.004.173.012.348-.002.52-.013.162.004.322.001.483-.002.117.002.235-.001.352-.004.132-.007.264-.015.396-.01.169-.017.338-.023.508-.011.318-.017.637-.043.955-.016.198-.023.398-.015.597,0,.018,0,.037,0,.055-.018.233-.029.467-.03.701,0,.158.023.315.021.474-.002.169-.018.338-.003.508.016.185-.002.372,0,.557.001.415.014.83-.016,1.245-.016.216-.017.434-.023.652-.01.371-.004.742-.009,1.113-.002.104-.009.204-.034.304-.008.034-.014.069-.015.104-.007.216-.001.431-.009.647-.015.444-.003.889-.011,1.334-.01.525-.006,1.051.006,1.577.006.258.008.516-.006.775-.01.18,0,.361.006.542.013.326-.003.653.01.98.01.234.004.468.024.702.003.04-.012.081-.007.121.011.1.028.198.021.301-.01.145.008.292-.025.435-.023.101-.02.204-.038.306-.012.066-.045.125-.049.191-.008.138-.034.273-.068.407-.02.077-.029.156-.053.231-.031.094-.091.176-.137.264-.032.062-.029.083.032.12.028.017.058.019.089.024.104.018.209.004.313.028.163.038.33.053.499.05.027,0,.055.006.082.007.056.003.107.025.159.037.07.016.148.03.221-.004.021-.01.038-.008.058,0,.073.029.153.035.228.031.141-.008.283.006.424-.007.035-.003.068.011.104.008.276-.023.553.009.829.008.002,0,.004.001.005.001.101.005.201.016.302.012.138-.006.276-.019.414-.018.508.001,1.015.002,1.522-.01.006,0,.011,0,.017,0,.095-.006.134-.073.092-.157-.046-.092-.098-.182-.137-.277-.03-.071-.081-.136-.091-.213-.018-.145-.065-.283-.092-.426-.049-.259-.053-.523-.099-.782-.041-.233-.033-.473-.059-.709-.019-.17-.028-.341-.038-.512-.004-.072.003-.145-.011-.215-.048-.241-.059-.486-.064-.731-.001-.059-.007-.118-.013-.176-.019-.193-.005-.387-.01-.58-.004-.159.013-.319-.003-.476-.024-.244-.023-.489-.038-.733-.014-.232,0-.465-.01-.697-.012-.284-.002-.568-.012-.852-.008-.231,0-.462-.003-.693,0-.075-.007-.151-.013-.226-.014-.169-.039-.336-.041-.506-.009-.737.011-1.473-.01-2.21-.009-.313-.004-.627-.009-.94-.003-.173.008-.348.004-.522-.004-.148-.005-.297-.016-.445-.016-.213-.013-.427-.019-.641-.011-.42-.017-.841-.017-1.262,0-.112.007-.223.003-.336-.017-.518.017-1.037-.023-1.555-.009-.113-.006-.227-.005-.341.003-.369.012-.738-.008-1.107-.002-.036.012-.074.006-.11-.045-.267-.027-.537-.041-.805-.004-.083.021-.166.01-.248-.016-.118-.006-.236-.009-.354-.004-.14.005-.279.03-.418.015-.083.025-.169.012-.253-.015-.093.01-.183.01-.274,0-.149.029-.302-.036-.446-.007-.016-.005-.033,0-.049.043-.114.03-.234.026-.351-.003-.102-.078-.142-.17-.096-.032.016-.063.027-.1.023-.088-.008-.177.002-.267-.006-.121-.011-.245.002-.368.007-.065.003-.13-.017-.192-.008-.112.017-.222.01-.33-.009-.134-.023-.267.007-.4-.004-.053-.004-.055.051-.075.084-.014.023-.01.046.009.06.034.025.06.057.088.088,0,.01.002.021.002.031Zm.171,22.232s0,0,0,.001c.068,0,.137.002.205,0,.112-.003.225,0,.337-.007.15-.011.299-.039.451-.04.111,0,.224-.006.335-.026.172-.031.342-.066.511-.111.113-.03.233-.033.34-.087.011-.005.025-.004.038-.006.132-.015.247-.066.344-.158.034-.032.032-.063-.001-.094-.056-.052-.123-.05-.193-.04-.115.015-.232.02-.346.02-.141,0-.282.005-.424-.001-.192-.008-.384-.004-.576-.002-.238.003-.476.001-.714.005-.157.003-.317-.012-.474-.013-.384-.003-.767-.018-1.151-.015-.016,0-.033-.003-.049-.005-.101-.011-.2-.032-.302-.029-.084.003-.168,0-.252-.02-.217-.053-.439-.066-.66-.09-.077-.008-.157.001-.228-.044-.031-.02-.067-.013-.1.006-.031.017-.066.024-.101.028-.081.008-.145.068-.153.149-.003.027-.008.056.006.082.057.1.143.155.255.182.109.027.222.036.33.064.147.038.296.056.448.056.047,0,.096.005.142.016.082.02.164.035.249.04.133.008.266.004.398.011.061.003.123.019.182.038.044.015.088.022.134.027.104.013.209.004.313.03.084.021.17.034.257.035.15.001.299,0,.449,0Zm1.208-22.663c.098.002.196-.003.291-.026.063-.015.126-.022.189-.033.113-.018.234.01.336-.074.052-.042.094-.085.122-.144.016-.035.005-.064-.02-.09-.066-.067-.15-.102-.24-.094-.173.017-.345-.003-.518.005-.202.01-.405.002-.608-.008-.077-.004-.154.013-.232.01-.16-.005-.319-.01-.479-.011-.077,0-.154.008-.232.009-.049,0-.098-.018-.148-.006-.046.011-.093.011-.138.005-.202-.027-.406-.018-.608-.043-.07-.009-.14-.008-.209-.015-.109-.011-.217-.01-.326-.001-.152.013-.306.012-.458.012-.191,0-.382-.029-.573-.009-.02.002-.039-.002-.059-.01-.148-.063-.308-.014-.385.116-.05.086-.031.195.048.223.095.034.191.067.294.07.097.003.194-.008.291-.017.121-.011.244-.007.368.02.083.018.178.008.268.008.212.001.423,0,.635.019.265.023.533,0,.795.059.068.015.136.003.203,0,.237-.014.474.023.711.014.226-.009.454-.009.68.01Zm-3.635,22.664c-.024,0-.048,0-.072,0-.104,0-.123.017-.132.137-.003.041.017.061.059.063.054.002.106-.006.158-.023.04-.013.081-.027.124-.021.127.017.253.046.383.022.017-.003.037.001.054.006.107.029.217.02.324.02.105,0,.208.01.313.014.086.003.173.016.258-.009.016-.005.04-.01.037-.034-.003-.021-.025-.027-.043-.029-.14-.016-.282-.047-.422-.043-.222.006-.433-.058-.652-.067-.13-.005-.258-.043-.389-.037Zm4.233.321c.138,0,.189-.014.232-.055.016-.015.037-.031.011-.054-.031-.029-.046-.067-.057-.106-.011-.039-.035-.055-.074-.049-.127.018-.256.03-.382.051-.17.029-.345.028-.511.079-.036.011-.085.009-.082.055.003.046.054.033.087.035.116.006.232.001.348.007.156.008.31.023.427.038Z"/>
      <path class="d" d="m5.808,4.123c.056.006.124-.007.192-.01.11-.005.163.034.2.137.013.037.021.077.069.084.05.007.088-.005.116-.053.022-.037.055-.06.105-.059.073.002.134-.05.148-.124.012-.068.003-.136-.042-.193-.009-.011-.024-.022-.012-.038.011-.014.027-.007.041,0,.062.03.128.046.197.048.011,0,.024,0,.025.015,0,.01-.01.014-.019.017-.054.013-.07.052-.073.103-.003.05-.014.098-.011.149.002.035.015.056.05.062.039.007.072.023.1.052.026.027.171.036.203.017.046-.027.072-.143.046-.197-.013-.026-.027-.053-.036-.081-.011-.033.004-.051.039-.044.043.008.078.034.091.073.019.053.032.11.027.168-.003.035-.08.123-.117.13-.109.021-.215.01-.318-.032-.016-.006-.032-.009-.048-.01-.037-.003-.072-.011-.104-.032-.089-.058-.122-.06-.198.017-.059.06-.122.066-.197.053-.158-.028-.267.038-.357.204-.057.106-.105.214-.137.33-.004.015-.013.031-.024.043-.025.027-.032.054-.021.09.019.06-.03.1-.055.144-.027.049-.04.099-.041.153,0,.05-.006.099-.022.147-.008.024-.009.059-.042.056-.032-.003-.054-.031-.059-.065-.014-.095-.01-.191.003-.286.013-.094.043-.184.045-.282,0-.056.048-.11.069-.166.043-.112.113-.208.174-.309.031-.052.086-.085.135-.12.036-.025.03-.044.003-.07-.079-.077-.182-.082-.282-.093-.049-.005-.078.026-.069.077.022.121-.048.183-.138.236-.054.032-.059.096-.092.142-.077.108-.085.247-.163.354-.008.011-.01.028-.013.042-.026.14-.064.276-.129.404-.008.016-.008.036-.011.053-.003.013-.006.027-.022.026-.017,0-.021-.014-.021-.027,0-.039-.003-.078,0-.116.005-.073.015-.146.021-.22.002-.02.01-.035.021-.05.022-.029.036-.062.04-.096.01-.08.048-.146.09-.212.028-.045.051-.094.048-.15-.003-.052-.026-.083-.08-.086-.085-.004-.14-.078-.221-.093-.01-.002-.018-.014-.012-.027.005-.013.016-.021.029-.023.038-.006.074,0,.105.023.016.012.032.025.049.037.034.024.071.027.1-.004.032-.034.066-.042.109-.028.017.006.037.004.055.004.091,0,.126-.033.122-.116-.003-.075-.072-.136-.145-.127-.051.006-.101.02-.153.02-.07,0-.127-.02-.181-.067-.045-.039-.103-.038-.161-.021-.041.012-.062.039-.067.079-.006.047.014.085.041.122.014.018.048.045.021.065-.029.021-.053-.014-.069-.036-.025-.033-.034-.077-.078-.097-.08-.037-.107-.021-.132.064-.013.045-.03.086-.051.126-.057.11-.073.232-.086.352-.015.13-.054.256-.064.386-.003.039-.008.077,0,.115.002.009.004.018.004.027,0,.034.006.084-.025.093-.025.007-.033-.045-.045-.073-.079-.177-.081-.357-.02-.539.014-.041.012-.084.015-.126.005-.065.036-.117.077-.167.049-.062.084-.125.02-.203-.029-.036.005-.069.037-.074.116-.02.155-.105.178-.201.025-.103.005-.201-.056-.29-.023-.034-.056-.041-.094-.048-.089-.016-.17-.012-.245.049-.051.042-.121.03-.165-.018-.059-.065-.201-.059-.284.01-.136.114-.111.21-.013.333.047.059.109.105.154.166.039.053.096.046.151.044.044-.002.087-.019.132-.014.014.001.033-.004.036.017.002.016-.014.02-.025.026-.068.037-.14.025-.211.018-.032-.003-.062-.014-.086.018-.026.034-.005.061.01.091.104.204.151.418.118.647-.006.044,0,.089-.014.131-.005.013-.006.033-.025.03-.015-.002-.017-.019-.016-.031.019-.185-.062-.354-.084-.533-.01-.078-.055-.151-.078-.229-.014-.046-.079-.059-.129-.027-.055.035-.112.043-.174.042-.093-.002-.147.067-.132.162.008.046.026.088.045.13.063.146.1.297.11.457.006.102-.009.191-.059.278-.011.019-.02.044-.045.043-.023-.002-.039-.023-.042-.046-.008-.067-.038-.13-.035-.199.005-.102-.011-.202-.024-.303-.008-.062-.047-.115-.057-.178-.019-.119-.09-.213-.163-.304-.001-.001-.003-.002-.004-.004-.03-.087-.098-.153-.134-.236-.014-.034-.026-.065-.065-.075-.015-.004-.029-.012-.026-.03.003-.016.019-.015.032-.015.009,0,.018,0,.028,0,.057-.004.081-.038.058-.09-.033-.074-.069-.146-.105-.218-.006-.011-.018-.021-.008-.034.011-.014.026-.009.041-.006.061.014.089.062.114.112.025.047.047.096.072.143.042.081.098.092.159.027.053-.056.12-.09.188-.12.049-.022.071-.052.072-.105.002-.116.052-.17.159-.221.072-.034.139-.061.219-.054.033.003.062.008.082.036.04.056.114.058.183.011.05-.034.105-.03.158-.042.007-.002.02.004.024.01.034.051.088.052.141.061.097.017.203.144.207.244.001.031.005.062.007.093.004.056.039.073.085.075.08.004.157.012.237.036.076.023.167.02.249-.012.023-.009.045-.013.069,0,.045.023.072-.003.083-.042.023-.078.069-.142.11-.21.018-.03.047-.049.08-.056.04-.009.079-.017.114-.041.007-.005.018-.007.026-.007.036.002.09-.019.098.034.007.047-.048.04-.078.05-.097.032-.165.101-.226.177-.015.018-.016.04.003.055.062.051.115.125.213.094.007-.002.015,0,.034,0Zm-2.546.045c-.034,0-.055,0-.075,0-.067.002-.074.012-.078.078-.003.057.032.096.055.142.045.088.067.091.134.018.006-.007.013-.013.018-.021.022-.039.049-.04.093-.028.065.018.136.015.192-.032.023-.019.035-.051.052-.076.033-.047.027-.095-.002-.14-.028-.044-.069-.062-.124-.046-.034.01-.07.02-.093.045-.052.058-.115.068-.172.06Z"/>
      <path class="d" d="m1.625,3.677c-.066.005-.134.004-.2.012-.246.032-.404.2-.362.46.002.015.005.029.008.043.011.05.056.078.088.043.093-.098.212-.086.327-.101.065-.008.122-.041.181-.067.019-.008.036-.022.042-.042.018-.054.03-.109.074-.151.02-.019.006-.05-.01-.071-.012-.016-.028-.03-.042-.044-.01-.011-.024-.022-.013-.038.012-.017.033-.025.049-.012.09.079.172.048.252-.016.06-.047.135-.046.204-.06.13-.027.263-.023.394.004.017.003.043.008.038.031-.004.02-.028.012-.044.012-.131-.002-.261,0-.39.031-.041.01-.078.025-.111.048-.125.085-.251.171-.299.327-.027.086-.009.164.047.233.051.062.116.051.152-.02.031-.061.075-.11.155-.099.013.002.026-.001.039,0,.09.013.163-.008.222-.084.054-.069.137-.061.215-.057.009,0,.018.004.018.016,0,.009-.008.013-.015.014-.122.016-.158.136-.241.2-.032.025-.015.062.011.088.023.023.048.046.076.063.077.046.133.107.171.188.048.105.098.21.136.32.04.114.048.23.044.348-.003.109.006.218-.011.326-.003.021-.001.051-.025.056-.02.005-.032-.022-.046-.036-.026-.027-.031-.062-.029-.098.007-.115-.009-.228-.023-.341-.015-.122-.07-.232-.11-.346-.042-.118-.107-.226-.174-.332-.047-.074-.109-.139-.167-.205-.035-.039-.076-.014-.11.006-.027.015-.052.037-.072.06-.05.058-.115.075-.187.08-.055.003-.071.027-.041.069.054.075.068.17.128.242.03.036.01.086.017.13.017.122.048.243.039.367-.008.11-.03.218-.047.327-.004.027-.024.046-.046.06-.034.022-.03.042,0,.064.011.008.037.014.022.029-.02.02-.049.035-.08.029-.02-.004-.027-.022-.021-.039.031-.081.004-.163,0-.243-.004-.066.012-.131-.001-.198-.038-.195-.053-.394-.144-.576-.052-.104-.091-.214-.153-.314-.038-.062-.085-.116-.139-.163-.032-.028-.077-.028-.107,0-.077.069-.166.057-.256.05-.023-.002-.042-.013-.058-.029-.096-.099-.127-.192-.065-.34.056-.133.149-.218.278-.264.127-.045.26-.044.392-.012.008.002.019.003.019.022Z"/>
      <path class="d" d="m4.871,2.36c.003-.056.005-.115-.053-.16-.03-.023-.009-.045.024-.05.049-.007.103.024.117.074.026.093.038.186-.016.277-.023.039-.028.086-.052.127-.107.181-.273.181-.439.127-.039-.013-.057-.044-.058-.086,0-.051-.01-.098-.052-.134-.017-.015-.026-.036-.026-.059.001-.128-.035-.257.008-.384.004-.013,0-.029-.004-.043-.011-.051-.004-.099.029-.142.03-.039.052-.081.056-.13.002-.018.01-.031.023-.043.061-.059.112-.127.179-.179.05-.038.107-.034.164-.033.102.002.194.035.282.085.082.047.123.125.146.212.006.023-.06.088-.082.084-.018-.004-.02-.019-.024-.033-.034-.128-.117-.213-.234-.269-.035-.017-.071-.023-.107-.007-.077.034-.16.061-.179.162-.003.016-.019.033-.033.043-.041.031-.051.074-.057.121-.013.098-.035.195-.042.294-.011.148.007.29.094.411.076.107.164.082.27.009.069-.048.054-.124.066-.191.005-.025,0-.052,0-.082Z"/>
      <path class="d" d="m3.326,5.751c-.022.018-.043.011-.063.012-.056.003-.104.02-.136.071-.024.04-.056.058-.107.042-.034-.011-.076-.03-.107-.006-.067.052-.166.065-.205.152-.042.093-.035.191.015.276.048.084.174.09.246.021.04-.038.148-.048.191-.018.014.01.019.023,0,.035-.006.004-.014.006-.021.008-.09.029-.098.064-.029.136.05.053.114.093.156.156.126.188.204.388.147.619-.006.026-.013.061-.05.054-.03-.006-.029-.038-.032-.064-.02-.161-.062-.315-.118-.467-.038-.101-.104-.18-.155-.27-.005-.009-.014-.02-.024-.022-.083-.023-.153-.083-.244-.081-.049.001-.081-.028-.113-.06-.141-.138-.129-.321.025-.446.064-.052.135-.065.21-.068.062-.003.116-.019.157-.067.034-.038.076-.05.125-.038.042.01.089-.008.132.025Z"/>
      <path class="d" d="m6.178,5.474c.019-.084.014-.171.048-.254.023-.055.041-.118.038-.177-.005-.09.036-.16.076-.232.06-.109.12-.218.197-.317.045-.058.1-.098.177-.095.032.001.044.014.03.046-.014.032-.03.063-.053.09-.066.075-.112.162-.159.25-.072.134-.115.277-.17.417-.026.067-.041.137-.049.209-.006.049-.012.098-.037.143-.023.04-.023.084-.01.129.005.017.003.035-.017.041-.022.007-.028-.013-.034-.028-.028-.072-.02-.149-.036-.223Z"/>
      <path class="d" d="m4.834,6.876c.059-.069.019-.187.11-.253.012-.008.016-.028.022-.044.018-.049.035-.098.093-.115.012-.004.023-.012.017-.029-.027-.074-.076-.107-.159-.107-.004,0-.008,0-.011,0-.021-.005-.06.011-.057-.022.003-.026.036-.005.056-.002.067.009.129-.005.182-.045.028-.02.05-.025.08-.009.04.022.082.036.123-.002.006-.006.017-.009.025-.009.073,0,.115-.039.152-.1.027-.045.028-.081.006-.123-.013-.026-.027-.052-.04-.079-.006-.012-.009-.025.004-.035.01-.008.02-.006.031-.002.053.017.121.143.109.198-.016.07-.05.122-.118.154-.066.031-.119.087-.198.09-.017,0-.031.016-.035.032-.029.109-.109.187-.168.277-.021.031-.04.062-.047.099-.017.096-.071.183-.063.285.002.028-.018.051-.046.055-.031.005-.033-.025-.038-.045-.011-.052-.019-.105-.031-.168Z"/>
      <path class="d" d="m3.974,6.915c-.02.003-.036-.008-.051-.023-.022-.023-.046-.043-.066-.067-.044-.052-.092-.091-.167-.09-.039,0-.072-.029-.095-.061-.037-.053-.076-.105-.096-.167-.014-.042-.039-.069-.079-.085-.022-.009-.043-.018-.044-.05-.001-.033.013-.053.041-.065.036-.016.065-.06.107-.046.074.023.157.027.213.092.014.017.018.029-.002.045-.051.04-.066.094-.039.147.028.055.067.101.131.118.044.012.076.044.111.071.066.049.116.048.162-.019.043-.063.101-.067.165-.065.011,0,.025,0,.026.014.002.014-.012.017-.022.02-.011.003-.021.007-.032.007-.046.001-.068.026-.078.07-.014.06-.126.151-.184.153Z"/>
      <path class="d" d="m2.411,6.962c.001.1.005.186-.019.271-.003.011,0,.03-.018.03-.016,0-.017-.016-.02-.028-.017-.054-.013-.11-.01-.165.016-.248-.07-.463-.21-.66-.048-.067-.175-.094-.246-.054-.027.015-.016.042-.02.064-.004.025.016.064-.02.071-.036.008-.054-.028-.065-.057-.009-.023-.021-.044-.041-.058-.048-.034-.041-.069-.011-.111.019-.026.044-.036.066-.019.085.064.182.05.277.048.061-.002.098.014.141.068.07.086.095.197.174.274.011.011.011.027.011.042,0,.1.021.198.011.285Z"/>
      <path class="d" d="m1.935,2.233c0,.079.074.147.151.139.022-.002.044-.007.065-.009.019-.002.033.005.037.025.003.016-.003.037-.018.035-.072-.008-.131.046-.209.027-.097-.023-.132-.091-.155-.168-.044-.146.079-.314.232-.331.093-.011.183.003.274.013.012.001.03.003.025.021-.003.014-.018.006-.028.005-.063-.008-.125-.009-.187.006-.109.027-.186.125-.187.238Z"/>
      <path class="d" d="m3.76,5.088c0,.028.003.056,0,.083-.003.023-.02.04-.043.045-.021.004-.027-.014-.036-.028-.076-.128-.103-.269-.106-.416,0-.033.002-.064.044-.071.04-.007.056.017.066.05.035.11.077.219.075.337Z"/>
      <path class="d" d="m5.493,6.823c.011-.101.026-.194.083-.272.019-.026.044-.043.078-.046.058-.005.113.01.17.012.013,0,.027.005.027.022,0,.017-.014.02-.027.021-.009.001-.018,0-.028.001-.083.002-.138.045-.158.125-.006.024-.016.045-.026.067-.023.048-.044.097-.043.153,0,.023-.006.048-.034.048-.024,0-.029-.026-.031-.046-.004-.031-.002-.063-.011-.085Z"/>
      <path class="d" d="m5.292,5.835c-.096.026-.187.02-.277.011-.073-.007-.146-.009-.22.005-.092.017-.15.08-.21.142-.02.021-.039.044-.059.065-.006.007-.014.014-.024.007-.009-.005-.009-.016-.007-.025.006-.023.006-.052.02-.068.085-.098.173-.199.323-.175.126.02.252.011.379.009.025,0,.051-.003.076.029Z"/>
      <path class="d" d="m3.762,7.151c-.002.068-.018.134-.03.201-.003.018-.008.039-.033.036-.021-.003-.021-.021-.024-.038-.027-.126-.024-.253-.011-.38.002-.019.006-.038.029-.04.027-.003.033.017.038.038.014.061.033.12.032.184Z"/>
      <path class="d" d="m5.77,7.052c.003.026-.005.053-.029.078-.028.029-.027.071-.037.108-.005.018-.008.036-.014.053-.006.018-.02.026-.039.022-.017-.003-.026-.015-.026-.031.005-.093.005-.187.026-.278.008-.037.049-.046.082-.04.044.008.036.049.037.088Z"/>
      <path class="d" d="m2.134,5.797c.071-.005.118.019.148.072.031.054.089.09.108.152.007.021.014.042.019.063.003.011-.003.022-.015.027-.01.004-.018-.001-.024-.009-.047-.068-.115-.119-.157-.191-.019-.032-.049-.043-.079-.057-.02-.009-.056-.009-.049-.041.006-.027.037-.014.048-.016Z"/>
      <path class="d" d="m3.776,2.329c.097-.058.109-.166.032-.243-.013-.013-.042-.023-.024-.047.015-.02.04-.012.061-.004.084.033.137.166.1.25-.015.033-.108.06-.169.044Z"/>
      <path class="d" d="m4.388,6.361c.054,0,.102.052.095.103-.007.048-.02.096-.032.144-.005.02-.017.042-.04.038-.026-.005-.03-.033-.025-.054.016-.063.009-.115-.052-.153-.017-.011-.038-.036-.023-.055.018-.024.054-.016.077-.023Z"/>
      <path class="d" d="m4.012,6.561c-.023.001-.036-.01-.046-.023-.024-.03-.047-.061-.07-.092-.01-.014-.019-.03-.004-.044.013-.013.033-.012.046,0,.065.06.125.045.185-.006.02-.016.048-.022.065-.003.017.02-.008.036-.022.049-.044.04-.108.055-.138.112-.003.005-.013.006-.015.007Z"/>
      <path class="d" d="m1.326,6.172c.01-.043.032-.087.071-.12.009-.007.019-.014.03-.005.01.008.005.02.001.031-.011.03-.014.06-.016.092-.004.064.004.12.068.155.014.008.037.023.025.043-.015.027-.036.003-.052-.003-.069-.025-.128-.113-.127-.193Z"/>
      <path class="d" d="m3.729,6.112c-.001.026.003.048-.019.056-.024.009-.032-.012-.041-.027-.039-.067-.072-.137-.116-.201-.012-.017-.019-.039,0-.056.018-.016.037-.005.05.008.064.064.11.137.125.221Z"/>
      <path class="d" d="m6.022,3.781c.137-.022.272-.023.408-.012.021.002.045.009.041.034-.004.026-.027.015-.045.013-.07-.006-.14-.012-.209.006-.072.019-.134-.01-.196-.042Z"/>
      <path class="d" d="m2.961,6.961c.056.055.09.108.081.182-.007.062.009.125-.011.187-.003.01-.004.024-.018.024-.011,0-.014-.011-.015-.02-.004-.116-.046-.227-.045-.344,0-.007.003-.013.007-.029Z"/>
      <path class="d" d="m6.087,5.984c-.018,0-.021,0-.025,0-.027-.003-.073.01-.074-.025,0-.032.045-.013.069-.018.045-.008.089-.015.124-.051.027-.028.061-.05.103-.033.029.012.038.034.007.052-.067.04-.134.087-.205.074Z"/>
      <path class="d" d="m4.573,2.301c.001-.065.053-.129.096-.129.011,0,.023-.002.029.011.004.01-.004.017-.01.024-.037.04-.043.087-.03.139.005.02.011.045-.014.053-.024.008-.034-.017-.043-.035-.012-.023-.027-.045-.028-.062Z"/>
      <path class="d" d="m3.485,2.255c-.003-.071.034-.111.072-.149.011-.011.026-.016.04-.007.014.009.008.023.003.035-.013.031-.021.063-.025.096-.003.023-.014.042-.03.057-.012.011-.021.029-.041.021-.019-.008-.018-.026-.018-.043,0-.007,0-.015,0-.01Z"/>
      <path class="d" d="m5.151,3.215c-.014-.002-.029-.003-.043-.007-.022-.007-.044-.02-.041-.045.002-.023.03-.02.045-.021.043-.004.088-.003.131-.002.014,0,.032.005.032.024,0,.016-.012.025-.029.028-.032.005-.061.026-.096.024Z"/>
      <path class="d" d="m5.769,5.977c.042-.038.084-.049.13-.047.013,0,.027.004.029.02.002.016-.012.023-.024.026-.042.013-.085.012-.135.001Z"/>
      <path class="d" d="m3.167,3.703c-.002.026.017.047-.007.059-.022.01-.032-.013-.044-.025-.035-.036-.062-.075-.064-.13-.001-.055-.031-.1-.065-.143-.022-.028-.067-.065-.035-.092.035-.031.057.024.081.048.048.047.076.108.11.164.021.035.017.085.023.12Z"/>
      <path class="d" d="m5.136,3.681c.017-.08.016-.178.102-.242.016-.012.029-.034.052-.017.019.015.016.038.007.056-.027.052-.038.112-.075.16-.017.023-.024.053-.036.08-.006.014,0,.038-.026.035-.021-.003-.022-.022-.023-.039,0-.007,0-.015,0-.033Z"/>
      <path class="d" d="m3.535,15.956c-.009.045-.016.09-.017.137-.003.168,0,.336-.013.503-.031.401-.023.803-.034,1.205-.015.563,0,1.126-.007,1.689-.002.172-.011.344-.006.514.009.36.005.72.006,1.08.002.652-.009,1.304.002,1.956.015.969.002,1.939.008,2.908.002.363.005.726-.003,1.089-.004.186-.003.373-.009.559-.006.178-.025.356-.05.532-.011.078-.012.158-.014.237-.005.216-.016.431-.06.642-.014.067-.009.136-.015.204-.019.188-.088.348-.234.471-.076.064-.188.06-.268.003-.084-.059-.124-.143-.163-.231-.011-.024-.022-.055.008-.068.027-.012.043.017.053.038.045.088.122.148.19.215.05.049.129.032.164-.028.008-.014.016-.03.02-.045.025-.098.05-.196.074-.294.023-.093.021-.193.042-.289.049-.224.033-.451.044-.677.012-.25.02-.5.033-.75.006-.107.008-.216.008-.324,0-.154.014-.309.021-.463.001-.022.003-.044.004-.066,0-.872.006-1.744-.003-2.615-.003-.304-.001-.609-.009-.913-.002-.083-.02-.165-.019-.247,0-.088.012-.176.01-.265-.007-.276-.018-.553-.015-.829.002-.19,0-.38.004-.57.005-.19-.013-.379-.011-.569,0-.084.016-.169.009-.253-.02-.225.019-.448.015-.673-.002-.12,0-.241.003-.361.003-.126-.012-.252.003-.379.007-.058-.008-.121-.008-.181,0-.288.001-.576,0-.864,0-.221.01-.441.023-.661.014-.258-.013-.516,0-.774.017-.306-.002-.613.013-.919.007-.14,0-.28.015-.419.007-.068-.014-.14-.006-.209.02-.172-.014-.341-.016-.512-.003-.296-.016-.595.01-.888.041-.464.027-.928.04-1.392.006-.212,0-.424.011-.636.005-.082-.017-.164-.008-.24.021-.186-.067-.358-.051-.542.004-.05-.038-.09-.045-.14-.012-.086-.009-.173-.019-.259-.017-.15-.032-.3-.042-.45-.015-.238-.06-.475-.035-.714.019-.174,0-.345-.012-.518-.003-.039,0-.077.008-.115.006-.031.014-.067-.027-.087-.04-.019-.067.001-.091.03-.044.054-.051.122-.065.186-.013.057-.023.114-.051.167-.031.058-.025.125-.027.189-.002.052-.004.103-.022.152-.005.014-.01.03-.028.029-.018,0-.023-.017-.026-.032-.019-.092-.029-.183-.018-.279.012-.109.011-.22.036-.329.038-.168.111-.233.284-.232.036,0,.072-.007.108.014.074.045.073.049.066.136-.009.108.007.217.016.325.013.157.032.312.01.473-.017.128-.006.26.023.389.004.016.004.033.004.049.004.236.004.474.05.704.04.197.027.401.089.594.005.015.005.033.005.049.018.393.009.786.012,1.179,0,.068.008.136.009.204.003.255-.012.509-.011.764.003.736,0,1.473,0,2.209,0,.103,0,.207,0,.31,0,.02-.006.041.01.058-.002.036-.003.072-.005.108Z"/>
      <path class="d" d="m4.798,26.906c-.007.052-.015.105-.023.164-.034-.035-.024-.077-.028-.113-.015-.122-.007-.245-.008-.367,0-.015-.001-.039.021-.038.026.001.02.026.021.043.001.044,0,.088.001.132,0,.018-.004.038.016.05,0,.043,0,.086,0,.129Z"/>
      <path class="d" d="m5.498,11.189c-.017.127-.011.255-.004.381.007.113.009.225.007.337-.004.211.011.42.015.631.002.087.002.177.027.263.012.044.015.091.014.137-.001.163,0,.325,0,.488,0,.085.008.171-.012.254-.033.141-.009.284-.022.424-.038.424-.011.848-.023,1.273-.005.191-.022.382-.039.573-.008.095.002.192.002.287,0,.101.017.202,0,.302-.004.024-.005.048-.005.072,0,.388.005.776-.002,1.164-.011.561-.011,1.122-.008,1.684.001.226.017.453.025.679.001.027-.004.055-.004.082-.002.445.015.889.012,1.334-.004.568.002,1.137-.002,1.705-.001.161-.026.322-.04.484-.002.018-.002.037-.002.055,0,.598-.006,1.197.004,1.795.003.163.018.327.018.491,0,.146-.006.292.003.437.007.127-.002.254,0,.38.007.295.004.59.009.886.005.316-.019.63-.028.945-.004.139-.025.283-.076.42-.029.077-.047.158-.077.236-.006.015-.01.035-.021.044-.079.068-.143.154-.235.206-.029.017-.06.029-.094.031-.019,0-.039,0-.043-.025-.003-.022.013-.035.031-.04.111-.031.179-.107.221-.211.005-.012.009-.025.018-.034.042-.043.052-.096.048-.153-.004-.047.002-.087.035-.128.028-.035.029-.085.031-.132.01-.266,0-.532.015-.797.015-.252.049-.505.024-.756-.025-.244-.015-.486-.014-.729,0-.141.001-.283.018-.425.011-.092-.01-.184-.014-.276-.004-.112-.015-.224-.014-.336,0-.033-.003-.066-.003-.099,0-.488-.001-.975,0-1.463,0-.105.011-.21.011-.315-.001-.533-.001-1.066.002-1.6,0-.096.013-.191.009-.287-.003-.073-.021-.147-.016-.22.009-.129.01-.259.003-.387-.017-.323-.005-.646-.008-.969-.003-.337.006-.675-.003-1.012-.01-.371-.015-.741-.006-1.112.007-.279.005-.557.008-.836.002-.291-.005-.582.002-.873.006-.268-.007-.536.014-.802.017-.225.011-.453.049-.677.003-.018.002-.037.002-.055,0-.368-.001-.735.002-1.103.002-.295.051-.589.029-.883-.016-.223-.009-.446-.022-.668-.011-.187-.008-.373-.007-.559,0-.181-.011-.361-.013-.542,0-.059-.036-.111-.037-.172,0-.029-.007-.058-.007-.088.003-.1-.002-.199-.029-.296-.006-.021-.004-.044-.004-.066-.007-.21.014-.42.01-.631-.003-.173-.031-.345-.021-.519,0-.005,0-.012-.002-.016-.055-.096-.029-.201-.031-.303-.002-.105-.026-.208-.025-.314,0-.046-.028-.088-.05-.128-.02-.038-.086-.034-.113.007-.047.072-.129.101-.187.159-.004.004-.014.007-.02.005-.012-.004-.007-.014-.005-.023.021-.099.071-.181.145-.248.039-.035.191-.029.233.007.082.071.127.159.133.27.008.156.003.316.037.467.036.156.039.31.04.466.001.227,0,.454,0,.682,0,.111.003.22.041.327.027.078.012.161.015.242,0,.02-.009.046.021.056,0,.018.002.036.003.054-.012.009-.009.017.003.022l.003.062Z"/>
      <path class="d" d="m5.639,15.883c.026-.01.018-.034.019-.053,0-.406,0-.812,0-1.218,0-.227-.007-.454.002-.68.006-.159,0-.321.046-.477.004-.012.005-.025.006-.038.013-.325.016-.65.01-.974-.003-.139,0-.279-.031-.416-.036-.161-.037-.324-.046-.488-.016-.286-.012-.572-.004-.858.004-.152.033-.307.014-.457-.026-.204-.021-.409-.024-.613-.003-.219-.016-.439-.003-.657.007-.122.025-.248.12-.341.036-.036.067-.084.131-.08.071.004.113.042.113.115,0,.043.004.085.02.125.024.061.02.122.008.184-.01.049-.017.098-.026.147-.003.019-.007.04-.032.037-.024-.003-.026-.024-.024-.043.015-.131-.037-.249-.068-.371-.005-.021-.016-.04-.039-.042-.024-.003-.035.018-.046.035-.028.04-.042.087-.045.135-.006.086-.022.171-.005.259.009.048.009.1-.004.148-.011.041.003.081.008.121.018.139.022.279.021.419,0,.164.022.328.017.491-.005.169.009.338-.002.507-.013.218-.007.439.002.658.007.164.026.327.043.489.025.236.019.471.031.706.006.112.003.224.015.336.008.073-.012.15-.02.225-.01.099-.018.198-.032.296-.029.209-.027.42-.02.629.007.218.015.435.007.653-.008.218.021.433.022.65,0,.147-.019.293-.027.44-.002.036.008.073.007.11-.009.23-.004.461-.013.691-.007.172-.007.343-.008.514-.002.481.005.963-.002,1.444-.006.396-.022.793-.022,1.189,0,.114-.013.227-.009.341.003.072.015.143.011.215-.011.167-.022.334-.031.501-.003.062-.01.126.006.187.01.042-.01.08-.008.121.004.086.014.173.01.259-.016.29-.007.579-.01.869-.001.116.011.232.013.348.003.128-.03.253-.023.38.014.267.031.534.02.801-.008.199-.014.398-.009.597.006.228.026.456.031.684.006.27-.003.539.003.809.006.291.022.582.024.873.001.213.015.427.021.641.003.117.024.234.038.351.001.011.006.022.004.033-.024.194.024.38.062.567.012.059-.005.119.002.18.021.185.045.371.089.549.032.13.062.265.11.392.005.014.011.028.021.038.013.015.025.036.049.03.023-.005.028-.025.034-.046.007-.025.01-.07.04-.062.029.008.012.05.009.078-.008.081-.055.128-.128.156-.021.008-.035.005-.048-.012-.042-.052-.082-.106-.103-.169-.024-.073-.048-.146-.067-.221-.041-.164-.083-.328-.116-.494-.019-.093-.016-.191-.041-.284-.053-.199-.033-.407-.069-.607-.044-.248-.035-.498-.046-.748-.006-.135-.004-.269-.008-.404-.011-.361-.04-.721-.037-1.083,0-.114-.008-.228-.006-.343.004-.223-.008-.447-.017-.669-.005-.128.008-.254.006-.381-.002-.133-.01-.265-.011-.398-.002-.393,0-.786,0-1.179,0-.081.015-.162.01-.243-.012-.203.007-.405,0-.608-.005-.151.007-.302-.001-.452-.007-.133-.011-.266-.008-.398.005-.24.021-.479.024-.718.001-.09.006-.18.007-.271.004-.284.024-.568.01-.852-.01-.209,0-.417.006-.624.007-.225.012-.451.004-.675-.007-.174.008-.346.004-.519-.003-.166-.001-.331,0-.497.002-.302.034-.604.022-.907,0-.022.006-.045-.009-.064,0-.007,0-.014,0-.021Z"/>
      <path class="d" d="m3.607,9.673c.02-.137-.005-.294.025-.446.024-.122.08-.237.106-.359.027-.126.138-.195.181-.308.007-.02.026-.035.049-.024.029.013.008.036.003.052-.014.05-.038.094-.065.139-.049.081-.063.176-.087.267-.026.099-.063.196-.072.3,0,.004-.002.007-.003.01-.086.151-.069.317-.07.48,0,.013,0,.026,0,.039,0,.018-.005.035-.026.036-.02.001-.031-.016-.032-.032-.004-.046-.005-.092-.008-.155Z"/>
      <path class="d" d="m6.378,28.529c0,.067.001.119,0,.17,0,.026-.008.054-.039.059-.029.005-.043-.017-.053-.039-.037-.079-.031-.161-.016-.243.014-.078.036-.154.032-.234,0-.011.004-.022.007-.032.005-.018.01-.038.035-.034.024.004.025.025.024.044-.005.109.022.216.011.309Z"/>
      <path class="d" d="m4.757,28.815c.033.043.029.087.035.126.012.082.023.164.042.245.015.06.017.12.014.181,0,.015.006.038-.016.041-.02.002-.017-.02-.021-.033-.04-.112-.048-.23-.064-.347-.01-.069-.011-.137.01-.213Z"/>
      <path class="d" d="m2.91,9.501c-.002.025.001.066-.033.068-.04.002-.035-.039-.034-.068,0-.025-.012-.064.028-.065.035-.001.039.032.039.065Z"/>
      <path class="d" d="m4.749,10.353c-.004-.094.008-.188-.009-.282-.003-.018-.001-.037,0-.055.001-.014.003-.033.022-.034.02,0,.019.019.02.033,0,.024,0,.048,0,.072-.002.163.011.323.05.482.023.092.034.188.028.285-.001.018.003.042-.022.043-.022,0-.019-.023-.021-.039-.009-.075-.032-.147-.053-.219-.027-.093-.007-.191-.014-.286Z"/>
      <path class="d" d="m4.705,5.012c.017.083-.044.157-.056.242-.001.009-.007.019-.017.017-.015-.002-.013-.014-.012-.026.007-.102.012-.205.039-.304.005-.018.004-.041.029-.038.022.003.016.025.017.041.001.02,0,.04,0,.069Z"/>
    </g>
  </g>
</svg>