<?xml version="1.0" encoding="UTF-8"?>
<svg id="b" data-name="Layer 2" xmlns="http://www.w3.org/2000/svg" width="310.602" height="186.196" viewBox="0 0 310.602 186.196">
  <defs>
    <style>
      .d {
        fill: #201313;
      }

      .e {
        fill: #1e1111;
      }
    </style>
  </defs>
  <g id="c" data-name="Layer 1">
    <g>
      <path class="e" d="m268.539,17.142c-.083,1.545,1.406,1.146,2.118,1.544,3.568,1.992,7.611,3.311,10.804,5.757,4.362,3.342,8.213,7.349,11.869,11.548,3.836,4.404,6.944,9.286,9.961,14.182,1.978,3.211,3.166,7.077,3.925,10.809.504,2.476,1.941,4.46,2.41,6.904,1.245,6.494,1.582,12.98-.709,19.224-1.345,3.667-2.383,7.409-5.175,10.674-3.482,4.072-6.454,8.662-10.082,12.649-4.137,4.547-8.337,9.043-14.617,10.951-2.612.794-4.805,2.87-7.327,4.071-5.085,2.422-10.404,4.301-16.083,4.462-3.517.1-6.939,1.259-10.514.652-2.929-.497-3.423-.065-3.143,3.015.761,8.366.025,16.746.29,25.078.265,8.308-.528,16.648.521,24.942.094.744-.303,1.941-1.712,2.031-1.477.094-1.203-.852-1.358-1.723-.669-3.76-.705-7.556-.87-11.356-.185-4.273.509-8.698-.066-12.73-.633-4.434-.942-8.913-.937-13.262.006-5.118.14-10.28.281-15.42.044-1.613-3.297-4.595-4.845-4.395-.839.108-.682.785-.553,1.237.752,2.639.07,5.272.124,7.876.085,4.131.101,8.305.512,12.428.283,2.834-.529,5.531-.545,8.349-.037,6.642.121,13.32-.677,19.951-.117.976-.157,1.926-1.387,1.884-1.363-.047-.602-1.211-.807-1.864-1.403-4.462-.661-9.162-.769-13.648-.115-4.779-.164-9.741.384-14.645.381-3.41.186-7.123-.198-10.666-.357-3.291-.051-6.553.109-9.813.115-2.363-.672-3.913-2.938-4.302-.882-.151-.781-1.195-1.635-1.109-.738.399-.174,1.136-.391,1.67-.337.829-.154,2.233-1.558,2.012-.949-.149-1.298-1.26-1.153-2.097.547-3.163-1.161-5.082-3.209-7.164-3.199-3.252-6.411-6.572-8.653-10.607-.615-1.106-1.721-1.22-2.401-1.206-3.655.071-7.262.637-10.966.66-3.458.021-6.995.204-10.493.273-5.895.117-11.794.127-17.689.045-2.865-.04-5.691-.678-8.591-.601-4.834.128-9.721-.373-14.497.171-4.283.488-8.573.254-12.859.788-3.684.459-7.552-.034-11.262-.604-1.249-.192-2.148.385-3.285.309-4.938-.329-9.893-.468-14.843-.537-1.295-.018-2.291.885-2.903,2.075-1.813,3.527-5.113,5.78-7.508,8.788-1.855,2.329-4.531,4.407-3.938,8.01.088.538-.02,1.058-.466,1.485-.29.277.303,1.171-.573,1.032-.549-.087-1.026-.304-1.183-1.163-.47-2.586-.565-2.569-1.024-2.559-1.264.027-4.471,2.647-4.364,3.727.711,7.134-.144,14.263-.004,21.391.096,4.875.774,9.78.408,14.612-.386,5.101.053,10.255-.957,15.313-.098.489-.253.969-.649,1.088-.657.196-.778-.441-1.023-.895-.345-.641-.518-1.272-.534-2.019-.151-7.135-.121-14.285-.617-21.398-.278-3.981-.726-7.982-.343-11.914.51-5.243.124-10.458.417-15.934-1.475.582-2.719,1.141-4.007,1.563-1.143.374-1.838,1.204-1.361,2.204.929,1.949.378,4.167.187,5.822-.433,3.758.635,7.364.246,11.005-.455,4.264-.665,8.583-.821,12.818-.223,6.05-.586,12.151-.231,18.229.126,2.154-.831,4.175-.649,6.356.063.755-.861,1.017-1.647,1.02-1.024.005-1.475-.55-1.484-1.499-.023-2.538-.281-5.11.037-7.607.475-3.73-.19-7.424.103-11.151.347-4.408.264-8.856.223-13.286-.021-2.302.469-4.619-.344-6.926-.522-1.481.533-2.918.565-4.47.065-3.073-.555-6.15.238-9.247.326-1.272-.961-1.689-2.121-1.467-6.47,1.237-12.717-.076-19.024-1.371-3.667-.753-7.163-1.958-10.199-3.92-3.891-2.516-8.532-3.464-12.214-6.162-2.828-2.072-5.646-4.449-7.655-7.269-2.186-3.069-5.268-5.347-7.135-8.57-2.308-3.984-6.491-6.873-7.551-11.442-1.154-4.976-3.604-9.657-2.781-15.193.408-2.748-.229-5.939.949-8.452,2.087-4.451,2.769-9.301,5.005-13.784,3.004-6.022,6.384-11.477,10.632-16.726,3.484-4.305,7.465-7.983,11.314-11.831,2.616-2.615,6.444-3.496,9.606-5.388,1.465-.877,2.801-2.045,4.471-2.328-1.753-2.318-5.368-2.533-6.13-5.905-.972-4.299.643-7.578,5.723-8.234,5.174-.669,10.33-1.472,15.524-2.023,1.929-.205,3.785.211,5.725.106,7.483-.406,14.978-.754,22.487-.827,5.68-.055,11.384-.73,17.057-.35,4.939.331,9.834-.178,14.752-.15,4.944.028,9.819.085,14.719,1.033,2.654.514,5.341-1.035,8.155-1.024,5.42.02,10.799.95,16.227.595,2.947-.193,6.019-.953,8.812-.378,3.395.699,6.662-.169,10.007.094,3.09.242,6.429.063,9.618-.344,5.841-.745,11.661-.286,17.501-.235,2.529.022,5.113.438,7.756-.047,2.983-.548,6.201-.546,9.206-.077,4.701.734,9.377.278,14.059.425,5.94.186,11.83,1.449,17.778,1.065,6.973-.45,13.681,1.1,20.443,2.276,1.407.245,2.493,1.49,2.957,2.67,1.611,4.103-.05,7.327-4.219,8.751-.003-.556-.007-1.111-.01-1.667.371-.794.813-1.562,1.1-2.385,1.039-2.973-.566-4.899-3.619-4.392.29.637.984,1.668.807,1.85-1.412,1.448.589,4.54-2.469,5.186-.039.008-.827,1.254-.181,2.006.37,1.626,1.693.797,2.611,1.013ZM116.45,97.312c-2.727.791-5.443.508-8.162-.065-1.053-.222-2.919-.569-3.046-.05-.435,1.769-1.666,3.176-2.044,4.572,34.759-1.286,69.455-.231,104.122-.643-.051-1.3-1.522-2.325-1.774-3.742-.25-1.404-1.08-1.4-1.883-1.143-5.299,1.698-10.817,1.427-16.214,1.473-6.501.056-13.009.368-19.552-.31-6.019-.624-12.158.004-18.239-.146-10.053-.249-20.072.965-30.124.566-.271-.011-.543.033-.815.051-.591-.855-1.478-.517-2.27-.561Zm144.833-7.977c.259-1.059.49-1.71.571-2.38.483-4.01.414-7.846-2.051-11.423-1.844-2.676-4.545-4.188-6.995-6.031-3.042-2.29-6.601-3.656-10.328-4.314-2.443-.432-5.459-.213-6.932,1.576-3.406,4.136-7.986,7.399-9.724,12.895-.898,2.84-1.952,5.855-.661,8.398,2.741,5.398,5.45,10.808,10.441,14.857,6.904,5.6,14.281,7.641,22.855,5.278,3.834-1.057,6.736-3.611,9.943-5.789,4.756-3.229,7.111-8.153,10.09-12.627,1.217-1.827,1.41-4.306,2.268-6.407,2.673-6.542,1.727-12.897-2.018-18.464-2.654-3.944-6.243-7.318-10.177-10.254-3.06-2.283-6.103-4.221-9.76-5.556-2.887-1.054-5.731-.273-8.448-1.059-4.959-1.435-9.66.337-14.138,1.616-4.054,1.158-7.705,3.918-11.354,6.253-3.959,2.533-8.003,5.101-9.558,9.999-.874,2.753-2.033,5.395-2.779,8.212-1.378,5.204-1.152,10.408-.812,15.679.351,5.448,2.395,10.23,5.055,14.88,2.667,4.661,6.084,8.616,10.466,11.683,4.96,3.473,10.879,4.683,16.521,6.406,1.607.491,4.288,1.846,4.434,1.635,1.624-2.346,4.005-.387,6.017-1.14,3.213-1.202,6.994-1.77,10.655-2.031,3.399-.242,6.751-1.082,9.898-2.506,4.7-2.127,8.094-6.128,12.478-8.73,1.564-.928,3.24-2.036,4.234-3.492,5.4-7.907,10.781-15.875,12.419-25.605.655-3.892,1.033-7.785.818-11.789-.532-9.909-6.877-16.809-11.943-24.445-2.153-3.244-5.128-5.643-7.629-8.514-2.684-3.082-5.609-6.515-9.308-7.901-4.432-1.662-7.925-5.31-12.837-5.778-.306-.029-.82-.658-.792-.967.225-2.485-1.851-2.567-3.206-2.645-5.948-.342-11.743-1.904-17.767-1.803-5.171.087-10.376-.62-15.508-1.177-5.836-.633-11.659-.169-17.496-.784-6.504-.685-13.139-.551-19.7-.562-11.838-.021-23.672-.56-35.517-.165-8.491.283-16.992.16-25.493.469-5.951.216-11.914.611-17.92.229-7.189-.457-14.422.264-21.633.346-6.109.07-12.132,1.092-18.213,1.147-6.458.059-12.73,1.124-18.958,2.694-1.389.35-2.823.294-1.967,2.467.361.916-.628.824-1.236.871-2.755.212-5.541,1.771-7.095,3.211-2.345,2.173-5.609,1.903-7.695,4.37-1.821,2.154-4.888,3.235-6.553,5.636-1.629,2.348-3.882,4.02-5.71,6.128-.319.368-.791.418-1.133.949-1.739,2.71-3.651,5.311-5.551,7.916-2.698,3.698-5.128,7.514-6.423,11.98-1.305,4.5-1.953,9.076-1.549,13.724.246,2.831.087,6.12,1.284,8.377,2.717,5.121,4.37,10.709,7.704,15.607,2.873,4.22,5.365,8.589,9.936,11.112,2.534,1.399,4.497,3.493,6.834,5.121,2.94,2.047,6.054,3.825,9.331,4.375,3.816.64,7.544,2.076,11.529,1.85,1.387-.079,2.842.234,4.199.608,2.506.69,4.759,1.388,7.543.272,3.806-1.525,7.972-2.035,11.877-3.529,2.914-1.115,5.663-2.446,8.146-4.19,4.807-3.377,7.896-8.118,10.822-13.237,3.432-6.005,3.889-12.222,4.055-18.767.109-4.288-.73-8.427-1.824-12.41-1.333-4.854-3.098-9.763-7.881-12.654-2.603-1.573-5.078-3.36-7.679-4.938-5.895-3.577-12.237-5.793-19.2-5.879-2.234-.027-4.403.787-6.684.564-2.949-.289-5.602.876-7.957,2.394-5.389,3.474-10.574,7.179-14.371,12.571-3.149,4.472-5.762,8.894-4.861,14.724.818,5.297,2.069,10.474,5.209,14.8,2.421,3.337,4.254,7.284,7.945,9.571,2.769,1.716,5.264,3.816,8.178,5.348,5.448,2.863,11.024,1.585,16.272.133,4.262-1.179,8.071-3.791,11.149-7.388,3.36-3.926,6.187-8.055,8.248-12.8.701-1.615-.493-2.707-.272-4.12.433-2.77-.405-5.216-2.284-7.338-2.202-2.487-4.533-4.896-6.437-7.6-2.216-3.146-5.307-3.785-8.611-3.333-3.941.539-7.437,2.295-10.773,4.621-4.601,3.207-8.571,6.467-8.777,12.735-.082,2.515-.155,4.617,1.39,6.901.886-4.19,2.412-7.748,5.659-10.885,2.451-2.368,4.735-4.578,7.986-5.434,1.868-.491,4.08-1.966,5.78-.325,1.569,1.515,3.293,2.937,4.46,4.949,5.676,9.786,1.263,17.916-5.592,21.529-1.463.771-3.009,1.457-4.288,2.459-.94.737-1.794,1.031-2.917.994-5.352-.176-9.25-2.817-12.089-7.171-.66-1.012-.936-2.265-1.529-3.33-2.27-4.073-2.543-8.518-1.98-12.932.535-4.198,3.606-6.944,6.403-9.954,4.694-5.052,9.691-8.38,17.012-7.61,5.49.577,10.264,2.956,13.73,6.583,3.814,3.992,6.273,8.997,7.056,15.094,1.373,10.691-3.953,17.498-11.25,23.619-3.254,2.73-7.322,4.063-11.235,5.593-4.422,1.73-8.868,2.124-13.487.623-4.622-1.503-8.862-3.703-12.866-6.398-3.295-2.218-7.018-3.87-9.347-7.358-1.889-2.829-2.221-6.217-3.536-9.213-2.165-4.93-2.947-10.185-3.32-15.356-.325-4.504,1.863-8.794,4.129-12.771.479-.842,1.103-1.601,1.661-2.397,1.999-2.854,3.432-6.316,7.659-6.687.751-.066,1.529-.806,1.603-1.65.086-.982.806-1.222,1.343-1.789,2.478-2.614,6.045-3.11,9.064-4.516,3.642-1.696,8.004-1.23,12.006-1.919,3.355-.578,6.462.126,9.667.629,4.131.648,8.337.939,12.403,1.859,11.91,2.695,22.866,8.221,34.453,11.883,3.422,1.082,6.647,2.647,10.265,3.319,3.544.658,7.027,1.636,10.64,2.094,3.998.508,8.097,1.378,11.99.855,4.387-.589,8.741.122,13.156-.747,5.328-1.049,10.904-.92,16.143-2.62,1.208-.392,2.395-.097,3.632-.679,6.46-3.037,13.468-4.576,20.034-7.523,5.74-2.576,11.897-4.509,18.166-6.014,5.841-1.402,11.79-2.043,17.617-3.416,1.943-.458,4.076-1.17,6.112-.572,5.475,1.608,11.35.943,16.732,3.594,2.951,1.454,6.162,2.136,8.121,5.112.485.737,1.22,1.735,1.935,1.821,2.617.314,4.181,1.866,5.451,3.912,2.264,3.647,4.771,7.054,6.245,11.275.93,2.664,1.42,5.22,1.166,7.747-.538,5.367-1.579,10.687-3.628,15.75-1.245,3.077-1.816,6.698-4.228,8.94-3.827,3.557-8.395,6.267-12.987,8.802-7.172,3.958-14.637,6.206-22.698,2.736-6.02-2.591-11.765-5.707-15.941-10.939-5.454-6.832-7.576-14.652-4.489-22.956,1.94-5.218,4.426-10.142,9.988-13.352,7.965-4.597,15.919-4.887,23.117.677.999.772,1.865,1.664,2.773,2.493,2.531,2.314,5.054,4.67,6.432,7.954,2.49,5.936.995,11.572-1.407,17.048-1.863,4.247-5.159,7.161-9.547,8.752-6.042,2.19-9.803-2.346-14.059-5.038-2.429-1.536-3.56-4.307-4.498-7.112-1.891-5.654,1.197-9.999,3.635-14.428.739-1.342,1.94-3.236,3.963-3.16,7.416.28,12.332,4.636,16.372,10.338,1.295,1.827,1.033,4.24,2.518,6.55ZM47.461,7.06c-.987-.151-1.994-.477-2.952.016-1.014.522-2.151.089-3.201.285-1.997.372-2.83,2.722-1.72,4.68,1.511,2.667,5.942,4.702,8.822,3.978,4.067-1.021,8.143-1.961,12.256-2.809,7.306-1.507,14.733-.978,22.063-1.972,4.653-.631,9.437-.508,14.165-.113.801.067,1.653.077,2.423-.117,4.23-1.066,8.586-.463,12.852-.708,3.309-.189,6.819-.267,10.246.232,3.466.504,6.771-1.687,10.336-1.031,2.291.421,4.659,1.071,6.919.365,1.647-.514,3.376-.673,4.786-.247,2.692.811,5.109.05,7.609-.445.731-.145,1.355-.01,2.056.064,4.014.424,8.019,1.118,12.084.786,1.783-.146,3.638-.686,5.335-.37,4.896.909,9.845.421,14.759.795,7.466.568,15.008.106,22.517.184,3.038.031,6.099.65,9.104.414,2.781-.218,5.579.009,8.338-.438,3.643-.591,7.02,1.43,10.628,1.084,6.87-.66,13.417,1.131,20.001,2.611,3.877.872,6.142.166,7.644-2.553.835-1.513-.014-3.482-1.478-3.514-3.722-.079-7.385-.633-10.98-1.582-.833-.22-1.493-.956-2.455-.913-3.857.173-7.712.402-11.571.473-4.051.074-8.09-.058-12.141-.442-3.107-.294-6.269.166-9.392-.532-1.501-.335-3.097-.453-4.635-.377-3.567.174-7.153.935-10.682.706-4.999-.325-10.001-1.271-14.997-.888-4.699.36-9.383.027-14.089.3-9.6.558-19.255.122-28.887.165-9.689.043-19.376.006-29.049-.566-2.377-.141-4.638,1.016-6.957.539-6.563-1.35-13.096.063-19.641.055-2.873-.003-5.736.299-8.623.341-10.506.152-21.041-.039-31.494,1.546Zm17.421,71.146c-1.175-.325-2.558.009-3.484.659-3.638,2.552-7.028,5.63-7.707,10.205-.717,4.837,1.684,8.884,6.693,8.141,3.14-.466,6.329-1.104,8.226-4.478,1.375-2.446,2.399-4.958,2.598-7.632.328-4.405-1.394-7.135-6.326-6.895Zm174.395,6.431c-.39,1.499.965,3.077,1.489,4.885,1.519,5.243,6.105,7.292,10.251,7.112,2.184-.095,4.942-.789,5.573-3.288.397-1.57.597-3.471.122-5.284-.911-3.475-3.115-5.701-5.749-8.11-3.076-2.815-6.018-2.757-9.199-1.601-2.471.898-2.074,3.562-2.487,6.286Zm-95.538-7.766c-.546-.906,1.118-2.743-.973-2.992-4.076-.486-8.181-.722-12.262-1.167-1.787-.195-2.255.555-1.97,2.135.539,2.987,1.104,5.97,1.609,8.964.548,3.251,2.675,5.136,6.324,5.241,2.855.082,6.341-2.084,6.684-4.796.307-2.429,1.515-4.819.588-7.384Zm22.961,1.948c-.705,2.062.525,4.073,1.228,5.993.779,2.128,2.944,3.53,5.227,3.684,2.805.189,5.999-.99,6.945-3.325,1.269-3.132,1.84-6.735,1.89-10.286.019-1.369-.459-1.674-1.707-1.615-3.04.142-6.069.114-9.119.498-4.035.508-4.067.271-4.461,4.025-.028.269-.004.543-.004,1.027Zm-12.191-5.511c-2.722-.765-3.889.546-4.313,3.685-.242,1.793-.333,3.578-.3,5.327.053,2.799.818,5.47,3.31,7.221,1.311.922,2.412,1.011,3.89-.184,3.412-2.757,3.982-6.334,3.585-10.274-.464-4.597.261-5.909-6.173-5.775Zm-38.272-.563c-1.18,0-2.383.146-3.535-.032-2.082-.322-2.883.544-2.582,2.501.656,4.267.876,8.635,4.848,11.655,1.854,1.41,3.778,1.138,4.519-.199,1.602-2.888,3.77-5.619,3.643-9.332-.155-4.543.023-4.55-4.713-4.585-.726-.005-1.453,0-2.179-.008Zm78.23.545c0-.006,0-.012,0-.018-1.722,0-3.444.019-5.165-.008-.827-.013-1.214.16-1.379,1.148-.772,4.633,1.197,8.416,3.666,11.99,1.142,1.653,3.118,1.318,4.793.222,4.021-2.631,3.422-6.941,4.22-10.722.458-2.168-.674-3.018-2.878-2.643-1.057.18-2.17.031-3.257.031Zm-3.895-10.273c.398.436.57.797.755.803,6.276.2,12.553.39,18.831.478.355.005.945-.426,1.391-.971,2.795-3.418,4.629-7.527,7.882-10.683-10.364,1.538-18.422,8.973-28.859,10.373Zm-99.796-10.113c.639.695.907.994,1.184,1.286,2.805,2.956,4.634,6.638,7.248,9.734.405.479.488,1.591,1.473,1.166,1.505-.649,3.005.32,4.376-.004,4.291-1.016,8.611-.207,12.901-.521.615-.045,1.463.424,1.906-.818-10.271-1.679-18.374-9.084-29.088-10.842Z"/>
      <path class="e" d="m146.464,177.445c-1.021-2.276-.055-4.637-.225-6.971-.308-4.225.314-8.463-.138-12.763-.487-4.635-.251-9.381.095-14.047.104-1.4-.24-2.738.031-4.224.863-4.731-.636-9.535-.219-14.323.306-3.504,1.352-6.793,3.001-9.95,1.334-2.554,7.203-2.573,10.016-1.267,4.038,1.876,4.574,5.964,5.333,9.505.883,4.124.474,8.385-.325,12.66-.34,1.818-.135,4.285.232,6.195.791,4.126.227,8.148.204,12.196-.028,4.865-.059,9.739-.278,14.61-.115,2.55-.297,5.398.418,8.01.236.862-.119,1.3-.461,1.876-.369-1.275-2.774-.729-2.393-2.675-2.138-2.35-.848-5.213-.994-7.797-.296-5.216-.54-10.52.094-15.677.506-4.115-.557-8.222.629-12.396.376-1.324-.741-3.818-.731-5.856.008-1.541-.191-3.097-.034-4.62.342-3.328-.888-6.347-1.853-9.366-.381-1.191-1.098-3.035-3.204-2.568-2.005.444-3.225,1.289-4.003,3.582-1.777,5.244-1.309,10.638-2.056,15.918-.477,3.37.514,6.485.209,9.729-.309,3.283.398,6.575.38,9.813-.037,6.793.285,13.644-1.062,20.383-.889.007-1.778.013-2.667.02Z"/>
      <path class="d" d="m184.265,174.684c-.268-2.973-.543-5.199-.654-7.433-.261-5.258-.499-10.518-.636-15.78-.083-3.177.248-6.374.022-9.536-.407-5.697-.072-11.518-2.157-16.988-.84-2.204-.975-4.789-3.338-6.267-1.478-.925-3.552-.401-3.65,1.268-.4,6.837-1.706,13.658-1.08,20.509.861,9.43.227,18.877.61,28.31.07,1.717-.467,3.647-.421,5.462.031,1.219-.538,1.997-1.376,1.991-.935-.007-2.106-.666-1.901-1.943.085-.534-.304-.782-.239-1.153.893-5.047-.501-10.088-.025-15.131.523-5.546-.468-11.064-.307-16.596.18-6.196.305-12.415,1.011-18.56.2-1.739.013-3.696.925-5.436,1.411-2.692,4.546-3.728,7.473-2.157,1.856.996,3.435,2.484,4.184,4.423,1.787,4.627,2.836,9.406,3.312,14.409.475,4.992.441,9.991.327,14.93-.127,5.524.883,10.974.483,16.473-.065.891.461,2.003-1.01,2.39-.467.123-.889.786-.364,1.32,2.023,2.055.173,3.311-1.19,5.494Z"/>
      <path class="d" d="m124.185,139.784c.469-6.228.855-13.581,4.295-20.33,1.92-3.767,4.669-4.832,8.573-3.73,2.482.701,2.911,2.773,3.021,4.481.292,4.54,1.062,9.03.896,13.653-.101,2.819.506,5.785.432,8.714-.094,3.693-.414,7.404-.162,11.074.282,4.109-.221,8.185-.129,12.286.064,2.882-.226,5.809-.1,8.734.05,1.156-1.004,2.012-2.017,2.118-1.208.127-1.148-1.04-1.226-1.962-.56-6.644-.447-13.271-.149-19.937.376-8.432.315-16.901-.012-25.336-.1-2.582-.134-5.288-.828-7.893-.33-1.238-.401-2.591-1.708-3.043-1.642-.568-2.429.89-3.219,1.925-2.365,3.097-2.716,6.969-3.2,10.553-.662,4.909-.945,9.881-.868,14.931.137,8.971-.889,17.968-.917,26.975-.002.573-.05,1.218-.587,1.389-.726.231-1.254-.52-1.377-.988-.33-1.246-1.557-2.642.255-3.797.211-.134.836-.338.146-.918-2.015-1.693-1.489-3.849-1.382-6.198.177-3.902.644-7.812.32-11.758-.268-3.258-.055-6.555-.055-10.944Z"/>
      <path class="d" d="m207.092,127.121c-.438,3.205-.471,6.282-.063,9.36.103.772-.155,1.265-1.019,1.134-.605-.092-1.543.57-1.692-.673-.394-3.3-1.669-6.503-.491-9.954.657-1.926-.035-4.073.766-6.161.769-2.004,1.55-3.396,3.878-3.359,2.302.037,3.713,1.072,4.629,3.272,1.754,4.214,1.709,8.649,2.166,13.054.603,5.818.592,11.676,1.053,17.456.435,5.454-1.044,10.911.455,16.311.344,1.238-.267,2.737-.512,4.03-.441,2.326-.499,4.614-.51,6.935-.004.83.017,1.959-.891,1.999-.971.042-1.026-1.146-1.279-1.971-1.14-3.73.146-7.566-.543-11.312-.224-1.216-.96-2.918-.433-3.582,1.503-1.896.089-3.593.255-5.332.205-2.149.005-4.203-.278-6.343-.457-3.46.629-7.045-.6-10.498,2.359-1.328.032-2.718-.129-3.941-.589-4.478-.082-9.085-1.528-13.456-.138-.417-.189-.867-.354-1.27-.314-.764-.113-2.077-1.332-1.993-.944.065-.861,1.409-.926,1.958-.177,1.497-1.459,2.847-.624,4.336Z"/>
      <path class="d" d="m96.322,181.96c-2.59-3.544-1.657-7.414-1.985-10.936-.552-5.93-.282-11.943-.228-17.92.056-6.209.306-12.402,1.627-18.518.467-2.161-.211-4.413.04-6.657.264-2.354,1.078-4.534,1.728-6.752.825-2.814,4.553-4.169,6.926-2.606,1.638,1.079,2.028,3.17,2.158,4.801.258,3.214.92,6.407.717,9.68-.097,1.571-.715,2.897-1.082,4.34-.255,1.002-.851.735-1.412.764-1.034.053-.83-.748-.817-1.331.106-4.634-.05-9.241-1.036-13.8-.164-.76-.269-1.579-1.038-1.668-.897-.104-.962.956-1.157,1.524-.899,2.615-.961,5.418-1.956,8.083-.366.979.148,3.078.249,4.666.046.718.136,1.512-.103,2.156-1.476,3.976-1.112,7.997-.541,12.059.104.737-.127,1.611-.455,2.302-.911,1.921-.322,3.784.002,5.673.03.176-.075.406.005.537,1.032,1.7-1.927,2.951-.469,4.761,1.474,1.831-.447,3.708-.122,5.651.315,1.878-.093,3.87.153,5.768.322,2.485-.462,4.682-1.205,7.422Z"/>
      <path class="d" d="m199.723,130.972c1.278,4.286.775,8.834,1.027,13.279.202,3.568.256,7.342-.052,11.045-.195,2.342-.196,4.91.024,7.375.141,1.587.022,3.206-.082,4.804-.191,2.931-.453,5.857-.694,8.785-.034.412.137.956-.516,1.058-.678.105-.904-.236-1.04-.89-.693-3.318-.774-6.633-.836-10.031-.074-4.03-.254-8.09-.31-12.136-.094-6.718-.614-13.426-.774-20.119-.092-3.838-1.077-7.396-1.382-11.105-.137-1.665-1.466-2.333-2.317-3.358-.971-1.17-1.977-.261-1.853.739.175,1.413-.426,2.677-.272,4.06.164,1.473-1.059,2.482-2.19,2.593-.755.074-1.007-1.383-1.049-2.388-.084-2.009-.964-3.905.129-6.035,1.633-3.184,6.423-4.112,8.691-1.295,1.612,2.003,2.864,4.254,2.693,7.01-.138,2.232,1.837,4.144.807,6.609Z"/>
      <path class="d" d="m114.347,133.021c-.483,7.983-1.07,16.386-1.095,24.813-.015,5.167.042,10.334-.06,15.499-.032,1.619.008,4.36-1.601,4.295-2.153-.087-.822-2.67-.985-4.106-.664-5.878-.311-11.808-.537-17.688-.175-4.53.615-8.958.378-13.39-.226-4.214-.144-8.441.462-12.503.634-4.254.178-9.151,4.184-12.384,2.067-1.668,6.097-1.896,7.025-.078.973,1.908,2.018,4.006,1.32,6.302-.154.507-.48.97-.301,1.498.419,1.232-.123,2.396-1.164,2.375-1.043-.022-2.033-1.109-2.153-2.374-.12-1.26.041-2.544-.051-3.809-.044-.61.557-1.616-.563-1.77-.871-.12-1.563.368-2.152,1.141-2.17,2.854-2.427,6.212-2.697,9.577-.058.721-.008,1.45-.008,2.6Z"/>
      <path class="d" d="m85.97,171.571c-.119-5.98-.83-12.041-.312-17.917.611-6.921-.392-13.859.804-20.722.198-1.135.455-1.886,1.786-1.846,1.381.042,1.573.885,1.561,1.999-.036,3.336-.594,6.779-.152,9.977.654,4.736-.22,9.361-.079,14.04.202,6.7.621,13.53-.861,20.203-.297,1.338.927,3.776-1.232,3.744-1.691-.025-.594-2.459-1.011-3.746-.608-1.879-.451-3.812-.505-5.732Z"/>
      <path class="d" d="m224.603,136.424c-.592,9.084,1.055,18.587.288,28.065-.403,4.991.175,10.04-.95,14.975-.108.474.196,1.11-.615,1.259-.893.163-1.144-.547-1.227-1.085-.328-2.103-.69-4.221-.741-6.341-.053-2.19-.115-4.329-.612-6.494-.57-2.481.746-4.923.493-7.47-.488-4.925-.469-9.923-.246-14.811.18-3.943-.56-7.782-.309-11.678.067-1.033-.107-2.072,1.241-2.293,1.589-.261,2.14.801,2.342,2.09.174,1.104.205,2.23.336,3.782Z"/>
      <path class="d" d="m188.592,171.963c-.503-2.901-.285-5.949-.33-8.799-.046-2.859-.516-5.908.21-8.822.701-2.813-.55-5.526-.461-8.321.087-2.717-.075-5.441-.012-8.159.02-.874.445-2.14,1.272-2.131,1.167.013.683,1.34.876,2.137,1.127,4.653,1.252,9.446,2.035,14.144.392,2.355-.212,4.67.038,7.04.382,3.626.379,7.297.444,10.95.045,2.524.291,5.113-1.167,7.407-.299.471-.32,1.292-1.248,1.086-.87-.193-1.112-1.099-1.119-1.59-.023-1.664-.223-3.304-.538-4.943Z"/>
      <path class="d" d="m123.204,141.759c-1.082,3.194-.66,6.586-1.066,9.909-.424,3.47.271,7.061.168,10.591-.149,5.133-.578,10.258-.875,15.388-.042.729-.397,1.174-1.069,1.378-1.049.319-1.039-.667-1.446-1.167-1.452-1.783-.928-3.948-.933-5.895-.011-4.395.59-8.793.54-13.185-.081-7.203.995-14.278,1.824-21.388.084-.719.413-1.292,1.079-1.304.664-.012.83.475.88,1.249.095,1.458.565,2.892.898,4.425Z"/>
      <path class="d" d="m102.533,179.205c-.739-3.845-.254-7.687-.173-11.526.106-5.049.866-10.019,1.804-14.964.111-.584.589-1.254,1.255-1.215.513.03.742.621.751,1.228.075,4.956.061,9.905-.214,14.861-.137,2.465-.203,4.949.036,7.449.252,2.647.275,5.378-.477,7.969-.174.6-1.249,1.323-2.018.152-.792-1.207-.948-2.576-.963-3.955Z"/>
      <path class="d" d="m208.139,166.381c.229,2.612.459,5.202.506,7.833.044,2.488-.986,4.786-.676,7.283.109.88-.851,1.522-2.111,1.427-1.632-.122-.529-1.039-.68-1.613-.941-3.597-.049-7.232-.275-10.847-.307-4.93-.43-9.873-.553-14.812-.024-.952.068-1.941.17-2.904.112-1.053.562-1.851,1.265-1.788.857.076.207,1.254.398,1.688,1.95,4.418,1.056,9.205,1.954,13.734Z"/>
      <path class="d" d="m161.757,176.28c-.381,1.945,2.024,1.4,2.393,2.675-.022.645.339,1.479-.645,1.707-.817.189-1.606-.243-1.634-.998-.041-1.124-1.549-2.23-.113-3.383Z"/>
      <path class="d" d="m270.29,13.863c.003.556.007,1.111.01,1.667.343,1.554-1.574.638-1.762,1.612-.918-.216-2.241.613-2.611-1.013,2.09.468,2.951-1.427,4.362-2.265Z"/>
      <path class="d" d="m146.464,177.445c.889-.007,1.778-.013,2.667-.02.038,1.573-.704,2.462-2.452,2.63-.072-.873-.144-1.742-.216-2.611Z"/>
      <path class="d" d="m118.719,97.874c-1.085,1.141-1.671.264-2.27-.561.792.044,1.678-.294,2.27.561Z"/>
      <path class="d" d="m253.897,40.039c-1.7-.362-3.207.079-4.752.095-8.546.087-17.092-.169-25.511,2.339-5.139,1.531-10.343,3.008-15.34,4.842-4.627,1.698-9.099,3.998-13.742,5.775-5.946,2.276-11.874,4.681-17.986,6.407-4.117,1.163-8.345,2.343-12.729,2.363-1.007.004-1.915.012-2.68-.891-.639-.754-.504-1.551-.398-2.304.155-1.099,1.132-.569,1.743-.606,6.819-.412,13.236-2.22,19.641-4.624,4.884-1.832,10.026-3.176,14.769-5.31,5.852-2.633,11.914-4.714,17.953-6.636,5.744-1.828,11.796-3.005,18.003-3.202,4.403-.139,8.817-.299,13.226-.459,2.096-.076,4.024.91,6.135.687.745-.079,1.169.723,1.668,1.525Z"/>
      <path class="d" d="m56.481,40.736c2.003-2.36,4.174-2.023,5.783-2.13,3.833-.255,7.707-.503,11.607.202,3.241.586,6.639-.074,9.942.672,5.728,1.294,11.407,2.539,17.027,4.469,6.444,2.213,12.684,4.96,19.144,7.139,5.501,1.855,10.976,3.912,16.499,5.768,2.929.985,6.009,1.431,9.095,1.704.812.072,1.688-.148,2.436.083.762.235,2.19.401,1.98,1.299-.229.977-.493,2.473-2.224,2.471-3.411-.004-6.756-.612-10.006-1.453-5.12-1.326-10.325-2.611-15.152-4.703-4.447-1.928-9.112-3.218-13.504-5.28-5.912-2.774-12.011-5.036-18.379-6.72-3.804-1.006-7.541-2.566-11.452-2.832-6.272-.428-12.559-1.491-18.859-.602-1.25.176-2.129-.668-3.936-.086Z"/>
      <path class="d" d="m259.888,40.337c1.686-.918,2.954-.583,4.354.39,1.283.892,2.875,1.325,4.281,2.058.961.501,2.293.86,1.288,2.512-.879,1.446-1.384.418-2.234-.039-2.615-1.407-5.319-2.648-7.689-4.921Z"/>
    </g>
  </g>
</svg>