<?xml version="1.0" encoding="UTF-8"?>
<svg id="b" data-name="Layer 2" xmlns="http://www.w3.org/2000/svg" width="333.156" height="430.604" viewBox="0 0 333.156 430.604">
  <g id="c" data-name="Layer 1">
    <path d="m0,418.494c.583,2.452.852,5,.734,7.607-.068,1.524-.238,3.027-.491,4.503,14.692-.369,29.385-.72,44.079-1.012,59.683-1.188,119.35.563,179.035-.752,33.178-.731,66.355-1.801,99.539-2.252,7.446-.102,7.387-3.967,7.253-9.217-.881-34.68.02-69.381.464-104.035.724-56.414.583-112.826,1.135-169.236.438-44.811,1.394-89.62,1.408-134.43,0-3.224-.008-6.447-.01-9.671h-20.009c2.016,3.41-.507,5.943-8.371,16.09-.541.697-1.506,1.064-2.047,1.762-21.728,28.012-34.883,58.665-27.003,94.902,2.146,9.866.609,17.857-4.403,26.286-10.372,17.438-20.64,34.983-29.933,53.01-16.545,32.091-24.722,66.718-28.645,102.411-1.191,10.836-2.641,12.287-13.654,9.87-3.925-.862-7.822-1.056-11.659-.375-27.107,4.805-46.871,24.104-51.354,51.269-2.054,12.44-.629,24.635.14,36.963.875,14.021-5.412,23.368-15.414,23.586-40.265.877-80.527,2.127-120.794,2.721Zm247.192-176.739c.405,23.105,5.179,45.532,12.248,67.313,4.792,14.767,13.698,27.509,26.062,37.384,9.867,7.881,10.146,9.147,3.549,19.734-5.052,8.107-7.644,8.703-12.992.974-15.788-22.813-30.456-46.271-34.554-74.562-1.637-1.127-1.745-2.33-.179-3.616-1.798-15.665-.453-31.315.227-46.968-.212-4.13-.872-8.397,3.214-11.286,1.019-.72,2.561-1.132,3.052.108,1.445,3.651,1.678,7.402-.627,10.919Zm35.2-92.581c3.706.374,4.451,3.719,5.488,6.475,8.275,21.98,14.205,44.696,20.776,67.204,3.953,13.539,3.035,14.416-10.959,13.444-12.852-.892-18.947,2.648-22.516,13.076-3.472,10.147.785,23.651,9.2,29.185,4.88-1.426,9.761-2.852,14.641-4.277,1.153-6.859.16-12.146-7.772-14.639-3.918-1.23-5.374-5.405-4.432-9.8,1.062-4.958,5.12-5.761,8.995-5.69,6.312.113,11.683,2.457,14.635,8.666,5.397,11.354,5.934,23.118-.77,33.6-6.386,9.984-17.461,8.925-27.791,7.905-1.185-.117-2.343-.515-3.518-.771-2.982,1.532-12.065-4.873-7.84,6.035,11.351,6.495,23.207,4.659,34.99,1.827,6.086-1.462,8.277-.292,7.244,6.498-1.753,11.528-6.758,21.681-12.083,31.739-1.75,3.306-5.101,4.888-8.129,1.858-12.03-12.035-24.496-23.87-27.827-41.746-2.673-4.564,1.487-8.731.767-13.184-19.618-46.144-6.482-89.599,10.974-132.661.987-2.436,2.63-5.077,5.926-4.744Zm31.825-94.011c-3.677,18.031-12.35,33.669-22.323,48.759.104,4.483-.524,10.854-4.308,11.196-4.023.364-3.39-6-3.894-9.769-4.623-28.959,3.812-54.571,19.999-78.202,1.712-2.5,3.511-4.827,6.241-6.396,3.258-1.871,5.642-2.503,5.78,2.536.292,10.662.666,21.276-1.496,31.875Zm2.854,27.414v121.751c-.904.15-1.809.301-2.713.45-6.363-18.421-12.389-36.969-19.202-55.221-5.069-13.582-2.825-25.999,3.637-38.263,5.056-9.596,10.039-19.229,15.055-28.847.443-2.56.917-6.382,3.891-5.55,2.551.714,1.233,3.884-.667,5.679Zm1.101,252.587c-1.417,4.575-2.878,9.142-4.506,13.645-.733,2.026-2.086,3.946-4.638,3.132-2.093-.669-1.889-2.81-1.983-5.106.534-5.134,3.672-9.585,6.723-14.025.534-.777,2.072-1.466,2.953-1.279,1.85.392,1.912,2.147,1.451,3.635Zm-12.607,66.287c-3.845-3.781-7.954-7.29-11.904-10.965-3.44-3.201-4.468-7.452-2.69-11.453,2.158-4.857,5.276-9.328,8.295-13.75,1.938-2.84,4.79-4.642,8.499-3.813,3.812.852,5.302,3.96,5.742,7.288.667,5.041.757,10.158,1.021,14.169-.308,5.892-.204,10.737-.902,15.464-.766,5.188-2.975,8.063-8.061,3.06Zm-43.455,6.811c5.456-13.67,22.701-16.509,31.585-5.192,1.774,2.261,3.785,4.578,2.598,7.954-1.382,3.926-4.674,2.975-7.521,3.07-2.985.101-5.976.022-8.964.022v.076c-4.479,0-8.97.198-13.434-.063-3.466-.203-5.854-1.882-4.264-5.867Zm-12.695-14.775c-21.348-41.45-32.12-84.94-24.605-131.787.96-5.987-.174-12.551,5.723-20.279,0,6.505.118,10.529-.018,14.545-1.517,44.778,13.863,83.967,40.499,118.968,5.815,7.642,4.96,11.929-1.724,17.001-1.918,1.456-3.764,3.01-5.658,4.498-6.293,4.944-10.49,4.291-14.217-2.945Zm-101.192,15.191c2.515.564,4.896,2.312,5.501,5.5.479,2.52-1.85,3.04-3.523,2.561-2.623-.751-6.6.177-7.216-3.77-.451-2.888,1.816-4.1,5.238-4.291Zm2.151-70.011c9.287-17.104,22.989-27.791,43.667-26.203,14.608,1.121,25.188,14.325,25.951,32.059.598,13.906-6.832,22.804-21.218,25.408-12.308,2.228-22.273-5.784-22.574-18.157-.12-4.971-.186-9.81,6.163-11.415,5.873-1.485,9.201.844,10.969,6.361.621,1.939,1.475,4.458,4.216,3.644,2.473-.735,2.425-3.345,2.24-5.39-.617-6.812-3.365-12.346-10.545-14.136-6.642-1.656-15.817,3.202-18.929,9.578-7.927,16.246,5.559,38.254,23.556,39.453,10.985.732,17.743-6.262,25.468-11.676,4.828-3.384,7.848-3.555,9.993,2.792,2.808,8.309,7.461,15.773,11.583,23.489,5.271,9.865-.232,19.156-11.33,19.471-8.738.247-17.488.049-26.233.049,0,.176,0,.352,0,.527-7.841,0-15.684-.141-23.521.03-15.169.332-25.498-7.98-31.709-20.334-9.295-18.488-7.51-37.573,2.252-55.551Z"/>
  </g>
</svg>