<?xml version="1.0" encoding="UTF-8"?>
<svg id="b" data-name="Layer 2" xmlns="http://www.w3.org/2000/svg" width="212.775" height="146.984" viewBox="0 0 212.775 146.984">
  <defs>
    <style>
      .d {
        fill: #000;
      }
    </style>
  </defs>
  <g id="c" data-name="Layer 1">
    <path class="d" d="m163.213,50.996c-.593.172-1.18.985-1.788.264-.426-.506.126-.979.477-1.389.534-.625,1.055-1.261,1.582-1.893.284-.364.569-.727.853-1.09,0,0-.046.069-.046.069.299-.297.598-.595.897-.892,0,0-.065.06-.065.061.298-.298.595-.597.892-.895,0,0-.062.062-.061.062.3-.298.6-.597.899-.895,0,0-.068.068-.067.069.298-.3.596-.6.893-.9,0,0-.06.06-.06.06.3-.298.599-.596.899-.894,0,0-.068.067-.067.068.298-.299.595-.598.892-.897,0,0-.066.049-.066.049.361-.277.722-.554,1.083-.831.217-.208.433-.415.65-.623,3.688-3.615,7.375-7.23,11.063-10.844-.254-.254-.509-.509-.763-.763-1.237.465-2.475.93-3.712,1.395-.032-2.733,3.643-2.526,4.209-5.607-4.92,2.454-9.546,4.372-13.729,7.197-.43.305-.86.611-1.29.916-.724-.09-1.329.088-1.713.761,0,0,.061-.023.061-.023-.742-.043-1.34.204-1.733.861,0,0,.076-.023.076-.023-.704.287-1.407.574-2.111.862-.675.334-1.35.667-2.025,1.001-.96.478-1.919.957-2.878,1.435-1.467.393-2.865,3.586-4.432.113.54-.281,1.082-.563,1.625-.846.235-.023.446-.107.631-.255.861-.491,1.721-.982,2.582-1.472.534-.246,1.068-.492,1.603-.739.583-.298,1.165-.596,1.748-.894.273-.025.52-.118.742-.279.846-.469,1.692-.937,2.537-1.406.262-.11.524-.22.787-.33,1.276-.473,2.566-.922,3.405-2.102,0,0,.203.189.203.189,3.874-1.915,7.748-3.831,11.623-5.746-.207-.434-.414-.868-.622-1.303-4.721,1.669-9.442,3.338-14.163,5.007-2.145.816-4.279,2.342-6.47.096,1.062-.51,2.379-.498,3.179-1.548,0,0,.098.207.101.207,4.996-1.102,9.769-2.795,14.491-4.628-.116-.504-.232-1.009-.348-1.513-9.269,1.459-18.537,2.918-27.806,4.377-.852-1.814.63-1.688,1.609-1.862,4.721-.837,9.454-1.611,14.174-2.455,1.201-.215,3.263.521,3.155-1.518-.088-1.658-1.958-1.568-3.332-1.634-2.067-.087-4.134-.248-6.201-.251-23.762-.026-47.523-.025-71.285-.04-1.924-.001-3.873.19-5.719-.589-3.698-1.581-5.966-4.188-6.021-8.385-.725-1.205-1.938-.845-2.974-.847-12.369-.027-24.739-.024-37.108-.005-1.07.002-2.23-.185-3.076.776l-.006.005c-.297.274-.595.548-.892.823-1.046.677-2.006.732-2.992-.199-.942-.888-2.008-.927-2.935.055-2.14,2.271-4.649,1.836-7.328,1.267-5.381-1.142-10.803-2.089-16.948-3.258,2.84-1.684,5.453-1.529,7.795-2.253,2.912-.9,6.041-.547,8.881-1.947,1.103-.544,2.929-.516,4.042.032,2.739,1.349,5.147,3.848,8.407,1.052.133-.114,1.082.721,1.652,1.114.975,1.027,2.266.899,3.489.9,12.275.012,24.55.016,36.826-.024,1.169-.004,2.551.322,3.313-1.075,4.934-5.678,8.676-5.702,13.189-.082,1.135,1.834,2.987,1.152,4.531,1.154,35.916.042,71.832.036,107.749.01,1.619-.001,3.363.4,4.765-.885,1.368-1.292,2.542-1.553,4.065.044,1.515,1.589.618,2.591-.322,3.772-1.132,1.116-.877,2.565-.878,3.915-.02,19.759-.027,39.518.01,59.277.002,1.284-.5,2.834,1.087,3.703,5.538,4.124,5.568,8.653.084,13.206-1.436.714-1.146,2.085-1.153,3.263-.041,7.29-.036,14.581-.02,21.872.003,1.219-.13,2.507.901,3.475.238.338.76.846.674.989-2.965,4.94,3.222,8.957,1.152,14.168-1.83,4.608-2.111,9.831-4.054,14.826-1.205-6.362-2.436-12.72-3.575-19.094-.106-.591.192-1.429.595-1.907,1.833-2.173,2.946-4.304.585-6.848-.182-.197.288-.998.455-1.519.269-.267.538-.534.807-.801,0,0,.028-.039.028-.039.905-.862.8-2.001.802-3.085.013-7.281.017-14.562-.01-21.843-.004-1.06.226-2.243-.89-2.997-.526-.058-1.052-.115-1.578-.173-.288-.039-.577-.077-.865-.116,0,0-.365-.051-.367-.052-.404-.211-.807-.421-1.21-.632-.643-.864-2.23-1.138-1.708-2.73,6.531,2.948,6.856,2.719,6.617-4.682-.018-.547-.031-1.094-.053-1.641-.077-1.913-1.441-1.082-2.397-1.122-.765-1.575.966-1.701,1.474-2.536,1.395-1.001.94-2.508.942-3.816.031-19.641.026-39.281-.001-58.922-.002-1.338.347-2.795-.763-3.941-.258-.225-.516-.45-.774-.675-1.118-1.184-2.589-.791-3.922-.792-36.168-.028-72.337-.035-108.505-.004-1.428.001-3.105-.571-4.187,1.025-1.077,1.036-1.885,2.53-3.44,2.817-1.362.251-3.348,1.609-3.766-1.254.799-.003,1.604.061,2.394-.025,1.108-.121,2.457-.589,2.242-1.771-.258-1.417-1.724-.635-2.7-.661-.586.185-1.173.369-1.759.554-1.516-.965-3.345-1.232-4.586-.118-1.169,1.049-.184,2.536.642,3.68l.042-.145c.221.952.68,1.662,1.767,1.728l-.039-.028c.284,1.433,1.384,1.655,2.578,1.735l-.092-.035c2.047,1.271,4.323.692,6.486.696,36.728.07,73.456.084,110.184.111l-.099-.095c.021,19.949.075,39.898.033,59.846-.007,3.499.231,6.889,1.715,10.103-1.969.344-1.982-1.599-2.903-2.481-.785-9.911-.138-19.84-.37-29.758-.084-3.573-.23-7.153-2.629-10.337-1.092,7.477-2.185,14.954-3.277,22.431-.615.486-1.229.684-1.839-.008,1.623-9.315,3.279-18.628,3.468-28.16-1.482,2.292-2.202,4.758-3.183,7.115-1.462,3.512-1.466,7.606-4.225,10.596-.204-.331-.407-.662-.612-.993,2.169-6.578,4.34-13.157,6.51-19.736-2.867,1.26-3.132,4.01-4.812,5.8-.295-.258-.59-.517-.886-.775.813-2.632,2.84-4.815,2.496-8.017-3.019,4.215-6.039,8.43-9.058,12.644-.212.171-.335.392-.369.662-.263.356-.525.712-.788,1.068-.294.412-.587.825-.881,1.237-.48.668-.96,1.336-1.44,2.005-.388.249-.776.497-1.164.746-1.188-2.054.763-3.028,1.608-4.256,3.064-4.453,6.285-8.797,9.446-13.183-.321-.248-.643-.497-.964-.745-6.734,6.652-13.467,13.305-20.201,19.957Zm19.824-23.822c-.1.31-.199.621-.299.931.3-.056.599-.112.899-.167.144-.22.459-.507.403-.647-.221-.559-.636-.311-1.003-.116Zm1.91,2.081c-.052.294-.104.587-.156.881.309-.114.618-.227.925-.34.16-.361.337-.765-.176-.944-.134-.047-.392.259-.593.403Zm4.304-3.146c-.124-1.999,2.215-2.832,2.536-5.292-1.641,1.142-2.897,1.911-4.023,2.836-.736.605-2.231,1.009-1.327,2.459.894,1.434,1.891.052,2.844-.037.087.364.348.801.231,1.08-.532,1.275-.641,2.767.709,3.166,1.807.534,1.488-1.505,1.869-2.444.536-1.322,1.368-2.667.979-4.273-1.802.126-1.738,2.944-3.818,2.504ZM9.469,5.614c3.185,2.061,6.533,2.592,9.886,2.947,1.748.185,3.65-.652,3.566-2.501-.065-1.412-1.817-2.507-3.489-2.264-3.338.484-6.643,1.199-9.962,1.818Zm196.648,132.988c.343-.036.685-.073,1.028-.109.642-3.203,1.35-6.394,1.9-9.612.343-2.005-.682-3.978-2.487-4.023-1.559-.039-2.523,2.003-2.258,3.78.497,3.337,1.2,6.644,1.817,9.964Zm-32.555-121.51c5.333,4.315,8.57,4.28,15.123,0h-15.123Zm22.259,7.214c-2.439,4.979-5.572,9.964,0,14.949v-14.949Zm11.533,57.285c.64,1.411-.863,3.946,1.243,4.08,1.874.119,2.445-2.299,2.467-4.14.021-1.702-.497-3.895-2.281-3.812-2.394.111-.709,2.597-1.429,3.872ZM80.867,5.52c1.475-.59,3.897.845,4.169-1.297.236-1.856-1.973-2.361-3.651-2.412-1.844-.057-4.233.482-4.261,2.306-.037,2.415,2.552.653,3.743,1.403Zm108.407,14.268c-2.408.341-4.885.527-6.681,2.33-.498.5.401,1.415.978,1.448,2.758.16,4.105-1.992,5.703-3.778Z"/>
  </g>
</svg>