<?xml version="1.0" encoding="utf-8"?>
<!-- Generator: Adobe Illustrator 27.7.0, SVG Export Plug-In . SVG Version: 6.00 Build 0)  -->
<svg version="1.1" id="b" xmlns="http://www.w3.org/2000/svg" xmlns:xlink="http://www.w3.org/1999/xlink" x="0px" y="0px"
	 viewBox="0 0 333.2 430.6" style="enable-background:new 0 0 333.2 430.6;" xml:space="preserve">
<style type="text/css">
	.st0{opacity:0.5;}
	.st1{fill:#FFFFFF;}
</style>
<g id="c" class="st0">
	<path class="st1" d="M0,418.5c0.6,2.5,0.9,5,0.7,7.6c-0.1,1.5-0.2,3-0.5,4.5c14.7-0.4,29.4-0.7,44.1-1c59.7-1.2,119.3,0.6,179-0.8
		c33.2-0.7,66.4-1.8,99.5-2.3c7.4-0.1,7.4-4,7.3-9.2c-0.9-34.7,0-69.4,0.5-104c0.7-56.4,0.6-112.8,1.1-169.2
		c0.4-44.8,1.4-89.6,1.4-134.4c0-3.2,0-6.4,0-9.7h-20c2,3.4-0.5,5.9-8.4,16.1c-0.5,0.7-1.5,1.1-2,1.8c-21.7,28-34.9,58.7-27,94.9
		c2.1,9.9,0.6,17.9-4.4,26.3c-10.4,17.4-20.6,35-29.9,53c-16.5,32.1-24.7,66.7-28.6,102.4c-1.2,10.8-2.6,12.3-13.7,9.9
		c-3.9-0.9-7.8-1.1-11.7-0.4c-27.1,4.8-46.9,24.1-51.4,51.3c-2.1,12.4-0.6,24.6,0.1,37c0.9,14-5.4,23.4-15.4,23.6
		C80.5,416.6,40.3,417.9,0,418.5L0,418.5z M247.2,241.8c0.4,23.1,5.2,45.5,12.2,67.3c4.8,14.8,13.7,27.5,26.1,37.4
		c9.9,7.9,10.1,9.1,3.5,19.7c-5.1,8.1-7.6,8.7-13,1c-15.8-22.8-30.5-46.3-34.6-74.6c-1.6-1.1-1.7-2.3-0.2-3.6
		c-1.8-15.7-0.5-31.3,0.2-47c-0.2-4.1-0.9-8.4,3.2-11.3c1-0.7,2.6-1.1,3.1,0.1C249.3,234.5,249.5,238.2,247.2,241.8L247.2,241.8z
		 M282.4,149.2c3.7,0.4,4.5,3.7,5.5,6.5c8.3,22,14.2,44.7,20.8,67.2c4,13.5,3,14.4-11,13.4c-12.9-0.9-18.9,2.6-22.5,13.1
		c-3.5,10.1,0.8,23.7,9.2,29.2c4.9-1.4,9.8-2.9,14.6-4.3c1.2-6.9,0.2-12.1-7.8-14.6c-3.9-1.2-5.4-5.4-4.4-9.8c1.1-5,5.1-5.8,9-5.7
		c6.3,0.1,11.7,2.5,14.6,8.7c5.4,11.4,5.9,23.1-0.8,33.6c-6.4,10-17.5,8.9-27.8,7.9c-1.2-0.1-2.3-0.5-3.5-0.8c-3,1.5-12.1-4.9-7.8,6
		c11.4,6.5,23.2,4.7,35,1.8c6.1-1.5,8.3-0.3,7.2,6.5c-1.8,11.5-6.8,21.7-12.1,31.7c-1.8,3.3-5.1,4.9-8.1,1.9
		c-12-12-24.5-23.9-27.8-41.7c-2.7-4.6,1.5-8.7,0.8-13.2c-19.6-46.1-6.5-89.6,11-132.7C277.5,151.5,279.1,148.8,282.4,149.2
		L282.4,149.2z M314.2,55.2c-3.7,18-12.4,33.7-22.3,48.8c0.1,4.5-0.5,10.9-4.3,11.2c-4,0.4-3.4-6-3.9-9.8c-4.6-29,3.8-54.6,20-78.2
		c1.7-2.5,3.5-4.8,6.2-6.4c3.3-1.9,5.6-2.5,5.8,2.5C316,33.9,316.4,44.6,314.2,55.2L314.2,55.2z M317.1,82.6v121.8
		c-0.9,0.1-1.8,0.3-2.7,0.4c-6.4-18.4-12.4-37-19.2-55.2c-5.1-13.6-2.8-26,3.6-38.3c5.1-9.6,10-19.2,15.1-28.8
		c0.4-2.6,0.9-6.4,3.9-5.6C320.3,77.6,319,80.8,317.1,82.6L317.1,82.6z M318.2,335.2c-1.4,4.6-2.9,9.1-4.5,13.6
		c-0.7,2-2.1,3.9-4.6,3.1c-2.1-0.7-1.9-2.8-2-5.1c0.5-5.1,3.7-9.6,6.7-14c0.5-0.8,2.1-1.5,3-1.3
		C318.6,331.9,318.6,333.7,318.2,335.2L318.2,335.2z M305.6,401.5c-3.8-3.8-8-7.3-11.9-11c-3.4-3.2-4.5-7.5-2.7-11.5
		c2.2-4.9,5.3-9.3,8.3-13.8c1.9-2.8,4.8-4.6,8.5-3.8c3.8,0.9,5.3,4,5.7,7.3c0.7,5,0.8,10.2,1,14.2c-0.3,5.9-0.2,10.7-0.9,15.5
		C312.9,403.6,310.7,406.5,305.6,401.5z M262.1,408.3c5.5-13.7,22.7-16.5,31.6-5.2c1.8,2.3,3.8,4.6,2.6,8c-1.4,3.9-4.7,3-7.5,3.1
		c-3,0.1-6,0-9,0v0.1c-4.5,0-9,0.2-13.4-0.1C262.9,413.9,260.5,412.2,262.1,408.3L262.1,408.3z M249.4,393.5
		c-21.3-41.5-32.1-84.9-24.6-131.8c1-6-0.2-12.6,5.7-20.3c0,6.5,0.1,10.5,0,14.5c-1.5,44.8,13.9,84,40.5,119c5.8,7.6,5,11.9-1.7,17
		c-1.9,1.5-3.8,3-5.7,4.5C257.3,401.4,253.1,400.7,249.4,393.5L249.4,393.5z M148.2,408.7c2.5,0.6,4.9,2.3,5.5,5.5
		c0.5,2.5-1.9,3-3.5,2.6c-2.6-0.8-6.6,0.2-7.2-3.8C142.5,410.1,144.8,408.9,148.2,408.7L148.2,408.7z M150.4,338.7
		c9.3-17.1,23-27.8,43.7-26.2c14.6,1.1,25.2,14.3,26,32.1c0.6,13.9-6.8,22.8-21.2,25.4c-12.3,2.2-22.3-5.8-22.6-18.2
		c-0.1-5-0.2-9.8,6.2-11.4c5.9-1.5,9.2,0.8,11,6.4c0.6,1.9,1.5,4.5,4.2,3.6c2.5-0.7,2.4-3.3,2.2-5.4c-0.6-6.8-3.4-12.3-10.5-14.1
		c-6.6-1.7-15.8,3.2-18.9,9.6c-7.9,16.2,5.6,38.3,23.6,39.5c11,0.7,17.7-6.3,25.5-11.7c4.8-3.4,7.8-3.6,10,2.8
		c2.8,8.3,7.5,15.8,11.6,23.5c5.3,9.9-0.2,19.2-11.3,19.5c-8.7,0.2-17.5,0-26.2,0c0,0.2,0,0.4,0,0.5c-7.8,0-15.7-0.1-23.5,0
		c-15.2,0.3-25.5-8-31.7-20.3C138.8,375.7,140.6,356.6,150.4,338.7L150.4,338.7z"/>
</g>
</svg>
