<?xml version="1.0" encoding="UTF-8"?>
<svg id="b" data-name="Layer 2" xmlns="http://www.w3.org/2000/svg" width="41.501" height="6.937" viewBox="0 0 41.501 6.937">
  <defs>
    <style>
      .d {
        fill: #eb271a;
      }
    </style>
  </defs>
  <g id="c" data-name="Layer 1">
    <path class="d" d="m15.356,1.256c5.241.023,9.437.198,13.65-.052,2.641-.156,5.214-.649,7.809-1.046,1.792-.274,4.35-.347,4.66,1.111.307,1.444-2.242,2.046-3.85,2.39-3.168.678-6.355,1.669-9.545,1.711-2.587.034-5.227.226-7.799.271-3.573.063-7.299-1.24-10.763.316-2.757,1.238-5.676.123-8.426.948-.531.159-.929-.283-1.05-.778-.219-.895.436-1.287,1.085-1.653,2.26-1.272,4.827-1.747,7.28-2.179,2.632-.464,5.314-.842,6.947-1.039Z"/>
  </g>
</svg>