<?xml version="1.0" encoding="UTF-8"?>
<svg id="b" data-name="Layer 2" xmlns="http://www.w3.org/2000/svg" width="43.107" height="5.495" viewBox="0 0 43.107 5.495">
  <defs>
    <style>
      .d {
        fill: #eb271a;
      }
    </style>
  </defs>
  <g id="c" data-name="Layer 1">
    <path class="d" d="m5.048,1.307c2.905-.791,6.103-.271,9.294-.716,2.158-.301,4.523-.466,6.864-.088,1.907.308,4.063.848,5.957-.299.771-.467,1.387.012,2.075.019,3.853.042,7.706.034,11.559.088,1.305.018,1.954.986,2.241,2.067.35,1.319-.705,1.638-1.687,1.823-4.151.779-8.378.513-12.558.885-4.606.41-9.215-.048-13.835.153-4.207.184-8.572.76-12.732-.812-.687-.259-1.455-.409-1.841-1.044-.489-.803-.728-1.81.643-1.902,1.266-.084,2.482-.827,4.02-.175Z"/>
  </g>
</svg>