<?xml version="1.0" encoding="UTF-8"?>
<svg id="b" data-name="Layer 2" xmlns="http://www.w3.org/2000/svg" width="44.397" height="35.851" viewBox="0 0 44.397 35.851">
  <defs>
    <style>
      .d {
        fill: #eb271a;
      }
    </style>
  </defs>
  <g id="c" data-name="Layer 1">
    <g>
      <path class="d" d="m6.338,15.005c2.905-.791,6.103-.271,9.294-.716,2.158-.301,4.523-.466,6.864-.088,1.907.308,4.063.848,5.957-.299.771-.467,1.387.012,2.075.019,3.853.042,7.706.034,11.559.088,1.305.018,1.954.986,2.241,2.067.35,1.319-.705,1.638-1.687,1.823-4.151.779-8.378.513-12.558.885-4.606.41-9.215-.048-13.835.153-4.207.184-8.572.76-12.732-.812-.687-.259-1.455-.409-1.841-1.044-.489-.803-.728-1.81.643-1.902,1.266-.084,2.482-.827,4.02-.175Z"/>
      <path class="d" d="m16.92,30.169c5.241.023,9.437.198,13.65-.052,2.641-.156,5.214-.649,7.809-1.046,1.792-.274,4.35-.347,4.66,1.111.307,1.444-2.242,2.046-3.85,2.39-3.168.678-6.355,1.669-9.545,1.711-2.587.034-5.227.226-7.799.271-3.573.063-7.299-1.24-10.763.316-2.757,1.238-5.676.123-8.426.948-.531.159-.929-.283-1.05-.778-.219-.895.436-1.287,1.085-1.653,2.26-1.272,4.827-1.747,7.28-2.179,2.632-.464,5.314-.842,6.947-1.039Z"/>
      <path class="d" d="m32.712,3.957c-2.247.757-5.208-.247-8.247.331-2.882.548-5.98-.318-9.022-.3-3.713.022-7.419-.273-11.104.413-.394.073-.795.151-1.193.157-1.313.019-2.983-.022-3.134-1.513-.17-1.669,1.689-1.247,2.729-1.557C10.02-.682,17.514.084,24.89.351c4.46.162,8.952.474,13.428.751.693.043,1.698.091,1.684.936-.013.745-.767,1.412-1.595,1.579-1.647.33-3.318.499-5.695.34Z"/>
    </g>
  </g>
</svg>