<?xml version="1.0" encoding="UTF-8"?>
<svg id="b" data-name="Layer 2" xmlns="http://www.w3.org/2000/svg" width="334.523" height="855.25" viewBox="0 0 334.523 855.25">
  <g id="c" data-name="Layer 1">
    <path d="m333.558,619.123c.107-66.063.881-132.126.859-198.189-.015-44.81-.97-89.619-1.408-134.43-.552-56.41-.411-112.822-1.135-169.236-.444-34.654-1.345-69.355-.464-104.035.134-5.25.193-9.115-7.253-9.217-33.184-.451-66.361-1.521-99.539-2.252-59.686-1.315-119.353.437-179.035-.752C30.889.72,16.196.369,1.504,0c.253,1.476.423,2.979.491,4.503.117,2.607-.151,5.155-.734,7.607,40.267.594,80.529,1.844,120.794,2.721,10.002.218,16.289,9.565,15.414,23.586-.769,12.328-2.193,24.522-.14,36.963,4.482,27.164,24.246,46.464,51.354,51.269,3.837.681,7.734.487,11.659-.375,11.014-2.417,12.463-.966,13.654,9.87,3.923,35.693,12.1,70.32,28.645,102.411,9.293,18.026,19.561,35.571,29.933,53.01,5.013,8.429,6.549,16.42,4.403,26.286-7.88,36.237,5.275,66.891,27.003,94.902.541.697,1.506,1.064,2.047,1.762,12.672,16.351,11.487,12.931-.238,25.268-27.156,28.569-36.665,62.162-27.559,100.724,1.545,6.545.611,12.228-3.016,18.063-11.91,19.168-24.601,37.991-34.742,58.083-12.14,24.05-19.988,49.883-23.211,76.834-1.138,9.521-4.396,18.762-3.577,28.549.438,5.249-3.578,4.575-6.813,4.562-12.06-.049-23.983.977-35.269,5.536-22.2,8.969-41.624,39.753-36.739,68.352,1.527,8.943,2.203,17.977,1.228,27.051-.808,7.521-3.911,11.982-12.593,11.888-41.163-.451-82.331-.159-123.497-.446v14.123c31.361.499,62.726.718,94.095.215,26.224-.421,52.434.643,78.612,1.178,50.368,1.03,100.702.886,151.059.306,7.025-.081,9.615-2.569,9.577-9.561-.233-43.413.135-86.817,1.018-130.23.649-31.942-.854-63.922-.803-95.884Zm-14.559-265.417c-2.974.832-3.447-2.99-3.891-5.55-5.016-9.617-9.999-19.251-15.055-28.847-6.462-12.264-8.706-24.681-3.637-38.263,6.813-18.252,12.839-36.8,19.202-55.221.904.149,1.809.3,2.713.45v121.751c1.9,1.795,3.218,4.965.667,5.679Zm-1.018-254.631c-.881.187-2.419-.502-2.953-1.279-3.051-4.44-6.188-8.892-6.723-14.025.095-2.297-.109-4.438,1.983-5.106,2.552-.814,3.904,1.105,4.638,3.132,1.628,4.503,3.089,9.069,4.506,13.645.461,1.487.398,3.243-1.451,3.635Zm-3.096-66.862c.698,4.727.595,9.572.902,15.464-.265,4.011-.354,9.128-1.021,14.169-.44,3.328-1.931,6.437-5.742,7.288-3.709.829-6.561-.973-8.499-3.812-3.019-4.422-6.137-8.893-8.295-13.75-1.777-4.001-.75-8.252,2.69-11.453,3.95-3.675,8.06-7.184,11.904-10.965,5.086-5.003,7.295-2.129,8.061,3.06Zm-47.252-15.737c4.464-.262,8.954-.063,13.434-.063v.076c2.988,0,5.979-.078,8.964.022,2.848.096,6.14-.855,7.521,3.07,1.188,3.376-.823,5.693-2.598,7.954-8.884,11.316-26.129,8.478-31.585-5.192-1.591-3.985.798-5.664,4.264-5.867Zm-123.39,1.16c.616-3.946,4.593-3.019,7.216-3.77,1.674-.479,4.002.041,3.523,2.561-.605,3.188-2.986,4.936-5.501,5.5-3.422-.191-5.689-1.403-5.238-4.291Zm77.008,68.446c-.763,17.733-11.343,30.938-25.951,32.059-20.678,1.588-34.38-9.099-43.667-26.203-9.762-17.978-11.547-37.062-2.252-55.551,6.211-12.354,16.54-20.666,31.709-20.334,7.837.171,15.68.03,23.521.03,0,.176,0,.352,0,.527,8.745,0,17.495-.198,26.233.049,11.098.314,16.602,9.605,11.33,19.471-4.122,7.716-8.775,15.181-11.583,23.489-2.146,6.347-5.165,6.176-9.993,2.792-7.725-5.414-14.482-12.408-25.468-11.676-17.997,1.199-31.482,23.207-23.556,39.453,3.111,6.376,12.287,11.234,18.929,9.578,7.18-1.79,9.928-7.324,10.545-14.136.185-2.045.232-4.654-2.24-5.39-2.741-.814-3.595,1.704-4.216,3.644-1.768,5.518-5.096,7.847-10.969,6.361-6.349-1.605-6.283-6.444-6.163-11.415.301-12.373,10.267-20.385,22.574-18.157,14.386,2.604,21.815,11.502,21.218,25.408Zm10.54,103.103c-5.896-7.729-4.763-14.292-5.723-20.279-7.515-46.847,3.258-90.337,24.605-131.787,3.727-7.236,7.924-7.89,14.217-2.945,1.895,1.488,3.74,3.042,5.658,4.498,6.684,5.072,7.539,9.359,1.724,17.001-26.636,35.001-42.016,74.189-40.499,118.968.136,4.016.018,8.04.018,14.545Zm17.288,10.584c-.491,1.24-2.033.828-3.052.108-4.086-2.889-3.426-7.156-3.214-11.286-.68-15.652-2.024-31.303-.227-46.968-1.566-1.286-1.458-2.489.179-3.616,4.098-28.292,18.766-51.749,34.554-74.562,5.349-7.729,7.94-7.134,12.992.974,6.598,10.587,6.318,11.854-3.549,19.734-12.364,9.875-21.271,22.617-26.062,37.384-7.069,21.781-11.843,44.208-12.248,67.313,2.305,3.517,2.072,7.268.627,10.919Zm28.647,76.918c-17.456-43.062-30.592-86.518-10.974-132.661.721-4.452-3.439-8.619-.767-13.184,3.331-17.876,15.797-29.711,27.827-41.746,3.028-3.029,6.379-1.447,8.129,1.858,5.325,10.059,10.33,20.211,12.083,31.739,1.033,6.79-1.158,7.96-7.244,6.498-11.783-2.832-23.64-4.668-34.99,1.827-4.226,10.908,4.857,4.503,7.84,6.035,1.175-.257,2.333-.654,3.518-.771,10.33-1.02,21.405-2.079,27.791,7.905,6.703,10.481,6.167,22.245.77,33.6-2.952,6.209-8.322,8.553-14.635,8.666-3.875.07-7.933-.732-8.995-5.69-.942-4.395.514-8.569,4.432-9.8,7.933-2.492,8.926-7.779,7.772-14.639-4.88-1.426-9.761-2.852-14.641-4.277-8.415,5.533-12.672,19.037-9.2,29.185,3.568,10.428,9.664,13.968,22.516,13.076,13.994-.972,14.912-.095,10.959,13.444-6.571,22.508-12.501,45.224-20.776,67.204-1.037,2.756-1.782,6.101-5.488,6.475-3.296.333-4.938-2.309-5.926-4.744Zm33.467,133.166c-2.73-1.568-4.529-3.896-6.241-6.396-16.188-23.631-24.622-49.243-19.999-78.202.504-3.769-.13-10.133,3.894-9.769,3.783.342,4.412,6.713,4.308,11.196,9.974,15.09,18.646,30.728,22.323,48.759,2.162,10.599,1.788,21.213,1.496,31.875-.139,5.039-2.522,4.407-5.78,2.536Zm-25.601,79.904c4.833-16.082,13.994-30.218,24.861-43.083,1.454-1.721,2.896-4.765,5.57-3.386,1.354.698,2.149,3.656,2.144,5.59-.015,5.086-.605,10.169-.968,15.254,2.055,2.346,1.521,4.226-1.031,5.742l-.794,8.748c2.009,2.533.014,3.087-1.833,3.715-5.423,19.201-15.037,36.362-26.387,54.72-6.341-16.618-6.094-32.225-1.562-47.3Zm-28.785,178.826c3.896-32.259,6.882-64.759,22.64-94.221.929-1.735.95-4.607,3.738-4.46,2.346.124,3.544,2.233,4.274,4.229,9.325,25.479,19.246,50.796,22.443,78.037.688,5.86-1.413,8.624-7.753,6.977-9.421-2.447-17.357-.487-22.612,8.424-5.796,9.827-6.678,19.931-1.127,30.11,2.844,5.214,7.85,6.249,13.297,5.476,4.684-.665,7.682-3.569,8.635-8.087,1.121-5.318.554-10.379-4.82-13.407-4.339-2.444-9.474-4.979-6.473-10.868,3.062-6.007,8.794-3.596,13.693-2.143,1.705.507,3.469,1.245,4.858,2.324,10.312,8.005,8.63,19.467,7.341,30.021-1.059,8.666-7.569,14.539-16.058,16.576-19.244,4.617-31.482-2.551-37.845-21.294-3.044-8.968-4.581-18.121-4.232-27.695Zm56.578,62.292c-2.559,8.917-3.264,20.277-10.412,29.494-3.857,4.975-8.116,6.177-12.877,1.557-10.019-9.72-18.11-20.802-23.163-33.941-.67-1.743-1.148-3.608.018-5.155,1.606-2.131,3.309-.166,4.701.488,11.562,5.435,23.304,4.532,35.031.958,4.816-1.467,7.813-1.371,6.702,6.6Zm-164.656,110.087c-2.608-.806-6.92.622-6.618-4.051.229-3.559,3.567-4.55,6.681-4.846,3.642-.346,5.941,1.556,5.906,5.145-.037,3.842-3.239,3.626-5.969,3.752Zm89.309-7.12c-22.607,10.152-45.879,11.129-68.474,1.578-17.851-7.545-25.58-23.805-25.871-42.412-.323-20.583,13.437-46.209,35.033-56.186,20.744-9.582,40.297,2.806,42.041,25.57.971,12.664-1.12,23.389-13.744,29.557-12.608,6.161-28.655-1.348-31.068-14.619-1.015-5.582.506-10.251,5.322-13.305,5.319-3.373,10.301-4.046,12.369,3.696.653,2.443.835,5.204,4.277,4.184,2.893-.857,4.634-3.38,3.845-6.317-1.81-6.732-4.527-12.827-13.441-11.26-3.746.944-7.492,1.889-11.237,2.833-7.924,8.444-9.582,24.91-3.456,34.324,6.177,9.494,17.968,12.562,30.539,8.231,5.817-2.004,10.823-5.29,15.589-8.979,4.944-3.828,8.132-4.011,10.746,2.769,3.573,9.267,7.952,18.236,12.27,27.196,3,6.228,1.375,10.393-4.739,13.14Zm10.441-18.746c-10.657-21.457-17.681-44.146-21.838-67.616-3.205-18.096-3.716-36.499-2.69-54.892.425-5.988.949-11.919,2.093-17.871,1.48-7.707,4.731-13.429,12.265-16.272,4.283-1.617,5.832-5.88,8.629-8.943,1.315-1.44,2.595-3.973,5.044-2.775,2.291,1.12,1.55,3.754,1.296,5.708-1.121,8.615-2.449,17.204-3.703,25.803,2.265,25.454,4.306,51.165,20.633,72.358,6.271,8.139,11.781,17.528,21.469,22.498,4.827,2.476,4.605,5.662,2.323,9.567-.604,1.032-1.47,1.908-2.117,2.919-8.473,13.228-9.408,13.437-18.184-.401-11.57-18.247-23.062-36.479-28.212-58.066-3.041-12.75-3.699-25.521-4.424-38.405-5.118-.419-5.579,2.822-5.838,6.835-.475,7.366,1.577,14.872-1.18,22.106,3.718,26.103,16.782,48.044,30.923,69.499,1.49,2.261,3.241,4.348,4.791,6.571,8.438,12.108,5.365,21.628-8.752,26.785-5.737,2.096-9.773.137-12.527-5.407Zm48.399,24.688c-4.209.052-8.418.01-14.965.01-2.771-.173-7.978.06-12.935-.945-6.833-1.384-8.053-6.261-2.803-10.886,5.158-4.542,11.271-7.915,15.774-13.342,1.622-1.954,4.018-1.883,5.973.72,4.3,5.721,9.23,10.992,13.232,16.902,2.943,4.346,1.404,7.471-4.277,7.541Zm17.201-10.654c-.842-.52-1.95-1.022-2.836-1.784-2.277-1.958-4.448-4.038-6.674-6.056-15.257-13.825-15.653-21.229-2.091-36.356,2.806-3.129,5.663-3.263,8.499-.456,3.984,3.942,6.368,8.686,6.257,14.481-.162,8.415-.192,16.835-.446,25.248-.055,1.82.783,4.444-2.709,4.923Zm1.101-53.932c-1.965.873-4.366.691-5.765-1.146-3.645-4.791.03-9.071,1.485-13.361.925-2.728,2.526-6.341,5.933-5.61,3.354.719,2.371,4.909,3.74,7.339-2.566,4.215.239,10.275-5.394,12.779Zm2.509-140.113c-4.285.359-2.122-6.137-2.698-9.63-6.801-20.836-16.763-40.54-21.852-62.011-1.926-8.126-1.032-15.333,3.168-22.506,5.166-8.824,9.855-17.927,14.832-26.863,1.274-2.288,2.214-6.043,5.168-5.527,3.38.591,2.189,4.5,2.209,6.939.21,26.492.172,52.987.365,79.48.072,9.921.574,19.839.88,29.758.315,3.828,3.029,9.933-2.072,10.359Z"/>
  </g>
</svg>