<?xml version="1.0" encoding="UTF-8"?>
<svg id="b" data-name="Layer 2" xmlns="http://www.w3.org/2000/svg" width="333.156" height="430.604" viewBox="0 0 333.156 430.604">
  <g id="c" data-name="Layer 1">
    <path d="m120.794,14.831c10.002.218,16.289,9.565,15.414,23.586-.769,12.328-2.193,24.522-.14,36.963,4.482,27.164,24.246,46.464,51.354,51.269,3.837.681,7.734.487,11.659-.375,11.014-2.417,12.463-.966,13.654,9.87,3.923,35.693,12.1,70.32,28.645,102.411,9.293,18.026,19.561,35.571,29.933,53.01,5.013,8.429,6.549,16.42,4.403,26.286-7.88,36.237,5.275,66.891,27.003,94.902.541.697,1.506,1.064,2.047,1.762,7.864,10.146,10.387,12.68,8.371,16.09h20.009c.002-3.224.011-6.447.01-9.671-.015-44.81-.97-89.619-1.408-134.43-.552-56.41-.411-112.822-1.135-169.236-.444-34.654-1.345-69.355-.464-104.035.134-5.25.193-9.115-7.253-9.217-33.184-.451-66.361-1.521-99.539-2.252-59.686-1.315-119.353.437-179.035-.752C29.628.72,14.936.369.243,0c.253,1.476.423,2.979.491,4.503.117,2.607-.151,5.155-.734,7.607,40.267.594,80.529,1.844,120.794,2.721Zm127.025,184.938c-.491,1.24-2.033.828-3.052.108-4.086-2.889-3.426-7.156-3.214-11.286-.68-15.652-2.024-31.303-.227-46.968-1.566-1.286-1.458-2.489.179-3.616,4.098-28.292,18.766-51.749,34.554-74.562,5.349-7.729,7.94-7.134,12.992.974,6.598,10.587,6.318,11.854-3.549,19.734-12.364,9.875-21.271,22.617-26.062,37.384-7.069,21.781-11.843,44.208-12.248,67.313,2.305,3.517,2.072,7.268.627,10.919Zm28.647,76.918c-17.456-43.062-30.592-86.518-10.974-132.661.721-4.452-3.439-8.619-.767-13.184,3.331-17.876,15.797-29.711,27.827-41.746,3.028-3.029,6.379-1.447,8.129,1.858,5.325,10.059,10.33,20.211,12.083,31.739,1.033,6.79-1.158,7.96-7.244,6.498-11.783-2.832-23.64-4.668-34.99,1.827-4.226,10.908,4.857,4.503,7.84,6.035,1.175-.257,2.333-.654,3.518-.771,10.33-1.02,21.405-2.079,27.791,7.905,6.703,10.481,6.167,22.245.77,33.6-2.952,6.209-8.322,8.553-14.635,8.666-3.875.07-7.933-.732-8.995-5.69-.942-4.395.514-8.569,4.432-9.8,7.933-2.492,8.926-7.779,7.772-14.639-4.88-1.426-9.761-2.852-14.641-4.277-8.415,5.533-12.672,19.037-9.2,29.185,3.568,10.428,9.664,13.968,22.516,13.076,13.994-.972,14.912-.095,10.959,13.444-6.571,22.508-12.501,45.224-20.776,67.204-1.037,2.756-1.782,6.101-5.488,6.475-3.296.333-4.938-2.309-5.926-4.744Zm39.247,130.63c-.139,5.039-2.522,4.407-5.78,2.536-2.73-1.568-4.529-3.896-6.241-6.396-16.188-23.631-24.622-49.243-19.999-78.202.504-3.769-.13-10.133,3.894-9.769,3.783.342,4.412,6.713,4.308,11.196,9.974,15.09,18.646,30.728,22.323,48.759,2.162,10.599,1.788,21.213,1.496,31.875Zm2.024-53.61c-2.974.832-3.447-2.99-3.891-5.55-5.016-9.617-9.999-19.251-15.055-28.847-6.462-12.264-8.706-24.681-3.637-38.263,6.813-18.252,12.839-36.8,19.202-55.221.904.149,1.809.3,2.713.45v121.751c1.9,1.795,3.218,4.965.667,5.679Zm-1.018-254.631c-.881.187-2.419-.502-2.953-1.279-3.051-4.44-6.188-8.892-6.723-14.025.095-2.297-.109-4.438,1.983-5.106,2.552-.814,3.904,1.105,4.638,3.132,1.628,4.503,3.089,9.069,4.506,13.645.461,1.487.398,3.243-1.451,3.635Zm-3.096-66.862c.698,4.727.595,9.572.902,15.464-.265,4.011-.354,9.128-1.021,14.169-.44,3.328-1.931,6.437-5.742,7.288-3.709.829-6.561-.973-8.499-3.812-3.019-4.422-6.137-8.893-8.295-13.75-1.777-4.001-.75-8.252,2.69-11.453,3.95-3.675,8.06-7.184,11.904-10.965,5.086-5.003,7.295-2.129,8.061,3.06Zm-47.252-15.737c4.464-.262,8.954-.063,13.434-.063v.076c2.988,0,5.979-.078,8.964.022,2.848.096,6.14-.855,7.521,3.07,1.188,3.376-.823,5.693-2.598,7.954-8.884,11.316-26.129,8.478-31.585-5.192-1.591-3.985.798-5.664,4.264-5.867Zm-2.742,17.697c1.895,1.488,3.74,3.042,5.658,4.498,6.684,5.072,7.539,9.359,1.724,17.001-26.636,35.001-42.016,74.189-40.499,118.968.136,4.016.018,8.04.018,14.545-5.896-7.729-4.763-14.292-5.723-20.279-7.515-46.847,3.258-90.337,24.605-131.787,3.727-7.236,7.924-7.89,14.217-2.945Zm-120.647-16.537c.616-3.946,4.593-3.019,7.216-3.77,1.674-.479,4.002.041,3.523,2.561-.605,3.188-2.986,4.936-5.501,5.5-3.422-.191-5.689-1.403-5.238-4.291Zm5.138,18.751c6.211-12.354,16.54-20.666,31.709-20.334,7.837.171,15.68.03,23.521.03,0,.176,0,.352,0,.527,8.745,0,17.495-.198,26.233.049,11.098.314,16.602,9.605,11.33,19.471-4.122,7.716-8.775,15.181-11.583,23.489-2.146,6.347-5.165,6.176-9.993,2.792-7.725-5.414-14.482-12.408-25.468-11.676-17.997,1.199-31.482,23.207-23.556,39.453,3.111,6.376,12.287,11.234,18.929,9.578,7.18-1.79,9.928-7.324,10.545-14.136.185-2.045.232-4.654-2.24-5.39-2.741-.814-3.595,1.704-4.216,3.644-1.768,5.518-5.096,7.847-10.969,6.361-6.349-1.605-6.283-6.444-6.163-11.415.301-12.373,10.267-20.385,22.574-18.157,14.386,2.604,21.815,11.502,21.218,25.408-.763,17.733-11.343,30.938-25.951,32.059-20.678,1.588-34.38-9.099-43.667-26.203-9.762-17.978-11.547-37.062-2.252-55.551Z"/>
  </g>
</svg>