<?xml version="1.0" encoding="UTF-8"?>
<svg id="b" data-name="Layer 2" xmlns="http://www.w3.org/2000/svg" width="2522.186" height="856.393" viewBox="0 0 2522.186 856.393">
  <g id="c" data-name="Layer 1">
    <path d="m2521.22,620.266c.107-66.063.881-132.126.859-198.189-.015-44.81-.97-89.619-1.408-134.43-.552-56.41-.411-112.822-1.135-169.236-.445-34.655-1.345-69.355-.464-104.035.133-5.25.193-9.116-7.253-9.217-33.184-.452-66.361-1.521-99.539-2.252-59.686-1.316-119.353.437-179.035-.752-14.694-.292-29.387-.643-44.08-1.012.253,1.476.423,2.978.492,4.502.117,2.607-.151,5.155-.734,7.607,40.267.594,80.529,1.844,120.793,2.721,10.002.218,16.29,9.565,15.415,23.585-.769,12.329-2.193,24.523-.14,36.963,4.483,27.165,24.247,46.464,51.354,51.269,3.836.68,7.734.487,11.659-.375,11.014-2.417,12.463-.966,13.654,9.87,3.923,35.693,12.099,70.32,28.644,102.411,9.293,18.026,19.561,35.571,29.933,53.01,5.013,8.429,6.549,16.42,4.404,26.286-7.88,36.238,5.275,66.891,27.002,94.902.541.697,1.506,1.064,2.047,1.762,12.672,16.351,11.488,12.931-.238,25.268-27.156,28.569-36.665,62.163-27.559,100.724,1.545,6.545.611,12.228-3.015,18.063-11.911,19.168-24.601,37.991-34.743,58.083-12.139,24.05-19.988,49.882-23.21,76.834-1.138,9.521-4.396,18.762-3.578,28.548.438,5.249-3.578,4.575-6.813,4.562-12.06-.049-23.984.977-35.269,5.536-22.2,8.969-41.624,39.753-36.739,68.352,1.527,8.943,2.203,17.976,1.228,27.051-.808,7.521-3.911,11.982-12.593,11.887-60.311-.66-120.632.276-180.941-1.354-6.979-.188-13.962-.239-20.947-.232v-.335H580.424v-.771c-48.837-.163-97.672.337-146.507.771h-16.615v.142c-30.214.252-60.429.45-90.644.411-37.665-.048-75.364,1.22-113.055,1.361-11.905.044-13.934-1.592-16.356-13.277-1.816-8.758-.183-17.488.471-26.164,1.568-20.8-3.259-39.656-16.634-55.723-10.43-12.529-24.002-19.668-40.565-20.766-4.781-.317-8.564,2.519-13.066,3.065-5.688.69-8.523-.989-8.709-7.022-1.825-59.167-25.757-110.327-57.863-158.379-5.777-8.646-7.606-16.035-3.978-26.73,7.469-22.012,1.721-43.518-7.735-63.996-7.104-15.385-14.944-30.272-28.769-41.06-5.067-3.954-2.408-7.605,1.381-11.166,14.011-13.171,25.778-27.998,31.74-46.621,5.774-18.034,9.506-36.458,2.94-54.996-4.014-11.331-.698-20.128,5.509-29.472,29.039-43.71,50.26-90.604,56.947-143.295.83-6.534-2.257-14.986,2.408-19.136,4.704-4.183,12.584.46,19.127.378,25.563-.324,44.105-16.473,53.566-41.39,5.874-15.47,3.886-31.518,2.759-47.463-.232-3.292-.607-6.615-.396-9.89.487-7.531,4.442-11.133,12.27-11.275,15.369-.279,30.724-1.396,46.093-1.646,22.205-.362,44.41-.676,66.616-.981-.202-1.291-.343-2.598-.402-3.918-.15-3.351.313-6.587,1.274-9.636C219.972.178,117.713.258,15.49,3.896c-11.12.396-13.116,2.154-13.198,13.406-.18,24.743-.127,49.487-.367,74.229-.6,62.171.013,124.345-1.101,186.521-.913,51-.186,102.029-.186,153.045-.175,0-.351,0-.526,0,0,108.056,0,216.112,0,324.168,0,30.485.132,60.972-.112,91.455-.052,6.458,1.66,9.018,8.625,8.978,42.523-.247,85.054.374,127.573-.14,82.006-.989,164.002-2.895,246.009-3.757,11.698-.123,23.396-.182,35.095-.22v1.062h1691.189c57.745,1.226,115.499,2.738,173.265,1.812,26.224-.42,52.434.643,78.612,1.178,50.369,1.03,100.703.885,151.059.305,7.026-.081,9.616-2.569,9.578-9.56-.234-43.413.135-86.818,1.017-130.23.649-31.942-.854-63.922-.802-95.884ZM85.733,680.875c1.287-6.594-.632-13.081-.654-19.632-2.633-4.96-1.872-9.925-.38-16.087,4.708,3.987,5.363,8.419,5.612,13.03,2.378,19.409,3.843,38.732-.049,58.228-5.614,28.117-20.24,51.963-34.7,75.934-2.386,3.956-5.559,4.248-8.623.252-2.936-3.829-5.849-7.627-7.669-12.179-1.437-3.592-.952-6.108,2.529-8.403,21.679-14.292,33.056-35.353,37.576-60.191,1.447-7.954,5.537-15.211,5.427-23.446-1.894-2.776-1.842-5.311.932-7.506Zm-54.306,79.542c-6.932-9.106-9.895-19.825-12.445-30.659-1.316-5.588,2.609-5.751,6.57-5.286,8.35.981,16.654,2.8,25.131,1.297,2.25-3.765,6.132-3.788,9.808-4.283,6.144-.968,8.081,1.646,5.435,7.082-6.261,12.86-15.462,23.613-25.406,33.688-3.226,3.268-6.49,1.581-9.092-1.838Zm-9.306-315.46c2.349,1.24,5.168,2.687,6.372,4.829,10.764,19.156,22.62,37.973,22.478,61.159,1.602,1.203,1.595,2.408.007,3.617-.478,5.466-.957,10.933-1.435,16.399,1.032,1.329,1.049,2.688-.628,3.246-1.98.659-2.945-.884-3.716-2.427-19.535-23.854-30.693-50.825-30.832-82.019-.029-6.468,2.727-7.456,7.753-4.804Zm-8.12-91.612c-1.909-.394-1.117-3.513.285-5.295v-122.815c3.228-1.45,3.874-.206,4.229.838,6.99,20.509,15.405,40.5,21.632,61.303,3.605,12.046,1.263,22.356-5.237,32.575-5.812,9.137-11.007,18.667-16.475,28.023-.58,2.618-1.344,6.01-4.434,5.372Zm4.742,57.267c-.519,1.149-1.34,2.375-2.595,1.522-.699-.475-.668-2.026-.966-3.093-1.954-30.331,6.58-57.565,24.273-82.067,1.572-2.177,3.316-4.288,5.277-6.11,2.683-2.494,4.163-1.541,4.435,1.982,2.604,33.685-4.794,63.887-30.424,87.765Zm57.172-212.151c-3.062,25.152-10.087,49.538-18.224,73.518-1.446,4.263-2.714,10.786-8.245,10.537-5.087-.229-5.424-6.712-6.571-10.796-5.778-20.571-14.132-40.368-18.377-61.387-.595-2.946-.93-5.946-1.354-8.926-.824-5.793,1.485-8.646,7.523-8,.896.096,1.805.063,2.708.086,21.058.528,26.239-4.966,25.207-26.727-5.675-3.12-3.524-8.425-3.651-13.094-5.938-6.512-12.741-3.504-18.85-.963-5.625,2.339-2.529,7.68-2.298,11.879,2.386.862,3.996,2.495,4.845,4.884,6.27,1.042,7.703,5.429,6.633,10.701-1.04,5.128-5.671,4.668-9.514,4.674-8.835.013-14.679-3.861-17.25-12.787-4.833-16.788.438-31.085,13.609-35.697,17.809-6.235,32.524.547,39.739,17.563,6.155,14.517,5.875,29.684,4.068,44.535ZM19.743,123c.971-11.271,4.828-21.099,9.257-30.658,2.613-5.64,7.346-7.353,12.547-3.234,12.014,9.513,21.333,21.021,24.99,36.344,1.02,4.271-.552,6.014-4.675,4.02-12.246-5.921-24.264-4.674-36.635-.07-6.991,2.602-4.754-3.723-5.484-6.402Zm71.993,66.514c1.352,5.168-.833,8.934-5.236,13.431-1.314-7.62-2.494-13.809.828-19.914-1.142-7.23-2.284-14.46-3.427-21.69-1.633-1.221-1.776-2.744-.904-4.472-4.852-20.905-8.264-42.336-22.528-59.708-5.033-6.13-10.965-11.174-17.667-15.291-6.303-3.872-8.025-7.577-2.684-14.296,10.772-13.547,10.963-14.213,20.477.396,8.797,13.509,18.68,26.58,23.259,42.466,3.888,2.112,6.375,4.699,3.119,9.229,1.733,9.04,3.467,18.08,5.201,27.119,1.72,1.178,1.764,2.407.112,3.688.356,13.021,1.793,26.058-.549,39.041ZM180.601,17.415c4.003-4.062,8.083-2.206,13.538.908-4.872,2.649-7.84,7.029-12.919,3.783-1.624-1.038-2.121-3.167-.618-4.691Zm-86.362,1.861c8.582-4.482,17.719-3.444,26.538-4.124,12.572-.968,25.345-.975,37.912.065,17.465,1.445,24.067,15.091,29.169,29.301,10.229,28.49-10.161,65.729-39.662,72.63-13.269,3.104-24.024-1.259-30.118-13.33-2.597-5.143-4.377-10.525-5.711-16.137-4.482-18.851,17.164-32.849,31.578-29.276,6.958,1.724,10.889,7.803,11.535,14.462.636,6.559,2.972,14.822-6.711,17.958-1.584,2.486-3.833,3.765-6.519,2.229-2.806-1.604-2.371-4.255-1.163-6.807-1.68-2.34.709-9.419-6.367-5.475,1.073,2.217,1.035,4.328-.601,6.286.018,1.196.036,2.392.054,3.588,1.609,1.816,1.785,3.804.715,5.943.033.39.244.613.631.668,2.322-1.106,4.395-1.027,6.006,1.259,14.014,1.693,22.131-5.014,22.154-18.996.034-20.425-15.455-37.321-39.332-25.725-1.612.783-3.234,1.552-4.802,2.417-4.646,2.561-9.08,9.692-13.07,7.862-4.009-1.838-5.603-9.207-7.986-14.279-3.075-6.543-6.005-13.163-8.766-19.844-2.032-4.918-.778-7.911,4.516-10.676Zm-4.867,28.658c16.283,35.659,25.082,72.792,19.353,112.311-.768,5.298-2.201,10.5-3.327,15.747.269,4.248-.707,8.108-3.758,12.503-2.931-4.429-2.411-8.234-1.245-12.125-.096-14.056-.718-28.036-2.433-42.045-3.893-31.795-20.268-57.361-39.31-81.691-3.604-4.606-3.32-7.505,1.29-11.196,16.899-13.531,20.446-13.177,29.43,6.497Zm-56.311-27.918c1.838-4.364,7.631-1.067,9.653-1.629,8.209-.676,14.468-1.307,20.743-1.648,2.241-.122,5.311-1.205,6.493,1.498,1.301,2.975-1.42,4.886-3.275,6.751-3.832,3.855-8.363,6.758-13.006,9.548-4.688,2.817-8.457,2.167-11.677-2.217-.707-.963-1.729-1.715-2.339-2.725-2.077-3.433-8.311-5.499-6.592-9.579Zm-17.092,27.93c.695-5.333,1.376-10.667,2.089-15.998.88-6.588,5.083-6.297,8.934-3.413,5.709,4.277,10.956,9.231,14.942,15.309,1.809,2.758,2.127,5.307-.019,8.201-3.38,4.559-6.36,9.415-9.679,14.022-2.016,2.797-4.594,4.515-8.439,3.828-4.408-.788-5.6-4.113-6.578-7.614-1.305-4.676-1.284-9.479-1.25-14.334Zm-4.39,48.504c1.496-5.737,2.836-11.559,4.958-17.07.964-2.504,3.892-3.898,6.829-2.312,2.538,1.37,3.868,3.387,3.09,6.653-1.001,4.204-10.325,15.519-12.979,15.222-1.442-.219-2.207-1.307-1.898-2.493Zm3.829,495.526c-.404-28.68.013-57.38-2.05-86.021-.182-4.111-.363-8.223-.61-13.816,4.942,4.363,3.265,9.734,5.578,13.457,5.675,9.578,11.391,19.132,17.013,28.741,5.333,9.115,7.647,17.994,4.148,29.116-7.126,22.649-15.365,45.023-20.321,70.653-5.094-14.37-3.442-27.148-3.405-39.77-.118-.787-.235-1.573-.354-2.36Zm1.204,92.059c1.571-9.927,11.291-18.029,20.968-17.674,4.604.169,7.405,2.045,7.838,6.854.389,4.338-.15,7.61-5.695,8.225-3.964.44-7.792,2.818-7.306,7.398.551,5.188,2.911,10.182,8.522,11.67,3.819,1.013,7.629,1.762,11.144-2.71,6.794-8.646,8.123-17.947,5.472-28.015-2.524-9.587-10.319-11.705-18.971-12.024-18.189-.673-18.37-.71-13.664-18.271,5.141-19.184,10.659-38.267,16.021-57.392.244-.87.522-1.735.866-2.569,1.598-3.875,2.75-9.236,6.947-9.877,5.066-.774,6.072,5.181,7.674,8.683,12.141,26.551,19.666,54.274,20.077,83.622,1.07,14.262-1.595,27.702-8.534,40.164-7.957,14.289-19.486,18.373-35.183,12.717-11.836-4.264-18.399-16.761-16.177-30.801Zm3.815,71.203c1.48,4.959,2.651,8.808,3.775,12.67.837,2.875-.407,4.68-3.169,5.299-3.046.683-4.733-1.108-4.628-3.86.167-4.416-1.247-9.399,4.021-14.108Zm-1.462,72.016c-2.117-.958-2.479-3.316-2.472-5.463.031-9.615-.187-19.249.382-28.835.237-4.003,1.391-8.611,6.122-10.115,4.853-1.543,7.703,1.964,10.709,4.985,4.733,4.755,8.849,9.785,9.301,16.875,1.024,2.322-.409,3.11-2.266,3.632-5.229,5.39-10.415,10.823-15.716,16.142-1.629,1.635-3.297,4.031-6.061,2.78Zm49.428,7.966c-2.611,7.638-12.723,2.96-18.671,4.268-5.562-.351-10.397-.264-15.08-1.064-4.433-.758-6.431-2.969-2.467-7.259,3.852-4.17,7.392-8.645,10.874-13.136,3.829-4.939,7.583-5.942,12.571-1.28,5.76,5.383,15.718,9.86,12.773,18.473Zm15.891-24.248c-2.453,4.694-4.061,13.052-12.706,8.735-12.232-6.109-15.693-14.386-9.479-22.828,13.455-18.277,25.271-37.315,31.985-59.242,3.462-11.303,6.239-22.617,5.481-34.544-3.878-1.941-3.855-3.829.077-5.665,1.443-9.568-2.972-18.896-1.166-28.478-3.62-7.089-1.628-14.498-.875-21.975,4.079,6.645,7.364,13.452,5.579,21.662,4.898,13.436,6.975,27.403,7.821,41.602,1.45,1.206,1.347,2.396-.037,3.572.394,34.938-10.786,66.745-26.681,97.162Zm57.011,29.423c-2.105.091-4.217.012-6.326.012-11.774-.336-23.428-1.719-34.502-5.947-9.975-3.808-11.872-8.733-7.547-18.235,3.369-7.402,6.886-14.738,10.195-22.166,2.887-6.482,6.427-8.302,12.061-2.625,7.015,7.069,15.893,9.299,25.605,9.319,11.689.024,20.677-7.591,22.415-19.31,2.094-14.125-3.566-26.39-14.409-29.161-4.276-1.093-10.067-2.2-13.131,3.023-2.86,4.876-1.825,10.528-1.043,15.772.369,2.471,2.789,1.852,3.931.042,1.273-2.018,2.234-4.261,3.118-6.491.948-2.393,2.133-4.338,5.033-4.417,2.983-.081,5.085,1.149,6.587,3.833,3.55,6.343,2.115,23.068-3.724,27.221-6.968,4.956-15.148,3.109-22.243-.432-14.658-7.315-19.003-22.491-12.022-39.772,6.896-17.071,27.607-22.334,46.472-11.809,22.024,12.288,36.112,49.708,25.225,72.113-8.849,18.21-24.898,28.127-45.695,29.029Zm43.25,1.972c-2.963-.72-7.608,1.102-7.754-3.797-.142-4.746,3.527-7.902,7.9-8.322,5.083-.489,6.105,4.594,6.663,8.027.917,5.639-4.17,3.247-6.81,4.092Zm2322.116-487.518c-2.973.832-3.447-2.991-3.89-5.55-5.016-9.617-9.999-19.25-15.055-28.846-6.462-12.264-8.706-24.681-3.637-38.263,6.813-18.252,12.838-36.8,19.202-55.221.904.15,1.809.3,2.713.45v121.751c1.9,1.794,3.218,4.964.667,5.679Zm-1.018-254.631c-.881.187-2.418-.501-2.953-1.279-3.051-4.441-6.189-8.892-6.723-14.026.095-2.296-.109-4.438,1.984-5.106,2.551-.815,3.904,1.105,4.637,3.132,1.628,4.503,3.089,9.069,4.506,13.644.46,1.487.398,3.244-1.452,3.635Zm-3.095-66.862c.698,4.727.595,9.572.902,15.464-.265,4.01-.355,9.127-1.021,14.168-.44,3.328-1.931,6.437-5.742,7.289-3.709.829-6.561-.973-8.499-3.812-3.019-4.422-6.137-8.893-8.295-13.75-1.777-4-.75-8.252,2.69-11.453,3.95-3.675,8.06-7.184,11.904-10.965,5.086-5.003,7.295-2.129,8.061,3.059Zm-47.252-15.737c4.464-.262,8.954-.064,13.434-.064v.077c2.988,0,5.979-.078,8.963.022,2.848.096,6.14-.855,7.521,3.07,1.188,3.375-.823,5.693-2.598,7.954-8.883,11.316-26.128,8.477-31.585-5.193-1.591-3.985.798-5.664,4.264-5.867Zm-123.39,1.16c.616-3.946,4.593-3.019,7.216-3.77,1.673-.479,4.002.041,3.523,2.561-.606,3.188-2.987,4.936-5.501,5.5-3.422-.191-5.689-1.403-5.238-4.291Zm77.008,68.446c-.763,17.733-11.343,30.937-25.952,32.059-20.677,1.588-34.379-9.099-43.667-26.204-9.761-17.977-11.547-37.062-2.251-55.55,6.21-12.354,16.54-20.667,31.709-20.334,7.836.171,15.68.03,23.52.03,0,.176,0,.352,0,.527,8.745,0,17.496-.198,26.234.049,11.098.314,16.601,9.605,11.33,19.471-4.122,7.716-8.776,15.181-11.583,23.489-2.145,6.347-5.165,6.176-9.993,2.792-7.725-5.414-14.483-12.408-25.468-11.676-17.998,1.199-31.482,23.207-23.556,39.453,3.111,6.376,12.287,11.235,18.929,9.579,7.179-1.791,9.927-7.324,10.544-14.136.185-2.045.233-4.654-2.24-5.389-2.741-.814-3.594,1.704-4.215,3.644-1.768,5.518-5.096,7.847-10.969,6.361-6.349-1.606-6.284-6.444-6.163-11.416.301-12.373,10.266-20.385,22.574-18.157,14.386,2.604,21.816,11.502,21.218,25.408Zm10.54,103.103c-5.896-7.729-4.763-14.292-5.723-20.279-7.515-46.847,3.258-90.337,24.605-131.787,3.727-7.236,7.924-7.89,14.217-2.946,1.895,1.489,3.74,3.042,5.659,4.498,6.684,5.073,7.539,9.359,1.724,17.001-26.636,35.001-42.016,74.19-40.5,118.968.136,4.016.018,8.04.018,14.545Zm17.288,10.583c-.491,1.241-2.034.829-3.052.108-4.085-2.888-3.425-7.156-3.213-11.286-.68-15.653-2.025-31.303-.227-46.968-1.567-1.286-1.458-2.489.179-3.616,4.098-28.292,18.765-51.75,34.553-74.563,5.349-7.729,7.941-7.133,12.993.974,6.598,10.587,6.318,11.854-3.549,19.735-12.364,9.875-21.27,22.617-26.062,37.384-7.069,21.781-11.842,44.208-12.248,67.313,2.305,3.516,2.073,7.267.627,10.918Zm28.647,76.918c-17.456-43.062-30.592-86.518-10.974-132.662.72-4.452-3.44-8.619-.767-13.184,3.332-17.875,15.797-29.71,27.828-41.746,3.028-3.029,6.379-1.447,8.129,1.859,5.325,10.058,10.33,20.211,12.083,31.739,1.033,6.79-1.159,7.96-7.245,6.498-11.783-2.832-23.639-4.667-34.99,1.827-4.225,10.908,4.858,4.503,7.84,6.036,1.175-.257,2.333-.655,3.518-.771,10.33-1.02,21.405-2.08,27.791,7.905,6.703,10.481,6.167,22.245.769,33.599-2.952,6.209-8.322,8.553-14.635,8.667-3.875.07-7.932-.732-8.995-5.691-.942-4.394.514-8.569,4.432-9.8,7.933-2.492,8.926-7.779,7.772-14.638-4.88-1.426-9.76-2.852-14.64-4.278-8.415,5.533-12.672,19.037-9.2,29.185,3.568,10.428,9.664,13.968,22.516,13.076,13.994-.971,14.912-.095,10.959,13.444-6.571,22.508-12.501,45.224-20.776,67.204-1.038,2.756-1.782,6.101-5.489,6.475-3.296.333-4.938-2.309-5.925-4.744Zm33.466,133.166c-2.73-1.568-4.529-3.896-6.241-6.395-16.187-23.631-24.622-49.243-19.999-78.202.503-3.769-.13-10.133,3.893-9.769,3.783.342,4.412,6.713,4.308,11.197,9.974,15.089,18.646,30.727,22.324,48.758,2.162,10.599,1.788,21.213,1.496,31.875-.138,5.04-2.522,4.407-5.78,2.536Zm-25.6,79.904c4.833-16.082,13.994-30.218,24.861-43.083,1.454-1.721,2.896-4.765,5.57-3.386,1.354.698,2.149,3.657,2.144,5.59-.015,5.085-.606,10.169-.968,15.253,2.055,2.346,1.521,4.226-1.032,5.742-.265,2.916-.529,5.832-.793,8.749,2.008,2.533.013,3.087-1.833,3.715-5.423,19.201-15.038,36.362-26.387,54.719-6.341-16.618-6.093-32.224-1.562-47.3Zm-28.785,178.827c3.896-32.259,6.881-64.759,22.64-94.221.928-1.735.95-4.608,3.738-4.46,2.345.124,3.544,2.234,4.274,4.23,9.325,25.479,19.246,50.795,22.443,78.037.688,5.86-1.413,8.624-7.753,6.976-9.42-2.447-17.357-.487-22.612,8.424-5.795,9.827-6.678,19.931-1.126,30.11,2.843,5.214,7.85,6.25,13.297,5.476,4.684-.666,7.682-3.569,8.634-8.087,1.122-5.318.554-10.378-4.82-13.407-4.338-2.444-9.474-4.979-6.472-10.868,3.062-6.007,8.794-3.596,13.693-2.143,1.706.506,3.469,1.245,4.859,2.324,10.312,8.005,8.629,19.467,7.34,30.022-1.058,8.666-7.569,14.539-16.057,16.576-19.244,4.617-31.483-2.551-37.845-21.294-3.043-8.967-4.581-18.121-4.232-27.695Zm56.578,62.292c-2.559,8.917-3.264,20.277-10.412,29.494-3.857,4.974-8.116,6.176-12.877,1.557-10.018-9.72-18.11-20.802-23.163-33.941-.67-1.744-1.149-3.608.018-5.156,1.606-2.131,3.308-.166,4.701.489,11.562,5.434,23.304,4.532,35.031.958,4.816-1.467,7.813-1.371,6.702,6.6Zm-164.657,110.087c-2.608-.806-6.919.622-6.618-4.051.229-3.559,3.567-4.55,6.681-4.846,3.642-.346,5.941,1.555,5.906,5.145-.037,3.841-3.24,3.625-5.969,3.752Zm89.309-7.121c-22.607,10.153-45.878,11.129-68.473,1.579-17.851-7.545-25.58-23.805-25.872-42.413-.323-20.583,13.437-46.208,35.033-56.185,20.744-9.583,40.297,2.806,42.042,25.57.971,12.664-1.121,23.389-13.745,29.557-12.608,6.161-28.655-1.348-31.068-14.62-1.015-5.582.505-10.25,5.322-13.305,5.319-3.373,10.3-4.046,12.369,3.697.653,2.443.835,5.204,4.277,4.184,2.893-.858,4.634-3.38,3.844-6.317-1.81-6.732-4.527-12.827-13.441-11.26-3.746.944-7.492,1.889-11.237,2.833-7.923,8.444-9.582,24.911-3.456,34.325,6.177,9.494,17.968,12.562,30.54,8.231,5.817-2.004,10.823-5.29,15.589-8.979,4.944-3.829,8.132-4.011,10.746,2.769,3.573,9.267,7.952,18.236,12.269,27.196,3,6.228,1.375,10.393-4.739,13.139Zm10.442-18.746c-10.658-21.458-17.681-44.146-21.838-67.616-3.205-18.096-3.716-36.499-2.69-54.892.424-5.988.949-11.919,2.092-17.871,1.481-7.707,4.731-13.429,12.265-16.273,4.283-1.617,5.832-5.879,8.629-8.943,1.315-1.44,2.595-3.973,5.043-2.775,2.292,1.12,1.55,3.754,1.296,5.708-1.121,8.616-2.45,17.205-3.704,25.803,2.265,25.454,4.306,51.165,20.633,72.358,6.27,8.139,11.781,17.529,21.468,22.498,4.828,2.476,4.606,5.663,2.323,9.567-.604,1.033-1.469,1.909-2.117,2.919-8.473,13.227-9.409,13.437-18.184-.401-11.57-18.247-23.063-36.479-28.212-58.066-3.041-12.75-3.7-25.521-4.424-38.405-5.119-.419-5.58,2.822-5.838,6.834-.475,7.366,1.578,14.873-1.18,22.107,3.718,26.102,16.783,48.043,30.923,69.499,1.49,2.261,3.241,4.348,4.791,6.571,8.438,12.108,5.366,21.628-8.752,26.786-5.737,2.096-9.773.136-12.527-5.407Zm48.399,24.687c-4.208.052-8.418.01-14.965.01-2.77-.173-7.977.059-12.935-.945-6.833-1.384-8.052-6.261-2.802-10.886,5.158-4.542,11.271-7.915,15.774-13.342,1.622-1.954,4.017-1.882,5.973.72,4.3,5.721,9.23,10.993,13.232,16.903,2.943,4.345,1.404,7.471-4.278,7.541Zm17.201-10.654c-.842-.519-1.95-1.022-2.836-1.784-2.277-1.958-4.448-4.038-6.674-6.055-15.256-13.825-15.653-21.229-2.09-36.356,2.806-3.129,5.663-3.263,8.499-.457,3.984,3.942,6.368,8.686,6.257,14.481-.162,8.416-.192,16.835-.446,25.248-.055,1.821.783,4.445-2.709,4.923Zm1.101-53.932c-1.965.873-4.366.692-5.765-1.146-3.645-4.792.03-9.072,1.485-13.362.925-2.727,2.526-6.341,5.933-5.61,3.354.719,2.371,4.909,3.74,7.339-2.566,4.214.24,10.275-5.393,12.779Zm2.508-140.113c-4.285.359-2.122-6.137-2.698-9.63-6.801-20.836-16.763-40.541-21.852-62.011-1.926-8.126-1.033-15.333,3.167-22.506,5.166-8.824,9.855-17.927,14.832-26.863,1.274-2.288,2.214-6.042,5.168-5.527,3.379.59,2.189,4.5,2.209,6.939.21,26.493.171,52.988.365,79.481.072,9.921.574,19.838.879,29.757.316,3.828,3.03,9.933-2.072,10.36Z"/>
  </g>
</svg>