<?xml version="1.0" encoding="utf-8"?>
<!-- Generator: Adobe Illustrator 27.7.0, SVG Export Plug-In . SVG Version: 6.00 Build 0)  -->
<svg version="1.1" id="b" xmlns="http://www.w3.org/2000/svg" xmlns:xlink="http://www.w3.org/1999/xlink" x="0px" y="0px"
	 viewBox="0 0 333.2 430.6" style="enable-background:new 0 0 333.2 430.6;" xml:space="preserve">
<style type="text/css">
	.st0{opacity:0.5;}
	.st1{fill:#FFFFFF;}
</style>
<g id="c" class="st0">
	<path class="st1" d="M120.8,14.8c10,0.2,16.3,9.6,15.4,23.6c-0.8,12.3-2.2,24.5-0.1,37c4.5,27.2,24.2,46.5,51.4,51.3
		c3.8,0.7,7.7,0.5,11.7-0.4c11-2.4,12.5-1,13.7,9.9c3.9,35.7,12.1,70.3,28.6,102.4c9.3,18,19.6,35.6,29.9,53
		c5,8.4,6.5,16.4,4.4,26.3c-7.9,36.2,5.3,66.9,27,94.9c0.5,0.7,1.5,1.1,2,1.8c7.9,10.1,10.4,12.7,8.4,16.1h20c0-3.2,0-6.4,0-9.7
		c0-44.8-1-89.6-1.4-134.4c-0.6-56.4-0.4-112.8-1.1-169.2c-0.4-34.7-1.3-69.4-0.5-104c0.1-5.2,0.2-9.1-7.3-9.2
		c-33.2-0.5-66.4-1.5-99.5-2.3C163.7,0.4,104,2.2,44.3,1C29.6,0.7,14.9,0.4,0.2,0c0.3,1.5,0.4,3,0.5,4.5C0.9,7.1,0.6,9.7,0,12.1
		C40.3,12.7,80.5,14,120.8,14.8z M247.8,199.8c-0.5,1.2-2,0.8-3.1,0.1c-4.1-2.9-3.4-7.2-3.2-11.3c-0.7-15.7-2-31.3-0.2-47
		c-1.6-1.3-1.5-2.5,0.2-3.6c4.1-28.3,18.8-51.7,34.6-74.6c5.3-7.7,7.9-7.1,13,1c6.6,10.6,6.3,11.9-3.5,19.7
		c-12.4,9.9-21.3,22.6-26.1,37.4c-7.1,21.8-11.8,44.2-12.2,67.3C249.5,192.4,249.3,196.1,247.8,199.8L247.8,199.8z M276.5,276.7
		c-17.5-43.1-30.6-86.5-11-132.7c0.7-4.5-3.4-8.6-0.8-13.2c3.3-17.9,15.8-29.7,27.8-41.7c3-3,6.4-1.4,8.1,1.9
		c5.3,10.1,10.3,20.2,12.1,31.7c1,6.8-1.2,8-7.2,6.5c-11.8-2.8-23.6-4.7-35,1.8c-4.2,10.9,4.9,4.5,7.8,6c1.2-0.3,2.3-0.7,3.5-0.8
		c10.3-1,21.4-2.1,27.8,7.9c6.7,10.5,6.2,22.2,0.8,33.6c-3,6.2-8.3,8.6-14.6,8.7c-3.9,0.1-7.9-0.7-9-5.7c-0.9-4.4,0.5-8.6,4.4-9.8
		c7.9-2.5,8.9-7.8,7.8-14.6c-4.9-1.4-9.8-2.9-14.6-4.3c-8.4,5.5-12.7,19-9.2,29.2c3.6,10.4,9.7,14,22.5,13.1c14-1,14.9-0.1,11,13.4
		c-6.6,22.5-12.5,45.2-20.8,67.2c-1,2.8-1.8,6.1-5.5,6.5C279.1,281.8,277.5,279.1,276.5,276.7L276.5,276.7z M315.7,407.3
		c-0.1,5-2.5,4.4-5.8,2.5c-2.7-1.6-4.5-3.9-6.2-6.4c-16.2-23.6-24.6-49.2-20-78.2c0.5-3.8-0.1-10.1,3.9-9.8
		c3.8,0.3,4.4,6.7,4.3,11.2c10,15.1,18.6,30.7,22.3,48.8C316.4,386,316,396.7,315.7,407.3L315.7,407.3z M317.7,353.7
		c-3,0.8-3.4-3-3.9-5.5c-5-9.6-10-19.3-15.1-28.8c-6.5-12.3-8.7-24.7-3.6-38.3c6.8-18.3,12.8-36.8,19.2-55.2
		c0.9,0.1,1.8,0.3,2.7,0.4V348C319,349.8,320.3,353,317.7,353.7L317.7,353.7z M316.7,99.1c-0.9,0.2-2.4-0.5-3-1.3
		c-3.1-4.4-6.2-8.9-6.7-14c0.1-2.3-0.1-4.4,2-5.1c2.6-0.8,3.9,1.1,4.6,3.1c1.6,4.5,3.1,9.1,4.5,13.6
		C318.6,96.9,318.6,98.7,316.7,99.1L316.7,99.1z M313.6,32.2c0.7,4.7,0.6,9.6,0.9,15.5c-0.3,4-0.4,9.1-1,14.2
		c-0.4,3.3-1.9,6.4-5.7,7.3c-3.7,0.8-6.6-1-8.5-3.8c-3-4.4-6.1-8.9-8.3-13.8c-1.8-4-0.8-8.3,2.7-11.5c4-3.7,8.1-7.2,11.9-11
		C310.6,24.2,312.9,27,313.6,32.2L313.6,32.2z M266.4,16.5c4.5-0.3,9-0.1,13.4-0.1v0.1c3,0,6-0.1,9,0c2.8,0.1,6.1-0.9,7.5,3.1
		c1.2,3.4-0.8,5.7-2.6,8c-8.9,11.3-26.1,8.5-31.6-5.2C260.5,18.4,262.9,16.7,266.4,16.5z M263.6,34.2c1.9,1.5,3.7,3,5.7,4.5
		c6.7,5.1,7.5,9.4,1.7,17c-26.6,35-42,74.2-40.5,119c0.1,4,0,8,0,14.5c-5.9-7.7-4.8-14.3-5.7-20.3c-7.5-46.8,3.3-90.3,24.6-131.8
		C253.1,29.9,257.3,29.2,263.6,34.2L263.6,34.2z M143,17.6c0.6-3.9,4.6-3,7.2-3.8c1.7-0.5,4,0,3.5,2.6c-0.6,3.2-3,4.9-5.5,5.5
		C144.8,21.7,142.5,20.5,143,17.6L143,17.6z M148.1,36.4c6.2-12.4,16.5-20.7,31.7-20.3c7.8,0.2,15.7,0,23.5,0c0,0.2,0,0.4,0,0.5
		c8.7,0,17.5-0.2,26.2,0c11.1,0.3,16.6,9.6,11.3,19.5c-4.1,7.7-8.8,15.2-11.6,23.5c-2.1,6.3-5.2,6.2-10,2.8
		c-7.7-5.4-14.5-12.4-25.5-11.7c-18,1.2-31.5,23.2-23.6,39.5c3.1,6.4,12.3,11.2,18.9,9.6c7.2-1.8,9.9-7.3,10.5-14.1
		c0.2-2,0.2-4.7-2.2-5.4c-2.7-0.8-3.6,1.7-4.2,3.6c-1.8,5.5-5.1,7.8-11,6.4c-6.3-1.6-6.3-6.4-6.2-11.4c0.3-12.4,10.3-20.4,22.6-18.2
		c14.4,2.6,21.8,11.5,21.2,25.4c-0.8,17.7-11.3,30.9-26,32.1c-20.7,1.6-34.4-9.1-43.7-26.2C140.6,74,138.8,54.9,148.1,36.4
		L148.1,36.4z"/>
</g>
</svg>
