<?xml version="1.0" encoding="UTF-8"?>
<svg id="b" data-name="Layer 2" xmlns="http://www.w3.org/2000/svg" width="42.733" height="47.448" viewBox="0 0 42.733 47.448">
  <defs>
    <style>
      .d {
        fill: #070606;
      }
    </style>
  </defs>
  <g id="c" data-name="Layer 1">
    <path class="d" d="m21.375,29.007c1.554-.542,1.73-1.736,2.147-2.762.629-1.546,1.945-1.833,3.249-1.294,1.212.501,1.095,1.666.568,2.741-1.727,3.519-.892,8.301,1.957,11.396,2.962,3.219,6.301,5.924,10.664,7.708-3.424,1.571-6.197-.083-9.054-.898-6.555-1.869-11.753-5.848-16.102-10.885-2.686-3.111-7.172-4.312-12.6-2.307C.948,33.168-.027,33.396,0,31.428c.033-2.34.355-4.856,2.5-5.79,2.375-1.034,5.084-.457,7.351,1.092.694.475,1.282,1.105,2.154,1.87,1.106-2.951-.703-4.977-1.397-7.216-1.213-3.912-2.314-7.737-.947-11.969C11.392,4.053,18.357.413,23.314.055c5.921-.427,10.483,1.597,13.708,6.697,1.269,2.007,2.795,3.89,4.943,5.132.366.211.802.763.767,1.113-.08.807-.868.507-1.398.599-2.497.437-4.23-.244-4.841-2.982-.309-1.384-.847-2.707-1.732-3.91-.422-.574-.803-.884-1.354-.709-.85.27-.288.797-.172,1.339.341,1.593.733,3.227-.734,4.601-.696.652-1.466.576-2.171.385-.505-.137-.474-.894-.289-1.291,1.185-2.546.636-5.027-1.408-6.486-2.615-1.866-5.816-1.299-8.585-.019-2.636,1.218-2.488,1.812.724,4.439-2.411,1.141-5.226,1.378-6.601,4.146-1.003,2.02-.685,3.898-.309,5.848.113.585.506,1.242,1.432,1.142.868-.094.964-.594,1.213-1.313,1.184-3.431,4.253-4.465,7.331-5.093,2.817-.574,4.969.984,6.692,3.126.38.473.715.991.472,1.598-.292.728-.997.399-1.527.436-5.9.421-8.747,3.863-8.099,10.151Z"/>
  </g>
</svg>