<?xml version="1.0" encoding="utf-8"?>
<!-- Generator: Adobe Illustrator 27.7.0, SVG Export Plug-In . SVG Version: 6.00 Build 0)  -->
<svg version="1.1" id="b" xmlns="http://www.w3.org/2000/svg" xmlns:xlink="http://www.w3.org/1999/xlink" x="0px" y="0px"
	 viewBox="0 0 51.9 16.9" style="enable-background:new 0 0 51.9 16.9;" xml:space="preserve">
<g id="c">
	<path d="M44.8,10.2c-1.2,0.3-2.4,0.3-3.6,0.1c-2-0.3-4,0.2-6,0.2c-1.3-0.1-2.6-0.2-3.8,0.2c-2.6,0.7-5.2,0-7.8,0.1
		c-1.9,0.1-4.1,0.5-6-0.6c-0.6-0.3-1.6-0.1-2.4,0c-1.7,0.4-3.5,0.2-5.1,0C7.9,9.8,5.7,9.6,3.6,8.9C2.8,8.6,1.9,8.6,1.1,8.3
		C0.5,8-0.1,7.6,0,7c0.1-0.7,0.8-0.9,1.5-0.8C2.7,6.4,3.8,5.6,5,5.8c2,0.4,4,0.1,6-0.1c1.1-0.1,2.1,0.5,3.2,0.6
		c1.7,0.2,3.4,0.8,5-0.2C19.4,6,19.6,6,19.8,6c2.3,0.7,4.7-0.7,7,0.2c0.2,0.1,0.4,0,0.5,0c1.3-0.1,2.7-0.2,4.1-0.1
		c1,0.1,2.1,0.2,3.2,0.1c2.2-0.2,4.4,0,6.6-0.3c0.7-0.1,1.3,0,2,0.3c0.2,0.1,0.6,0.1,0.7-0.2c0.1-0.3-0.2-0.3-0.4-0.5
		c-1.4-1.5-3.6-1.8-5-3.3c-0.4-0.4-0.8-0.8-0.5-1.4c0.3-0.6,0.8-1,1.4-0.9c1.1,0.1,2.1,0.4,3.1,0.9c2.4,1.3,4.6,3,7,4.3
		c0.4,0.2,0.7,0.4,1.1,0.6c1.7,1.2,1.7,1.7,0.3,3.3c-1.3,1.4-2.5,2.9-4.2,3.8c-0.2,0.1-0.4,0.3-0.4,0.5c-0.8,2.3-3,2.6-4.8,3.4
		c-0.6,0.3-1.4,0.1-1.7-0.7c-0.3-0.9-0.2-1.7,0.6-2.2c1.2-0.8,2.2-2.1,3.6-2.6C44.3,11.1,44.7,10.8,44.8,10.2L44.8,10.2z"/>
</g>
</svg>
