<?xml version="1.0" encoding="UTF-8"?>
<svg id="b" data-name="Layer 2" xmlns="http://www.w3.org/2000/svg" width="51.863" height="16.924" viewBox="0 0 51.863 16.924">
  <g id="c" data-name="Layer 1">
    <path d="m44.839,10.215c-1.232.282-2.38.342-3.633.13-1.963-.332-4.012.249-5.989.172-1.294-.05-2.57-.18-3.802.165-2.61.731-5.229-.033-7.841.055-1.911.064-4.055.505-6.014-.555-.596-.323-1.632-.108-2.361.042-1.742.358-3.465.238-5.133-.036-2.173-.358-4.39-.569-6.501-1.33-.789-.284-1.692-.256-2.488-.6-.562-.242-1.19-.626-1.06-1.272.137-.686.843-.914,1.517-.811,1.197.184,2.263-.597,3.489-.378,1.991.356,3.995.062,5.998-.077,1.088-.076,2.131.496,3.248.609,1.696.171,3.374.843,5.011-.237.136-.09.369-.113.529-.066,2.33.678,4.726-.692,7.049.228.154.061.36-.013.541-.022,1.348-.07,2.656-.229,4.056-.07.974.111,2.143.219,3.179.133,2.216-.183,4.445.031,6.644-.315.712-.112,1.336.047,1.966.343.248.117.582.141.695-.189.092-.27-.243-.304-.378-.452-1.402-1.537-3.6-1.809-5.022-3.332-.413-.442-.8-.791-.541-1.404.252-.596.801-1.015,1.392-.937,1.055.139,2.059.414,3.065.94,2.441,1.277,4.589,3.03,7.031,4.287.364.187.722.396,1.052.639,1.679,1.235,1.735,1.725.326,3.283-1.265,1.399-2.476,2.865-4.176,3.771-.187.1-.374.307-.448.508-.834,2.255-2.968,2.62-4.79,3.377-.607.252-1.384.091-1.703-.733-.334-.862-.202-1.663.562-2.188,1.223-.838,2.182-2.053,3.613-2.598.417-.159.788-.46.917-1.081Z"/>
  </g>
</svg>