<?xml version="1.0" encoding="utf-8"?>
<!-- Generator: Adobe Illustrator 27.7.0, SVG Export Plug-In . SVG Version: 6.00 Build 0)  -->
<svg version="1.1" id="b" xmlns="http://www.w3.org/2000/svg" xmlns:xlink="http://www.w3.org/1999/xlink" x="0px" y="0px"
	 viewBox="0 0 51.9 16.9" style="enable-background:new 0 0 51.9 16.9;" xml:space="preserve">
<style type="text/css">
	.st0{fill:#E32027;}
</style>
<g id="c">
	<path class="st0" d="M7,6.7c1.2-0.3,2.4-0.3,3.6-0.1c2,0.3,4-0.2,6-0.2c1.3,0.1,2.6,0.2,3.8-0.2c2.6-0.7,5.2,0,7.8-0.1
		c1.9-0.1,4.1-0.5,6,0.6c0.6,0.3,1.6,0.1,2.4,0c1.7-0.4,3.5-0.2,5.1,0c2.2,0.4,4.4,0.6,6.5,1.3c0.8,0.3,1.7,0.3,2.5,0.6
		c0.6,0.2,1.2,0.6,1.1,1.3c-0.1,0.7-0.8,0.9-1.5,0.8c-1.2-0.2-2.3,0.6-3.5,0.4c-2-0.4-4-0.1-6,0.1c-1.1,0.1-2.1-0.5-3.2-0.6
		c-1.7-0.2-3.4-0.8-5,0.2c-0.1,0.1-0.4,0.1-0.5,0.1c-2.3-0.7-4.7,0.7-7-0.2c-0.2-0.1-0.4,0-0.5,0c-1.3,0.1-2.7,0.2-4.1,0.1
		c-1-0.1-2.1-0.2-3.2-0.1c-2.2,0.2-4.4,0-6.6,0.3c-0.7,0.1-1.3,0-2-0.3c-0.2-0.1-0.6-0.1-0.7,0.2c-0.1,0.3,0.2,0.3,0.4,0.5
		c1.4,1.5,3.6,1.8,5,3.3c0.4,0.4,0.8,0.8,0.5,1.4c-0.3,0.6-0.8,1-1.4,0.9c-1.1-0.1-2.1-0.4-3.1-0.9c-2.4-1.3-4.6-3-7-4.3
		C2,11.5,1.7,11.3,1.3,11C-0.4,9.8-0.4,9.3,1,7.8C2.3,6.4,3.5,4.9,5.2,4c0.2-0.1,0.4-0.3,0.4-0.5c0.8-2.3,3-2.6,4.8-3.4
		C11-0.1,11.8,0,12.1,0.8c0.3,0.9,0.2,1.7-0.6,2.2c-1.2,0.8-2.2,2.1-3.6,2.6C7.5,5.8,7.2,6.1,7,6.7L7,6.7z"/>
</g>
</svg>
