<?xml version="1.0" encoding="UTF-8"?>
<svg id="b" data-name="Layer 2" xmlns="http://www.w3.org/2000/svg" width="209.204" height="7.953" viewBox="0 0 209.204 7.953">
  <defs>
    <style>
      .d {
        fill: #a7865d;
      }
    </style>
  </defs>
  <g id="c" data-name="Layer 1">
    <path class="d" d="m195.547.471c-3.613-.293-7.379-1.549-10.391,1.828-.823.922-1.744.381-2.513-.341-.822-.771-1.662-1.535-2.852-.605-.381.283-.763.566-1.145.848,0,0,.063.001.063.001-.966,1.104-2.289.831-3.496.834-12.055.027-24.109.039-36.164-.003-.92-.003-1.967.238-2.818-.183h-3.857c-.677.776-2.468.182-3.53.161-1.152-.023-2.95.678-3.75-.161h-3.842c-.941.518-2.132.204-3.16.205-36.245.036-72.49.029-108.736.004-1.332,0-2.804.368-3.897-.847,0,0,.051-.004.051-.004-.376-.281-.753-.561-1.131-.842C2.33.068,1.49,1.891.473,2.975c-1.295,1.38.431,2.06.885,3.032.333.335.543.697.682,1.073.673.07,1.303.201,1.909.364.121-.409.325-.8.694-1.155l-.006.033c.289-.286.577-.573.866-.859l-.019.003c1.442-1.226,3.183-.744,4.792-.746,35.786-.033,71.572-.045,107.357.023,1.098.002,2.525-.561,3.55.043h4.114c.856-.595,2.701-.053,3.869-.028,1.219.026,3.027-.583,4.019.028h4.659c.096-.007.185-.02.29-.02,1.377.007,2.754.013,4.131.02h2.422c.09,0,.173.011.262.013,10.75.049,21.5.091,32.25.154.219.001.436.3.654.463.791-.131,1.271.333,1.7.897.29.267.58.534.87.802.532.003,1.064.006,1.597.01,0,0-.173-.103-.173-.103,2.836-4.552,4.387-.292,6.383.93,2.591-.036,5.182-.073,7.772-.11,3.258-2.407,7.227-2.053,10.911-2.808.725-.285,1.451-.57,2.29-.899-1.838-1.153-10.237-3.389-13.657-3.666Zm-4.329,5.769c-1.645.324-2.974-.252-4.144-1.374-.645-.618-.539-1.185.015-1.763,1.1-1.149,2.321-1.932,4.036-1.563,3.082.662,6.175,1.271,9.263,1.902.028.33.057.66.085.99-3.085.603-6.171,1.201-9.256,1.809Z"/>
  </g>
</svg>